<svg width="34" height="42" viewBox="0 0 34 42" fill="none" xmlns="http://www.w3.org/2000/svg">
<path d="M22.8224 6.61192C21.3585 8.34419 19.0163 9.71049 16.6741 9.51531C16.3813 7.17308 17.528 4.68446 18.8699 3.14737C20.3338 1.3663 22.8956 0.0975929 24.9695 0C25.2135 2.43982 24.2619 4.83085 22.8224 6.61192ZM24.9451 9.97888C21.5537 9.78369 18.6503 11.9063 17.0401 11.9063C15.4054 11.9063 12.9411 10.0765 10.2573 10.1253C6.7684 10.1741 3.52343 12.1503 1.74236 15.2977C-1.91737 21.5924 0.790831 30.9126 4.32857 36.0362C6.06085 38.5736 8.1347 41.355 10.8673 41.2574C13.4535 41.1598 14.4782 39.5739 17.6012 39.5739C20.7486 39.5739 21.6513 41.2574 24.3839 41.2086C27.2141 41.1598 28.9952 38.6712 30.7275 36.1338C32.7037 33.2548 33.5089 30.449 33.5577 30.3026C33.5089 30.2538 28.0924 28.18 28.0437 21.934C27.9949 16.7128 32.3133 14.2242 32.5085 14.0778C30.0687 10.4668 26.2626 10.0765 24.9451 9.97888Z" fill="black"/>
</svg>
