<svg width="148" height="24" viewBox="0 0 148 24" fill="none" xmlns="http://www.w3.org/2000/svg">
<path d="M11.7752 23.8913C16.0205 23.8913 19.7699 21.9081 21.8771 19.0263L18.7164 16.1444C16.9501 18.3755 14.719 19.4911 12.0541 19.4911C9.97792 19.4911 8.24263 18.8093 6.8482 17.4149C5.45377 16.0205 4.77205 14.2852 4.77205 12.1781C4.77205 10.0089 5.48476 8.21167 6.87919 6.81724C8.27362 5.39182 10.0089 4.67912 12.0851 4.67912C14.657 4.67912 16.8261 5.79466 18.6234 7.99476L21.6911 4.98899C19.677 2.13815 15.9585 0.247925 11.8372 0.247925C8.55251 0.247925 5.76365 1.36347 3.43959 3.62555C1.14653 5.85663 0 8.70747 0 12.1781C0 15.6176 1.11554 18.4375 3.37762 20.6376C5.6397 22.8067 8.45955 23.8913 11.7752 23.8913Z" fill="#FD8839"/>
<path d="M91.1681 6.22846C89.123 6.22846 87.4187 7.03413 86.0242 8.61448V0H81.655V23.5504H85.9003V21.4432C87.2947 23.1166 89.03 23.9532 91.1681 23.9532C93.5542 23.9532 95.5683 23.1166 97.1797 21.4432C98.791 19.7389 99.5967 17.6318 99.5967 15.1218C99.5967 12.6118 98.791 10.5047 97.1797 8.80041C95.5683 7.0961 93.5542 6.22846 91.1681 6.22846ZM85.8383 15.0908C85.8383 13.7584 86.2721 12.6118 87.1398 11.6822C88.0074 10.7216 89.123 10.2568 90.4864 10.2568C91.8499 10.2568 92.9654 10.7216 93.8331 11.6512C94.7007 12.5809 95.1345 13.7274 95.1345 15.0908C95.1345 16.4543 94.7007 17.6008 93.8331 18.5614C92.9654 19.491 91.8499 19.9558 90.4864 19.9558C89.123 19.9558 88.0074 19.491 87.1398 18.5614C86.2721 17.6008 85.8383 16.4543 85.8383 15.0908Z" fill="#FD8839"/>
<path d="M119.049 14.719C119.049 12.0851 118.243 10.0399 116.662 8.52152C115.082 7.00314 113.037 6.22846 110.589 6.22846C107.986 6.22846 105.879 7.06512 104.237 8.73843C102.594 10.4117 101.789 12.5189 101.789 15.0908C101.789 17.5388 102.563 19.646 104.144 21.3503C105.724 23.0546 107.986 23.9222 110.961 23.9222C113.75 23.9222 116.198 23.1475 118.336 21.5982L116.601 18.5304C115.144 19.522 112.975 20.2347 111.147 20.2347C108.482 20.2347 106.84 19.0262 106.22 16.6402H118.894C118.987 15.9585 119.049 15.3077 119.049 14.719ZM110.589 9.85398C112.82 9.85398 114.4 11.1864 114.803 13.3865H106.22C106.747 11.1864 108.389 9.85398 110.589 9.85398Z" fill="#FD8839"/>
<path d="M126.423 23.5504V15.5247C126.423 12.0231 128.065 10.4117 130.544 10.4117C131.164 10.4117 131.846 10.5357 132.558 10.7526L132.93 6.56932C132.248 6.32142 131.567 6.19747 130.885 6.19747C128.809 6.19747 127.259 7.0961 126.237 8.92435V6.66228H122.054V23.5504H126.423Z" fill="#FD8839"/>
<path d="M140.463 23.9842C142.478 23.9842 144.12 23.4884 145.328 22.4658C146.568 21.4432 147.188 20.1418 147.188 18.5614C147.188 16.7022 146.227 15.2768 144.337 14.2852C143.872 14.0373 142.509 13.4795 140.278 12.6428C139.286 12.302 138.79 11.8062 138.79 11.0935C138.79 10.3188 139.565 9.66805 140.711 9.66805C142.106 9.66805 143.407 10.2258 144.585 11.3414L146.754 8.52152C145.204 6.91018 143.221 6.10451 140.835 6.10451C138.945 6.10451 137.396 6.56932 136.249 7.52992C135.103 8.49053 134.514 9.69904 134.514 11.1864C134.514 13.1696 135.474 14.626 137.427 15.5556C137.799 15.7416 138.511 16.0514 139.596 16.4543C140.68 16.8571 141.331 17.105 141.61 17.229C142.416 17.6008 142.818 18.0966 142.818 18.6854C142.818 19.646 141.827 20.3277 140.494 20.3277C138.79 20.3277 137.024 19.4291 135.815 17.9727L133.491 20.7305C135.196 22.8996 137.52 23.9842 140.463 23.9842Z" fill="#FD8839"/>
<path fill-rule="evenodd" clip-rule="evenodd" d="M44.3807 11.0694H32.7604C30.5024 11.0694 28.6718 12.9 28.6718 15.158C28.6718 17.4161 30.5024 19.2466 32.7604 19.2466H44.3807C46.6388 19.2466 48.4693 17.4161 48.4693 15.158C48.4693 12.8999 46.6388 11.0694 44.3807 11.0694ZM32.7604 6.76562C28.1255 6.76562 24.368 10.523 24.368 15.158C24.368 19.793 28.1254 23.5504 32.7604 23.5504H44.3807C49.0157 23.5504 52.7731 19.793 52.7731 15.158C52.7731 10.523 49.0157 6.76562 44.3807 6.76562H32.7604Z" fill="#FD8839"/>
<path fill-rule="evenodd" clip-rule="evenodd" d="M54.4946 11.0694C54.4946 8.6925 56.4215 6.76562 58.7984 6.76562H73.6465C76.0234 6.76562 77.9503 8.6925 77.9503 11.0694V23.5504L73.4313 23.5504V12.6833C73.4313 11.3166 72.3234 10.2087 70.9566 10.2087C69.5899 10.2087 68.482 11.3166 68.482 12.6834V23.5504H63.963V12.6833C63.963 11.3166 62.855 10.2087 61.4883 10.2087C60.1216 10.2087 59.0136 11.3166 59.0136 12.6834V23.5504L54.4946 23.5504V11.0694Z" fill="#FD8839"/>
</svg>
