<svg width="28" height="28" viewBox="0 0 28 28" fill="none" xmlns="http://www.w3.org/2000/svg">
<path d="M20.9067 7.43199C20.5217 7.33866 20.1133 7.29199 19.6933 7.29199C16.6367 7.29199 14.1517 9.77699 14.1517 12.8337C14.1517 13.872 14.4433 14.852 14.9567 15.692C15.3883 16.4153 15.9833 17.0337 16.7067 17.477C17.57 18.0487 18.5967 18.3753 19.6933 18.3753C21.7233 18.3753 23.485 17.2903 24.4417 15.692C24.955 14.852 25.235 13.872 25.235 12.8337C25.235 10.197 23.3917 7.98033 20.9067 7.43199ZM21.9683 12.332L19.1333 15.167C19.0283 15.272 18.8067 15.377 18.655 15.4003L17.57 15.552C17.1733 15.6103 16.905 15.3303 16.9633 14.9453L17.115 13.8603C17.1383 13.7087 17.2433 13.4987 17.3483 13.382L19.775 10.9553L20.1833 10.547C20.6733 10.057 21.245 9.82366 21.9567 10.547C22.6683 11.2703 22.4583 11.842 21.9683 12.332Z" fill="white"/>
<path d="M24.01 4.68967V5.80967C24.01 6.28801 23.4617 6.57968 23.03 6.35801C22.4933 6.07801 21.9217 5.86801 21.315 5.72801C20.8017 5.59967 20.2533 5.54134 19.6933 5.54134C15.6683 5.54134 12.4017 8.80801 12.4017 12.833C12.4017 14.163 12.7633 15.4697 13.4517 16.5897C14.035 17.5697 14.8517 18.3863 15.7383 18.9347C15.9367 19.063 16.1467 19.1797 16.345 19.2963C16.5433 19.4013 16.6833 19.6113 16.6833 19.833V22.248C16.6833 22.9597 16.2167 23.9047 15.6333 24.2547L14 25.3163C12.4833 26.2613 10.395 25.1997 10.395 23.3097V17.068C10.395 16.2397 9.92832 15.178 9.46166 14.5947L5.03999 9.88134C4.45666 9.28634 3.98999 8.22468 3.98999 7.52468V4.80634C3.98999 3.39467 5.03999 2.33301 6.31166 2.33301H21.6883C22.96 2.33301 24.01 3.39467 24.01 4.68967Z" fill="white"/>
</svg>
