<svg width="43" height="36" viewBox="0 0 43 36" fill="none" xmlns="http://www.w3.org/2000/svg">
<g clip-path="url(#clip0_33487_2870)">
<path d="M36.4805 6.63491C33.7582 6.08406 29.3687 5.33908 28.1423 7.90176C24.3944 14.3934 22.2427 21.1876 20.623 24.1027C20.7932 24.201 28.2583 28.5321 28.7863 28.7884C30.4646 29.6028 33.2665 29.2363 34.4601 27.0835C37.7714 21.1115 36.9297 22.6663 40.4479 16.5726C42.7214 12.6347 39.8789 7.32244 36.4805 6.63491Z" fill="#EA4335"/>
<path d="M12.9286 32.9892C11.1006 30.898 9.7597 26.7141 11.3659 24.371C16.0583 16.2434 19.8146 11.3233 22.7688 6.3916C24.3352 7.29608 30.6118 10.8564 31.0298 11.2232C32.4321 12.4533 33.5938 14.8039 32.3263 16.914C28.8099 22.7677 27.3671 25.4168 23.7931 31.6073C21.5191 35.5462 15.2123 35.6018 12.9286 32.9892Z" fill="#FDBD00"/>
<path d="M29.7591 2.49136C26.1022 0.354509 24.2226 0.634564 22.2561 0.949946C20.4682 1.39687 18.0508 2.69613 17.0318 4.36531C14.461 8.5759 12.0261 12.7424 8.87179 18.3886C7.90026 20.1276 8.6214 22.2641 9.51799 23.112C10.1256 23.6868 14.5964 26.1535 15.4213 26.5081C16.5881 27.0098 18.336 26.6608 19.3904 25.5755C19.6816 25.2757 26.3511 13.8199 28.2293 10.4411C29.0222 9.01527 29.7363 8.22622 30.9218 7.46563C33.2122 6.26378 35.0004 6.10874 37.7393 7.11029C37.7393 7.11029 31.7781 3.65497 29.7591 2.49136Z" fill="#2DA94F"/>
<path d="M6.22981 29.3762C2.55069 27.2778 1.85338 25.51 1.14322 23.6491C0.636442 21.8775 0.552923 19.1343 1.48895 17.4169C3.85029 13.0856 3.83332 13.0636 7.14595 7.50868C8.16618 5.79782 10.3771 5.35416 11.5598 5.70659C12.3613 5.94531 16.7328 8.58379 17.4524 9.12092C18.4704 9.88065 19.042 11.5689 18.6294 13.0247C18.5153 13.4267 14.3365 20.7606 12.3497 24.0768C11.5111 25.4762 11.1849 26.4891 11.119 27.8961C11.2233 30.4805 11.983 32.1066 14.22 33.978C14.22 33.978 8.24696 30.5429 6.22981 29.3762Z" fill="#297AEC"/>
</g>
<defs>
<clipPath id="clip0_33487_2870">
<rect width="42.1695" height="35.4561" fill="white" transform="translate(0.553711 0.25)"/>
</clipPath>
</defs>
</svg>
