<svg width="23" height="23" viewBox="0 0 23 23" fill="none" xmlns="http://www.w3.org/2000/svg">
<path d="M6.5 20L11.5 10.1M6.96945 14.3C6 13.5 5.5 12.5757 5.5 11.5V10.5C5.5 7.79382 7.7938 5.5 10.5 5.5H12.5C15.2062 5.5 17.5 7.7938 17.5 10.5V11.5C17.5 13.8196 15.3196 15.5 13 15.5C11.5464 15.5 10.2948 14.474 10.0097 13.0486L10 13M11.5 21.5C5.97715 21.5 1.5 17.0228 1.5 11.5C1.5 5.97715 5.97715 1.5 11.5 1.5C17.0228 1.5 21.5 5.97715 21.5 11.5C21.5 17.0228 17.0228 21.5 11.5 21.5Z" stroke="#FD8839" stroke-width="2"/>
</svg>
