<svg width="114" height="114" viewBox="0 0 114 114" fill="none" xmlns="http://www.w3.org/2000/svg">
<g filter="url(#filter0_ii_33631_5882)">
<circle cx="57" cy="57" r="57" fill="url(#paint0_linear_33631_5882)"/>
</g>
<path d="M89.8668 37.4106C89.444 34.4956 83.8286 39.316 76.1767 40.4258C68.5247 41.5356 61.7339 38.5146 62.1567 41.4296C62.5795 44.3446 68.479 47.4257 76.1309 46.3159C83.7828 45.206 90.2896 40.3256 89.8668 37.4106Z" fill="#7A3C01"/>
<path d="M77.0285 83.087C77.0102 86.0324 69.2252 82.0195 59.5626 81.9594C49.8999 81.8993 37.8148 84.9049 37.8331 81.9594C37.8514 79.0139 48.8229 76.07 58.4856 76.1301C68.1483 76.1902 77.0468 80.1415 77.0285 83.087Z" fill="#532A03"/>
<path d="M27.6489 37.4106C28.0716 34.4956 33.687 39.316 41.339 40.4258C48.9909 41.5356 55.7817 38.5146 55.3589 41.4296C54.9362 44.3446 49.0367 47.4257 41.3847 46.3159C33.7328 45.206 27.2261 40.3256 27.6489 37.4106Z" fill="#7A3C01"/>
<defs>
<filter id="filter0_ii_33631_5882" x="-25.1471" y="-8.38235" width="155.912" height="139.147" filterUnits="userSpaceOnUse" color-interpolation-filters="sRGB">
<feFlood flood-opacity="0" result="BackgroundImageFix"/>
<feBlend mode="normal" in="SourceGraphic" in2="BackgroundImageFix" result="shape"/>
<feColorMatrix in="SourceAlpha" type="matrix" values="0 0 0 0 0 0 0 0 0 0 0 0 0 0 0 0 0 0 127 0" result="hardAlpha"/>
<feOffset dx="16.7647" dy="16.7647"/>
<feGaussianBlur stdDeviation="16.7647"/>
<feComposite in2="hardAlpha" operator="arithmetic" k2="-1" k3="1"/>
<feColorMatrix type="matrix" values="0 0 0 0 1 0 0 0 0 0.844167 0 0 0 0 0.504167 0 0 0 1 0"/>
<feBlend mode="normal" in2="shape" result="effect1_innerShadow_33631_5882"/>
<feColorMatrix in="SourceAlpha" type="matrix" values="0 0 0 0 0 0 0 0 0 0 0 0 0 0 0 0 0 0 127 0" result="hardAlpha"/>
<feOffset dx="-25.1471" dy="-8.38235"/>
<feGaussianBlur stdDeviation="12.5735"/>
<feComposite in2="hardAlpha" operator="arithmetic" k2="-1" k3="1"/>
<feColorMatrix type="matrix" values="0 0 0 0 0.875 0 0 0 0 0.3675 0 0 0 0 0 0 0 0 1 0"/>
<feBlend mode="normal" in2="effect1_innerShadow_33631_5882" result="effect2_innerShadow_33631_5882"/>
</filter>
<linearGradient id="paint0_linear_33631_5882" x1="12.8529" y1="20.3971" x2="92.2059" y2="103.941" gradientUnits="userSpaceOnUse">
<stop offset="0.0104167" stop-color="#FFC42B"/>
<stop offset="1" stop-color="#FF7A00"/>
</linearGradient>
</defs>
</svg>
