<svg width="62" height="52" viewBox="0 0 62 52" fill="none" xmlns="http://www.w3.org/2000/svg">
<path d="M36.9183 21.8633C38.6884 22.5898 40.4321 23.3164 42.1757 24.0429C47.552 26.2753 52.9283 28.5077 58.3046 30.7269C59.903 31.3874 60.8541 32.5895 61.039 34.3067C61.1051 34.8615 61.0126 35.4428 60.8937 35.9976C60.7088 36.8166 60.4446 36.9222 59.6652 36.6052C58.014 35.9315 56.376 35.2446 54.7248 34.5709C48.7013 32.0743 42.6777 29.5777 36.6409 27.0811C36.5352 27.0415 36.4428 27.0018 36.2182 26.9226C36.3107 27.1868 36.3635 27.3849 36.4428 27.5566C39.2564 34.3596 42.07 41.1493 44.8837 47.9522C45.2403 48.8109 45.597 49.6563 45.9405 50.5149C46.1782 51.1093 46.0726 51.3339 45.4649 51.5584C43.4042 52.3114 41.0529 51.3207 40.115 49.2468C39.5074 47.8862 38.9658 46.486 38.3846 45.1122C36.1257 39.6698 33.8801 34.2407 31.6213 28.7983C31.542 28.6266 31.4628 28.4549 31.3307 28.1775C30.4852 31.3478 28.7416 33.7255 25.9676 35.2842C23.8012 36.4995 21.4631 36.8562 19.0193 36.5259C14.4092 35.9183 9.38955 31.678 9.77263 24.743C8.9008 24.6902 8.02896 24.6902 7.15713 24.5713C4.85867 24.2675 2.87723 23.2899 1.19961 21.7048C0.724068 21.2557 0.710858 20.9915 1.15998 20.5424C1.92614 19.7498 2.7055 18.9836 3.49808 18.2043C3.97362 17.7419 4.14535 17.7551 4.66052 18.2043C7.14392 20.3838 10.4859 20.3574 12.9033 18.0722C14.6205 16.4474 16.5888 15.3774 18.9137 15.0075C20.6837 14.7301 22.4274 14.8358 24.1314 15.4038C24.3164 15.4699 24.4881 15.5095 24.7523 15.602C24.2107 14.3074 23.8805 13.0525 23.8144 11.7316C23.6691 8.82545 24.5145 6.2628 26.3903 4.0568C30.2871 -0.540137 37.1957 -1.09494 41.7794 2.8151C42.8098 3.70014 43.6552 4.73049 44.3025 5.91935C44.6459 6.56662 44.5799 6.80439 43.9326 7.12142C43.0079 7.57054 42.07 8.01967 41.1454 8.4688C40.4056 8.82545 40.3132 8.79904 39.8773 8.11214C38.5827 6.01181 36.6937 4.98147 34.2368 5.1664C31.8326 5.35134 30.089 6.61946 29.1775 8.83866C28.266 11.0579 28.5963 13.1846 30.1682 15.0075C32.9026 18.1646 37.7373 17.7023 39.8773 14.1225C40.2868 13.4356 40.4056 13.396 41.1454 13.7658C42.0172 14.1885 42.889 14.6113 43.7477 15.034C44.6327 15.4699 44.6855 15.6284 44.1836 16.5002C42.6645 19.1553 40.4056 20.8594 37.4731 21.6784C37.3278 21.718 37.1693 21.7576 37.024 21.7973C37.0108 21.7708 36.9844 21.8105 36.9183 21.8633ZM26.6677 25.7998C26.6941 22.4709 24.0654 19.7894 20.7366 19.7498C17.4606 19.7101 14.7394 22.3785 14.713 25.6545C14.6866 28.9965 17.2757 31.6384 20.5384 31.7309C23.8012 31.8101 26.6809 29.1286 26.6677 25.7998ZM32.3082 24.1221C32.9158 24.1089 33.4178 23.5806 33.3914 22.9597C33.3649 22.3653 32.8762 21.8897 32.2817 21.9029C31.6873 21.9161 31.1986 22.4049 31.1854 22.9861C31.1721 23.5806 31.7137 24.1354 32.3082 24.1221Z" fill="white"/>
</svg>
