<svg width="82" height="82" viewBox="0 0 82 82" fill="none" xmlns="http://www.w3.org/2000/svg">
<rect width="82" height="82" rx="20" fill="url(#paint0_linear_112_3731)"/>
<g clip-path="url(#clip0_112_3731)">
<path d="M46.9183 34.8633C48.6884 35.5898 50.4321 36.3164 52.1757 37.0429C57.552 39.2753 62.9283 41.5077 68.3046 43.7269C69.903 44.3874 70.8541 45.5895 71.039 47.3067C71.1051 47.8615 71.0126 48.4428 70.8937 48.9976C70.7088 49.8166 70.4446 49.9222 69.6652 49.6052C68.014 48.9315 66.376 48.2446 64.7248 47.5709C58.7013 45.0743 52.6777 42.5777 46.6409 40.0811C46.5352 40.0415 46.4428 40.0018 46.2182 39.9226C46.3107 40.1868 46.3635 40.3849 46.4428 40.5566C49.2564 47.3596 52.07 54.1493 54.8837 60.9522C55.2403 61.8109 55.597 62.6563 55.9405 63.5149C56.1782 64.1093 56.0726 64.3339 55.4649 64.5584C53.4042 65.3114 51.0529 64.3207 50.115 62.2468C49.5074 60.8862 48.9658 59.486 48.3846 58.1122C46.1257 52.6698 43.8801 47.2407 41.6213 41.7983C41.542 41.6266 41.4628 41.4549 41.3307 41.1775C40.4852 44.3478 38.7416 46.7255 35.9676 48.2842C33.8012 49.4995 31.4631 49.8562 29.0193 49.5259C24.4092 48.9183 19.3896 44.678 19.7726 37.743C18.9008 37.6902 18.029 37.6902 17.1571 37.5713C14.8587 37.2675 12.8772 36.2899 11.1996 34.7048C10.7241 34.2557 10.7109 33.9915 11.16 33.5424C11.9261 32.7498 12.7055 31.9836 13.4981 31.2043C13.9736 30.7419 14.1453 30.7551 14.6605 31.2043C17.1439 33.3838 20.4859 33.3574 22.9033 31.0722C24.6205 29.4474 26.5888 28.3774 28.9137 28.0075C30.6837 27.7301 32.4274 27.8358 34.1314 28.4038C34.3164 28.4699 34.4881 28.5095 34.7523 28.602C34.2107 27.3074 33.8805 26.0525 33.8144 24.7316C33.6691 21.8255 34.5145 19.2628 36.3903 17.0568C40.2871 12.4599 47.1957 11.9051 51.7794 15.8151C52.8098 16.7001 53.6552 17.7305 54.3025 18.9193C54.6459 19.5666 54.5799 19.8044 53.9326 20.1214C53.0079 20.5705 52.07 21.0197 51.1454 21.4688C50.4056 21.8255 50.3132 21.799 49.8773 21.1121C48.5827 19.0118 46.6937 17.9815 44.2368 18.1664C41.8326 18.3513 40.089 19.6195 39.1775 21.8387C38.266 24.0579 38.5963 26.1846 40.1682 28.0075C42.9026 31.1646 47.7373 30.7023 49.8773 27.1225C50.2868 26.4356 50.4056 26.396 51.1454 26.7658C52.0172 27.1885 52.889 27.6113 53.7477 28.034C54.6327 28.4699 54.6855 28.6284 54.1836 29.5002C52.6645 32.1553 50.4056 33.8594 47.4731 34.6784C47.3278 34.718 47.1693 34.7576 47.024 34.7973C47.0108 34.7708 46.9844 34.8105 46.9183 34.8633ZM36.6677 38.7998C36.6941 35.4709 34.0654 32.7894 30.7366 32.7498C27.4606 32.7101 24.7394 35.3785 24.713 38.6545C24.6866 41.9965 27.2757 44.6384 30.5384 44.7309C33.8012 44.8101 36.6809 42.1286 36.6677 38.7998ZM42.3082 37.1221C42.9158 37.1089 43.4178 36.5806 43.3914 35.9597C43.3649 35.3653 42.8762 34.8897 42.2817 34.9029C41.6873 34.9161 41.1986 35.4049 41.1854 35.9861C41.1721 36.5806 41.7137 37.1354 42.3082 37.1221Z" fill="white"/>
</g>
<defs>
<linearGradient id="paint0_linear_112_3731" x1="-1.69772" y1="-0.00011599" x2="84.8233" y2="0.202796" gradientUnits="userSpaceOnUse">
<stop stop-color="#FFA553"/>
<stop offset="1" stop-color="#FE5150"/>
</linearGradient>
<clipPath id="clip0_112_3731">
<rect width="60.2093" height="51.623" fill="white" transform="translate(10.8574 13.1852)"/>
</clipPath>
</defs>
</svg>
