<svg width="28" height="28" viewBox="0 0 28 28" fill="none" xmlns="http://www.w3.org/2000/svg">
<path fill-rule="evenodd" clip-rule="evenodd" d="M11.576 25.443C7.12635 25.443 3.32535 24.7699 3.32535 22.0749C3.32535 19.3799 7.10185 16.9287 11.576 16.9287C16.0257 16.9287 19.8267 19.3565 19.8267 22.0504C19.8267 24.7442 16.0502 25.443 11.576 25.443Z" stroke="#15093E" stroke-width="2" stroke-linecap="round" stroke-linejoin="round"/>
<path fill-rule="evenodd" clip-rule="evenodd" d="M11.576 13.0853C14.4962 13.0853 16.8645 10.717 16.8645 7.7968C16.8645 4.87547 14.4962 2.5083 11.576 2.5083C8.65585 2.5083 6.28752 4.87547 6.28752 7.7968C6.27702 10.7065 8.62902 13.0748 11.5387 13.0853H11.576Z" stroke="#15093E" stroke-width="2" stroke-linecap="round" stroke-linejoin="round"/>
<path d="M22.3199 9.48389V14.1622" stroke="#15093E" stroke-width="2" stroke-linecap="round" stroke-linejoin="round"/>
<path d="M24.7072 11.8228H19.9355" stroke="#15093E" stroke-width="2" stroke-linecap="round" stroke-linejoin="round"/>
</svg>
