<svg width="283" height="287" viewBox="0 0 283 287" fill="none" xmlns="http://www.w3.org/2000/svg">
<path fill-rule="evenodd" clip-rule="evenodd" d="M82.1951 61.7039C120.054 31.0919 155.52 -3.08014 187.49 0.221858C219.396 3.45786 247.807 44.2939 258.551 83.3839C269.229 122.538 262.239 159.945 247.354 197.934C232.534 235.859 209.818 274.366 177.459 284.268C145.165 294.105 103.163 275.337 65.9501 247.573C28.8021 219.809 -3.62085 183.049 0.327146 151.208C4.21015 119.302 44.3991 92.3149 82.1951 61.7039Z" fill="#FD8839" fill-opacity="0.04"/>
<path d="M203.392 64.0449C205.049 64.0449 206.392 62.7018 206.392 61.0449C206.392 59.3881 205.049 58.0449 203.392 58.0449C201.735 58.0449 200.392 59.3881 200.392 61.0449C200.392 62.7018 201.735 64.0449 203.392 64.0449Z" fill="#FD8839"/>
<path d="M158.392 266.045C161.154 266.045 163.392 263.806 163.392 261.045C163.392 258.283 161.154 256.045 158.392 256.045C155.631 256.045 153.392 258.283 153.392 261.045C153.392 263.806 155.631 266.045 158.392 266.045Z" fill="#FF4746"/>
<path d="M68.3921 124.045C71.1535 124.045 73.3921 121.806 73.3921 119.045C73.3921 116.283 71.1535 114.045 68.3921 114.045C65.6307 114.045 63.3921 116.283 63.3921 119.045C63.3921 121.806 65.6307 124.045 68.3921 124.045Z" fill="url(#paint0_linear_235:1070)"/>
<path fill-rule="evenodd" clip-rule="evenodd" d="M105.286 74.9248L105.123 74.9008C101.959 74.4381 98.7624 74.2441 95.5661 74.3208C95.3692 74.326 95.1734 74.2916 94.9901 74.2198C94.8061 74.1496 94.6381 74.0432 94.4961 73.9068C94.2116 73.6377 94.0448 73.2672 94.0321 72.8758V72.8668L94.0311 72.8568C94.0211 72.4428 94.1591 72.0858 94.4451 71.7858C94.7311 71.4858 95.0811 71.3318 95.4951 71.3218C98.9291 71.2398 102.34 71.4518 105.729 71.9578C106.139 72.0188 106.467 72.2168 106.714 72.5488C106.96 72.8818 107.053 73.2538 106.991 73.6628C106.963 73.8581 106.896 74.0458 106.795 74.215C106.693 74.3841 106.559 74.5313 106.4 74.6478C106.242 74.7655 106.062 74.8506 105.871 74.8982C105.68 74.9457 105.481 74.9548 105.286 74.9248ZM74.5941 77.2198L74.5981 77.2288L74.6021 77.2378C74.7541 77.6188 75.0181 77.8918 75.3941 78.0558C75.7701 78.2208 76.1491 78.2288 76.5321 78.0818C79.5679 76.9157 82.6984 76.0131 85.8891 75.3838C86.0825 75.346 86.2664 75.2698 86.4301 75.1598C86.5934 75.0523 86.7338 74.9135 86.8433 74.7515C86.9528 74.5895 87.0292 74.4075 87.0681 74.2158C87.1071 74.0248 87.1091 73.8328 87.0741 73.6398L87.0721 73.6308L87.0701 73.6208C87.0349 73.4267 86.9603 73.2418 86.8509 73.0775C86.7415 72.9133 86.5997 72.7732 86.4341 72.6658C86.2718 72.5532 86.0881 72.475 85.8944 72.4363C85.7007 72.3976 85.5011 72.3992 85.3081 72.4408C81.9489 73.1032 78.6531 74.0537 75.4571 75.2818C75.2727 75.3516 75.104 75.4573 74.961 75.593C74.818 75.7286 74.7034 75.8914 74.6241 76.0718C74.5432 76.2516 74.4989 76.4457 74.4938 76.6428C74.4886 76.8399 74.5227 77.0361 74.5941 77.2198ZM57.7921 87.8868L57.7981 87.8938L57.8051 87.9008C58.0771 88.2078 58.4181 88.3748 58.8271 88.4018C59.2371 88.4288 59.5971 88.3088 59.9071 88.0398C62.3638 85.9151 65.0004 84.0076 67.7871 82.3388C68.1401 82.1278 68.3671 81.8238 68.4701 81.4268C68.5721 81.0298 68.5201 80.6528 68.3141 80.2988L68.3091 80.2898L68.3041 80.2818C68.2033 80.1125 68.07 79.9648 67.9117 79.8473C67.7534 79.7299 67.5734 79.6451 67.3821 79.5978C67.1914 79.5488 66.9927 79.539 66.7981 79.5688C66.6027 79.5968 66.415 79.6638 66.2461 79.7658C63.3105 81.523 60.5334 83.5323 57.9461 85.7708C57.7945 85.8975 57.6705 86.0539 57.5818 86.2304C57.493 86.4068 57.4414 86.5996 57.4301 86.7968C57.4001 87.2098 57.5201 87.5728 57.7921 87.8868ZM45.5501 103.64L45.5581 103.645L45.5671 103.65C45.9271 103.847 46.3041 103.89 46.6991 103.778C47.0931 103.666 47.3921 103.431 47.5941 103.074C49.2006 100.237 51.0473 97.5432 53.1141 95.0218C53.2394 94.8698 53.3333 94.6943 53.3903 94.5056C53.4473 94.317 53.4663 94.1189 53.4461 93.9228C53.4087 93.5335 53.2194 93.1745 52.9191 92.9238L52.9121 92.9178L52.9041 92.9108C52.7532 92.7835 52.5779 92.6883 52.3889 92.6312C52.1999 92.5741 52.0012 92.5563 51.8051 92.5788C51.3931 92.6198 51.0551 92.8008 50.7931 93.1218C48.6179 95.7754 46.6741 98.6104 44.9831 101.596C44.8856 101.767 44.8234 101.956 44.8001 102.152C44.7622 102.446 44.8134 102.746 44.9471 103.011C45.0807 103.276 45.2907 103.495 45.5501 103.64ZM39.3611 122.575L39.3711 122.577L39.3811 122.578C39.7861 122.642 40.1551 122.554 40.4891 122.314C40.8221 122.075 41.0231 121.753 41.0921 121.348C41.6362 118.145 42.4573 114.995 43.5461 111.934C43.6128 111.748 43.6421 111.551 43.6321 111.355C43.6221 111.158 43.5732 110.965 43.4881 110.787C43.3203 110.434 43.021 110.16 42.6541 110.025L42.6441 110.021C42.458 109.95 42.2592 109.918 42.0603 109.928C41.8614 109.937 41.6666 109.988 41.4881 110.076C41.1151 110.254 40.8581 110.538 40.7201 110.929C39.5728 114.153 38.7075 117.471 38.1341 120.845C38.0641 121.253 38.1501 121.626 38.3891 121.964C38.6291 122.302 38.9531 122.506 39.3611 122.575ZM38.8051 129.551H38.7851C38.3874 129.553 38.0067 129.712 37.7261 129.994C37.5867 130.133 37.4765 130.299 37.4018 130.481C37.3271 130.663 37.2895 130.859 37.2911 131.056C37.3021 134.484 37.6061 137.887 38.2021 141.265C38.2741 141.673 38.4801 141.996 38.8191 142.233C39.1591 142.471 39.5321 142.554 39.9391 142.482L39.9491 142.48L39.9591 142.478C40.3621 142.402 40.6801 142.195 40.9131 141.857C41.0271 141.698 41.1075 141.517 41.1493 141.325C41.1911 141.134 41.1934 140.936 41.1561 140.744C40.5908 137.542 40.3014 134.297 40.2911 131.046C40.2932 130.85 40.2556 130.656 40.1805 130.475C40.1054 130.294 39.9943 130.13 39.8541 129.994C39.7181 129.853 39.555 129.741 39.3745 129.665C39.194 129.588 39 129.55 38.8041 129.551H38.8051ZM47.3661 160.968L47.3611 160.972C47.1903 161.073 47.0005 161.138 46.8035 161.163C46.6065 161.187 46.4065 161.171 46.2161 161.115C45.8161 161.005 45.5151 160.769 45.3111 160.409C43.9738 158.037 42.7327 155.612 41.5911 153.14L41.5761 153.102C41.3195 152.462 41.0741 151.817 40.8401 151.169C40.7001 150.779 40.7171 150.397 40.8931 150.022C41.0701 149.647 41.3531 149.389 41.7431 149.249L41.7511 149.246L41.7611 149.242C41.9451 149.175 42.1407 149.146 42.3361 149.157C42.5316 149.168 42.7227 149.219 42.8981 149.306C43.2681 149.483 43.5231 149.765 43.6621 150.151C43.8801 150.754 44.1081 151.354 44.3461 151.949C45.4441 154.323 46.6368 156.652 47.9211 158.931C48.0188 159.102 48.0816 159.291 48.1056 159.486C48.1297 159.682 48.1145 159.88 48.0611 160.07C48.0095 160.258 47.9215 160.433 47.8021 160.587C47.6821 160.743 47.5371 160.87 47.3661 160.968ZM53.3191 167.153C53.202 166.996 53.0542 166.864 52.8847 166.766C52.7152 166.668 52.5275 166.605 52.3331 166.582C52.1394 166.552 51.9418 166.562 51.7521 166.611C51.5625 166.66 51.3848 166.748 51.2301 166.868L51.2231 166.873L51.2151 166.879C51.0567 166.997 50.9242 167.146 50.8256 167.317C50.7271 167.488 50.6646 167.678 50.6421 167.874C50.5891 168.284 50.6881 168.654 50.9411 168.982C53.1691 171.88 55.5061 174.377 57.9511 176.474C58.1002 176.603 58.2734 176.701 58.4607 176.762C58.648 176.823 58.8456 176.847 59.0421 176.831C59.2434 176.816 59.4396 176.76 59.6188 176.667C59.798 176.574 59.9566 176.446 60.0851 176.29C60.3451 175.975 60.4571 175.614 60.4221 175.207C60.4083 175.012 60.3552 174.823 60.2662 174.649C60.1772 174.475 60.054 174.322 59.9041 174.197C57.6161 172.234 55.4211 169.886 53.3191 167.153ZM67.9121 179.328C67.7357 179.246 67.5446 179.202 67.3504 179.196C67.1562 179.19 66.9629 179.224 66.7821 179.295C66.5989 179.36 66.4307 179.461 66.2876 179.592C66.1445 179.724 66.0293 179.883 65.9491 180.06L65.9411 180.077L65.9341 180.094C65.8514 180.273 65.8064 180.468 65.8017 180.665C65.7971 180.862 65.8329 181.059 65.9071 181.242C66.0571 181.628 66.3211 181.905 66.7001 182.072C69.7949 183.443 73.0957 184.291 76.4681 184.583C76.6643 184.601 76.8622 184.579 77.0502 184.52C77.2381 184.461 77.4125 184.365 77.5631 184.238C77.7143 184.112 77.839 183.957 77.93 183.782C78.021 183.607 78.0764 183.416 78.0931 183.22C78.128 182.867 78.033 182.514 77.8261 182.226C77.7145 182.063 77.571 181.924 77.4042 181.819C77.2375 181.713 77.051 181.642 76.8561 181.611C76.8139 181.604 76.7716 181.599 76.7291 181.595C73.685 181.332 70.7056 180.566 67.9121 179.328Z" fill="#0D0938"/>
<path d="M270.656 82.1671L261.657 92.8917C260.947 93.7379 259.685 93.8483 258.839 93.1383C257.993 92.4282 257.882 91.1667 258.592 90.3206L267.592 79.596C268.302 78.7498 269.563 78.6394 270.409 79.3495C271.255 80.0595 271.366 81.321 270.656 82.1671Z" fill="#0D0938"/>
<path d="M280.751 95.0947L268.627 102.095C267.67 102.647 266.447 102.319 265.895 101.363C265.343 100.406 265.67 99.1829 266.627 98.6306L278.751 91.6306C279.708 91.0783 280.931 91.4061 281.483 92.3627C282.036 93.3193 281.708 94.5424 280.751 95.0947Z" fill="#0D0938"/>
<path d="M250.356 73.0664L247.685 86.8092C247.474 87.8935 248.182 88.9433 249.266 89.1541C250.351 89.3648 251.401 88.6567 251.611 87.5724L254.283 73.8297C254.493 72.7454 253.785 71.6956 252.701 71.4848C251.617 71.274 250.567 71.9821 250.356 73.0664Z" fill="#0D0938"/>
<path d="M251.857 104.483L125.931 68.3745C120.623 66.8522 115.085 69.9219 113.562 75.2308L90.1333 156.938C88.611 162.247 91.6806 167.785 96.9895 169.307L222.915 205.416C228.224 206.938 233.762 203.868 235.284 198.559L258.713 116.852C260.235 111.543 257.166 106.005 251.857 104.483Z" fill="#FD8839" fill-opacity="0.7"/>
<path fill-rule="evenodd" clip-rule="evenodd" d="M241.863 112.483L115.936 76.3737C113.282 75.6127 110.747 75.9017 108.332 77.2397C105.917 78.5787 104.329 80.5747 103.568 83.2287L80.1378 164.939C79.3778 167.593 79.6658 170.127 81.0048 172.542C82.3428 174.957 84.3398 176.545 86.9938 177.306L212.921 213.415C215.575 214.176 218.11 213.888 220.525 212.549C222.94 211.21 224.528 209.214 225.289 206.56L248.719 124.851C249.48 122.196 249.191 119.662 247.852 117.247C246.514 114.832 244.517 113.244 241.863 112.483ZM109.787 79.8637C111.477 78.9267 113.252 78.7247 115.109 79.2577L241.037 115.367C242.894 115.9 244.292 117.011 245.229 118.702C246.166 120.392 246.368 122.166 245.835 124.024L222.406 205.733C221.873 207.591 220.761 208.989 219.071 209.926C217.38 210.863 215.606 211.065 213.748 210.532L87.8208 174.423C85.9628 173.89 84.5658 172.779 83.6288 171.088C82.6918 169.398 82.4888 167.624 83.0228 165.766L106.452 84.0567C106.985 82.1987 108.097 80.8007 109.787 79.8637Z" fill="#0D0938"/>
<path fill-rule="evenodd" clip-rule="evenodd" d="M239.22 147.096L202.691 136.621C197.648 135.175 192.832 135.724 188.243 138.267C183.655 140.811 180.637 144.604 179.191 149.647V149.649C177.745 154.693 178.293 159.508 180.837 164.097C183.38 168.686 187.174 171.703 192.217 173.149L231.63 184.451L242.104 147.923L239.22 147.096ZM238.394 149.98L201.865 139.505C197.618 138.288 193.562 138.75 189.698 140.891C185.834 143.033 183.293 146.228 182.076 150.475L182.075 150.476C180.857 154.723 181.319 158.779 183.461 162.643C185.603 166.507 188.798 169.048 193.044 170.266L229.573 180.74L238.394 149.98Z" fill="#0D0938"/>
<path fill-rule="evenodd" clip-rule="evenodd" d="M195.25 166.215C192.197 165.34 189.901 163.513 188.362 160.736C186.822 157.958 186.49 155.043 187.365 151.991C188.241 148.938 190.067 146.642 192.845 145.102C195.622 143.563 198.537 143.231 201.59 144.106C204.642 144.981 206.938 146.808 208.478 149.585C210.018 152.363 210.35 155.278 209.474 158.33C208.599 161.383 206.773 163.679 203.995 165.219C201.218 166.758 198.303 167.09 195.25 166.215ZM196.077 163.331C198.333 163.978 200.487 163.732 202.54 162.594C204.593 161.456 205.943 159.759 206.59 157.503C207.237 155.247 206.992 153.092 205.854 151.039C204.716 148.986 203.019 147.636 200.762 146.989C198.506 146.342 196.351 146.588 194.299 147.726C192.246 148.864 190.896 150.561 190.249 152.817C189.602 155.074 189.847 157.228 190.985 159.281C192.123 161.334 193.82 162.684 196.077 163.331Z" fill="#0D0938"/>
<path d="M116.471 92.6516C116.7 91.8553 116.239 91.0246 115.443 90.7963C114.647 90.5679 113.816 91.0284 113.588 91.8247L92.9147 163.919C92.6864 164.716 93.1468 165.546 93.9432 165.775C94.7395 166.003 95.5702 165.543 95.7985 164.746L116.471 92.6516Z" fill="#0D0938"/>
<path fill-rule="evenodd" clip-rule="evenodd" d="M175.126 97.7747L173.325 97.9767L162.107 99.2307C161.109 99.3427 160.308 99.7987 159.703 100.601C159.098 101.403 158.879 102.299 159.046 103.289L160.404 111.353L161.78 119.522C162.319 122.727 161.126 125.037 158.201 126.452L138.627 135.923C138.451 136.012 138.258 136.064 138.061 136.075C137.863 136.087 137.666 136.058 137.48 135.99C137.293 135.928 137.12 135.828 136.973 135.697C136.825 135.565 136.706 135.405 136.623 135.226C136.534 135.049 136.483 134.857 136.471 134.66C136.46 134.463 136.489 134.265 136.556 134.08C136.693 133.689 136.947 133.403 137.32 133.223L140.996 131.444L156.895 123.751C158.47 122.989 159.112 121.746 158.821 120.021L157.813 114.035L156.087 103.788C155.777 101.948 156.184 100.284 157.308 98.7937C158.431 97.3047 159.92 96.4567 161.774 96.2497L174.793 94.7937C174.991 94.7717 175.185 94.7877 175.376 94.8437C175.662 94.9246 175.917 95.0892 176.108 95.3163C176.3 95.5433 176.419 95.8224 176.45 96.1177C176.496 96.5297 176.39 96.8967 176.132 97.2207C176.011 97.3767 175.859 97.5063 175.686 97.6016C175.513 97.6969 175.323 97.7558 175.126 97.7747Z" fill="#0D0938"/>
<path d="M139.392 161.045H47.3921C44.0784 161.045 41.3921 163.731 41.3921 167.045V227.045C41.3921 230.359 44.0784 233.045 47.3921 233.045H139.392C142.706 233.045 145.392 230.359 145.392 227.045V167.045C145.392 163.731 142.706 161.045 139.392 161.045Z" fill="#F8F8F8"/>
<path d="M125.392 175.045H52.3921C49.0784 175.045 46.3921 177.731 46.3921 181.045V224.045C46.3921 227.359 49.0784 230.045 52.3921 230.045H125.392C128.706 230.045 131.392 227.359 131.392 224.045V181.045C131.392 177.731 128.706 175.045 125.392 175.045Z" fill="#FD8839" fill-opacity="0.7"/>
<path fill-rule="evenodd" clip-rule="evenodd" d="M134.393 167.045H61.3911C59.7341 167.045 58.3201 167.631 57.1491 168.802C55.9771 169.974 55.3921 171.388 55.3921 173.044V216.046C55.3921 217.703 55.9771 219.117 57.1491 220.288C58.3201 221.459 59.7341 222.045 61.3911 222.045H134.393C136.049 222.045 137.463 221.459 138.635 220.288C139.806 219.117 140.392 217.703 140.392 216.046V173.044C140.392 171.388 139.806 169.974 138.635 168.802C137.463 167.631 136.049 167.045 134.393 167.045ZM58.3921 173.044C58.3921 171.045 59.3921 170.045 61.3911 170.045H134.393C136.392 170.045 137.392 171.045 137.392 173.044V216.046C137.392 218.045 136.392 219.045 134.393 219.045H61.3911C59.3911 219.045 58.3911 218.045 58.3911 216.046V173.044H58.3921Z" fill="#0D0938"/>
<path fill-rule="evenodd" clip-rule="evenodd" d="M80.3921 175.545C78.9962 175.534 77.6202 175.877 76.3921 176.54C75.1639 175.877 73.788 175.535 72.3921 175.545C70.0441 175.545 68.0411 176.375 66.3821 178.035C64.7221 179.694 63.8921 181.698 63.8921 184.045C63.8921 186.392 64.7221 188.396 66.3821 190.056C68.0411 191.715 70.0441 192.545 72.3921 192.545C73.788 192.556 75.164 192.214 76.3921 191.55C77.6201 192.214 78.9962 192.556 80.3921 192.545C82.7391 192.545 84.7421 191.715 86.4021 190.056C88.0621 188.396 88.8921 186.392 88.8921 184.045C88.8921 181.698 88.0621 179.694 86.4021 178.035C84.7421 176.375 82.7391 175.545 80.3921 175.545ZM75.5341 188.56L76.3921 187.962L77.2501 188.56C78.1683 189.21 79.2674 189.554 80.3921 189.545C81.9101 189.545 83.2071 189.008 84.2811 187.934C85.3551 186.86 85.8921 185.564 85.8921 184.045C85.8921 182.526 85.3551 181.23 84.2811 180.156C83.2071 179.082 81.9111 178.545 80.3911 178.545C79.2381 178.545 78.1911 178.873 77.2501 179.53L76.3921 180.129L75.5341 179.53C74.6159 178.881 73.5168 178.536 72.3921 178.545C70.8721 178.545 69.5761 179.082 68.5021 180.156C67.4291 181.23 66.8921 182.526 66.8921 184.045C66.8921 185.564 67.4291 186.86 68.5021 187.934C69.5771 189.008 70.8721 189.545 72.3921 189.545C73.5451 189.545 74.5921 189.217 75.5341 188.56Z" fill="#0D0938"/>
<path d="M129.892 205.045H85.8921C85.0637 205.045 84.3921 205.716 84.3921 206.545C84.3921 207.373 85.0637 208.045 85.8921 208.045H129.892C130.721 208.045 131.392 207.373 131.392 206.545C131.392 205.716 130.721 205.045 129.892 205.045Z" fill="#0D0938"/>
<path d="M129.892 211.045H102.892C102.064 211.045 101.392 211.716 101.392 212.545C101.392 213.373 102.064 214.045 102.892 214.045H129.892C130.721 214.045 131.392 213.373 131.392 212.545C131.392 211.716 130.721 211.045 129.892 211.045Z" fill="#0D0938"/>
<defs>
<linearGradient id="paint0_linear_235:1070" x1="63.1851" y1="114.045" x2="73.7364" y2="114.07" gradientUnits="userSpaceOnUse">
<stop stop-color="#FFA553"/>
<stop offset="1" stop-color="#FFA921"/>
</linearGradient>
</defs>
</svg>
