<svg width="279" height="287" viewBox="0 0 279 287" fill="none" xmlns="http://www.w3.org/2000/svg">
<path fill-rule="evenodd" clip-rule="evenodd" d="M88.8029 61.7037C126.663 31.0917 162.128 -3.07927 194.099 0.221734C226.005 3.45773 254.416 44.2937 265.159 83.3837C275.837 122.538 268.848 159.945 253.963 197.934C239.142 235.859 216.426 274.366 184.068 284.268C151.773 294.105 109.772 275.337 72.5579 247.573C35.4109 219.809 2.9879 183.049 6.9349 151.208C10.8179 119.302 51.0079 92.3147 88.8029 61.7037Z" fill="#FD8839" fill-opacity="0.04"/>
<path d="M30 246.045C31.6569 246.045 33 244.702 33 243.045C33 241.388 31.6569 240.045 30 240.045C28.3431 240.045 27 241.388 27 243.045C27 244.702 28.3431 246.045 30 246.045Z" fill="#FFA921"/>
<path d="M151 263.045C153.761 263.045 156 260.806 156 258.045C156 255.283 153.761 253.045 151 253.045C148.239 253.045 146 255.283 146 258.045C146 260.806 148.239 263.045 151 263.045Z" fill="#FF4746"/>
<path d="M135 104.045C137.761 104.045 140 101.806 140 99.0449C140 96.2835 137.761 94.0449 135 94.0449C132.239 94.0449 130 96.2835 130 99.0449C130 101.806 132.239 104.045 135 104.045Z" fill="#FD8839"/>
<path fill-rule="evenodd" clip-rule="evenodd" d="M54.5064 154.269L54.4254 154.412C52.8596 157.2 51.5325 160.115 50.4584 163.126C50.3955 163.312 50.2956 163.482 50.1648 163.628C50.034 163.774 49.875 163.892 49.6974 163.974C49.3274 164.152 48.9474 164.174 48.5604 164.041L48.5504 164.038C48.2684 163.94 48.0222 163.76 47.8434 163.521C47.6646 163.282 47.5615 162.995 47.5474 162.697C47.5373 162.5 47.5665 162.303 47.6334 162.118C48.7836 158.893 50.2095 155.773 51.8954 152.792C51.992 152.62 52.1217 152.469 52.2768 152.348C52.432 152.226 52.6096 152.136 52.7996 152.084C52.9895 152.031 53.188 152.016 53.3836 152.041C53.5792 152.065 53.7681 152.128 53.9394 152.225C54.2994 152.428 54.5354 152.73 54.6464 153.129C54.7564 153.528 54.7104 153.908 54.5064 154.269ZM45.6494 183.744H45.6694C46.0794 183.739 46.4284 183.59 46.7164 183.298C47.0044 183.006 47.1494 182.654 47.1484 182.244C47.1484 178.989 47.4264 175.755 47.9824 172.542C48.0189 172.35 48.0159 172.152 47.9737 171.96C47.9314 171.769 47.8507 171.588 47.7364 171.429C47.6271 171.267 47.4859 171.128 47.3214 171.022C47.1569 170.916 46.9725 170.844 46.7794 170.811L46.7694 170.809L46.7604 170.808C46.3685 170.74 45.9657 170.831 45.6406 171.06C45.3155 171.289 45.0946 171.638 45.0264 172.03C44.4411 175.404 44.1474 178.821 44.1484 182.245C44.1479 182.442 44.1865 182.637 44.2621 182.819C44.3376 183.001 44.4485 183.166 44.5884 183.305C44.7273 183.445 44.8925 183.556 45.0744 183.631C45.2564 183.706 45.4515 183.745 45.6484 183.744H45.6494ZM47.3744 190.964C47.0544 190.739 46.6587 190.648 46.2724 190.711L46.2624 190.713L46.2534 190.714C46.0585 190.745 45.8719 190.816 45.7053 190.922C45.5386 191.028 45.3954 191.167 45.2844 191.33C45.1684 191.49 45.0864 191.672 45.0434 191.864C45.0004 192.057 44.9974 192.256 45.0344 192.45C45.6232 195.821 46.5038 199.134 47.6664 202.352C47.8064 202.742 48.0644 203.025 48.4394 203.201C48.8144 203.377 49.1964 203.394 49.5864 203.254L49.5954 203.25L49.6044 203.247C49.9714 203.111 50.2697 202.835 50.4344 202.48C50.519 202.302 50.5672 202.109 50.5763 201.912C50.5854 201.716 50.5552 201.519 50.4874 201.334C49.3842 198.279 48.5483 195.134 47.9894 191.934C47.9559 191.74 47.8844 191.554 47.7788 191.388C47.6733 191.221 47.5358 191.077 47.3744 190.964ZM53.6644 209.474C53.2874 209.369 52.8841 209.417 52.5424 209.608L52.5334 209.613L52.5254 209.617C52.3525 209.712 52.2009 209.842 52.0798 209.998C51.9588 210.154 51.8709 210.333 51.8214 210.524C51.7114 210.924 51.7604 211.304 51.9654 211.663C53.6631 214.645 55.6136 217.476 57.7954 220.124C58.0584 220.444 58.3954 220.624 58.8084 220.664C59.2204 220.704 59.5864 220.592 59.9064 220.328L59.9134 220.322L59.9214 220.316C60.2211 220.064 60.4094 219.705 60.4454 219.315C60.465 219.119 60.4454 218.921 60.3879 218.733C60.3304 218.544 60.2361 218.369 60.1104 218.217C58.0376 215.701 56.1845 213.011 54.5714 210.178C54.4744 210.007 54.3442 209.857 54.1884 209.736C54.033 209.615 53.8549 209.526 53.6644 209.474ZM138.61 228.625C138.474 228.487 138.366 228.323 138.294 228.142C138.222 227.962 138.187 227.768 138.191 227.574C138.194 227.167 138.339 226.819 138.625 226.53C140.762 224.376 142.529 221.885 143.856 219.156C143.894 219.08 143.938 219.006 143.987 218.937C144.192 218.647 144.495 218.442 144.839 218.359C145.182 218.269 145.546 218.307 145.862 218.466C146.234 218.647 146.488 218.934 146.623 219.325C146.758 219.717 146.734 220.099 146.553 220.471C145.083 223.494 143.125 226.253 140.758 228.64C140.622 228.783 140.457 228.896 140.275 228.972C140.093 229.049 139.897 229.087 139.699 229.085C139.502 229.089 139.306 229.053 139.123 228.978C138.94 228.903 138.775 228.792 138.636 228.651L138.623 228.638L138.61 228.625ZM66.9304 225.171C66.7838 225.042 66.6124 224.943 66.4265 224.882C66.2407 224.82 66.0444 224.797 65.8494 224.814C65.6523 224.825 65.4594 224.876 65.2827 224.964C65.1061 225.052 64.9494 225.176 64.8224 225.327L64.8154 225.334C64.6865 225.483 64.5886 225.657 64.5275 225.844C64.4664 226.032 64.4432 226.23 64.4594 226.426C64.4739 226.623 64.5273 226.814 64.6166 226.99C64.7058 227.166 64.8292 227.322 64.9794 227.449C67.5784 229.676 70.3659 231.673 73.3104 233.417C73.4789 233.52 73.6666 233.588 73.8621 233.616C74.0576 233.644 74.2568 233.632 74.4474 233.58C74.8474 233.477 75.1544 233.247 75.3654 232.891L75.3704 232.883L75.3754 232.874C75.5718 232.536 75.6268 232.134 75.5284 231.755C75.48 231.564 75.394 231.385 75.2754 231.227C75.1579 231.069 75.01 230.936 74.8404 230.836C72.0448 229.18 69.3982 227.285 66.9304 225.171ZM122.131 235.792C121.943 235.846 121.768 235.937 121.616 236.061C121.463 236.184 121.338 236.337 121.246 236.51C121.05 236.87 121.008 237.248 121.121 237.643L121.124 237.652L121.126 237.661C121.183 237.85 121.276 238.025 121.401 238.178C121.525 238.331 121.679 238.457 121.852 238.55C122.027 238.644 122.214 238.701 122.412 238.721C122.61 238.741 122.804 238.723 122.994 238.666C126.463 237.624 129.601 236.341 132.41 234.818C132.584 234.725 132.737 234.598 132.861 234.445C132.985 234.291 133.078 234.115 133.133 233.926C133.19 233.737 133.208 233.539 133.188 233.343C133.167 233.147 133.108 232.957 133.013 232.784L133.006 232.771L132.999 232.759C132.906 232.588 132.778 232.438 132.625 232.317C132.472 232.196 132.296 232.108 132.107 232.057C131.921 232.001 131.725 231.983 131.531 232.004C131.337 232.025 131.149 232.086 130.979 232.181C128.352 233.606 125.402 234.81 122.131 235.792ZM83.6064 235.06C83.4246 234.988 83.23 234.953 83.0344 234.958C82.8387 234.963 82.6462 235.008 82.4684 235.09C82.288 235.166 82.125 235.278 81.9892 235.42C81.8534 235.561 81.7477 235.728 81.6784 235.911L81.6754 235.92L81.6714 235.929C81.5986 236.113 81.5641 236.309 81.5699 236.507C81.5758 236.704 81.6219 236.898 81.7054 237.077C81.8754 237.455 82.1544 237.717 82.5414 237.864C85.7406 239.081 89.0384 240.02 92.3984 240.672C92.8054 240.751 93.1804 240.674 93.5234 240.443C93.8674 240.211 94.0784 239.892 94.1574 239.485L94.1584 239.476C94.198 239.283 94.1974 239.083 94.1568 238.89C94.1162 238.696 94.0365 238.513 93.9224 238.352C93.8142 238.189 93.6741 238.05 93.5105 237.942C93.3468 237.835 93.1631 237.762 92.9704 237.727C89.7785 237.108 86.6457 236.216 83.6064 235.06ZM114.375 239.126C114.347 238.932 114.279 238.746 114.176 238.579C114.073 238.412 113.938 238.267 113.777 238.154C113.62 238.036 113.441 237.952 113.25 237.905C113.059 237.859 112.861 237.852 112.667 237.884C109.984 238.29 107.284 238.584 104.575 238.765C103.934 238.773 103.292 238.771 102.651 238.758C102.456 238.751 102.261 238.784 102.078 238.855C101.895 238.925 101.729 239.032 101.588 239.169C101.444 239.302 101.329 239.462 101.249 239.641C101.168 239.819 101.125 240.012 101.121 240.208V240.218L101.12 240.228C101.112 240.642 101.251 240.998 101.538 241.297C101.825 241.596 102.176 241.749 102.59 241.758C103.279 241.772 103.969 241.774 104.658 241.764L104.699 241.763L104.739 241.76C107.676 241.56 110.47 241.256 113.122 240.849C113.318 240.819 113.502 240.753 113.672 240.649C113.842 240.546 113.986 240.415 114.103 240.254C114.22 240.095 114.305 239.915 114.352 239.724C114.399 239.533 114.407 239.334 114.377 239.139L114.376 239.133L114.375 239.126Z" fill="#0D0938"/>
<path d="M158.542 61.9027L157.322 75.8494C157.226 76.9498 156.255 77.7638 155.155 77.6675C154.055 77.5712 153.241 76.6012 153.337 75.5008L154.557 61.5541C154.653 60.4537 155.624 59.6397 156.724 59.736C157.824 59.8323 158.638 60.8023 158.542 61.9027Z" fill="#0D0938"/>
<path d="M174.229 66.7022L168.312 79.3905C167.845 80.3916 166.655 80.8247 165.654 80.3579C164.653 79.8911 164.22 78.7011 164.687 77.7L170.603 65.0117C171.07 64.0106 172.26 63.5775 173.261 64.0443C174.262 64.5112 174.696 65.7011 174.229 66.7022Z" fill="#0D0938"/>
<path d="M136.697 66.0903L142.392 78.8799C142.841 79.889 144.023 80.3428 145.032 79.8936C146.041 79.4443 146.495 78.2621 146.046 77.253L140.351 64.4634C139.902 63.4543 138.72 63.0005 137.711 63.4497C136.702 63.899 136.248 65.0812 136.697 66.0903Z" fill="#0D0938"/>
<path opacity="0.7" fill-rule="evenodd" clip-rule="evenodd" d="M182.389 133.145L190.589 120.005C190.589 120.005 194.786 113.954 201.655 107.776C204.647 105.512 207.884 103.591 211.305 102.051C236.278 92.03 264.457 103.655 274.579 127.67C282.38 146.573 279.374 165.84 268.647 181.278C263.05 190.448 255.077 197.597 244.867 204.332C231.432 213.149 212.404 221.733 187.641 230.756L156.454 242.027L157.058 207.433L174.527 190.563C175.29 189.826 175.729 188.816 175.747 187.755C175.766 186.695 175.362 185.67 174.625 184.907L167.071 177.084C166.658 176.656 166.345 176.141 166.156 175.578C165.967 175.014 165.906 174.415 165.978 173.824C166.049 173.234 166.251 172.667 166.57 172.164C166.888 171.662 167.315 171.237 167.818 170.92L187.149 158.757C187.935 158.262 188.525 157.509 188.817 156.626C189.108 155.744 189.084 154.788 188.747 153.922L182.055 136.713C181.829 136.133 181.742 135.509 181.8 134.889C181.858 134.27 182.06 133.673 182.389 133.145Z" fill="#FD8839"/>
<path fill-rule="evenodd" clip-rule="evenodd" d="M255.647 179.278C266.374 163.84 269.38 144.574 261.58 125.67C251.457 101.655 223.278 90.03 198.305 100.051C194.884 101.592 191.647 103.512 188.655 105.776C181.786 111.954 177.589 118.005 177.589 118.005L169.389 131.146C169.058 131.673 168.856 132.27 168.8 132.89C168.74 133.509 168.827 134.133 169.054 134.712L175.747 151.923C176.093 152.787 176.118 153.746 175.817 154.627C175.534 155.514 174.943 156.269 174.15 156.757L154.817 168.921C154.307 169.242 153.891 169.657 153.569 170.165C153.249 170.667 153.047 171.234 152.977 171.825C152.904 172.415 152.965 173.014 153.155 173.578C153.347 174.149 153.652 174.651 154.07 175.084L161.626 182.908C161.994 183.29 162.276 183.727 162.47 184.221C162.663 184.709 162.758 185.231 162.748 185.756C162.74 186.281 162.627 186.8 162.417 187.281C162.208 187.763 161.906 188.199 161.527 188.563L144.058 205.433L143.51 236.817L143.454 240.027L146.474 238.936L174.641 228.756C199.404 219.734 218.432 211.149 231.867 202.333C242.077 195.597 250.05 188.449 255.647 179.278ZM146.53 235.726L173.614 225.937C198.818 216.754 217.685 208.052 230.215 199.829C240.678 192.927 248.301 185.555 253.086 177.715L253.133 177.639L253.183 177.566C258.395 170.066 261.528 162.014 262.584 153.409C263.683 144.446 262.427 135.588 258.815 126.835C254.063 115.561 245.918 107.575 234.38 102.876C222.8 98.16 211.167 98.138 199.481 102.812C196.324 104.237 193.334 106.007 190.567 108.091C186.227 112.005 182.736 115.86 180.095 119.656L171.934 132.734C171.848 132.864 171.796 133.014 171.781 133.169C171.767 133.324 171.791 133.481 171.851 133.625L178.543 150.836C179.939 154.425 179.007 157.245 175.747 159.296L156.415 171.46C156.287 171.536 156.178 171.642 156.099 171.768C156.019 171.894 155.969 172.037 155.955 172.186C155.934 172.334 155.947 172.484 155.995 172.625C156.042 172.767 156.122 172.895 156.228 173L163.784 180.824C165.127 182.215 165.781 183.876 165.747 185.809C165.714 187.741 165.002 189.378 163.611 190.721L147.036 206.728L146.53 235.726Z" fill="#0D0938"/>
<path opacity="0.7" fill-rule="evenodd" clip-rule="evenodd" d="M96.846 84.5743L88.876 71.2923C88.876 71.2923 84.786 65.1693 78.026 58.8723C75.0736 56.5562 71.8701 54.5794 68.476 52.9793C43.683 42.5243 15.305 53.6563 4.76496 77.4903C-3.36504 96.2553 -0.695044 115.571 9.76096 131.193C15.197 140.46 23.044 147.747 33.135 154.66C46.414 163.709 65.289 172.625 89.891 182.078L120.876 193.891V159.292L103.705 142.12C102.955 141.37 102.534 140.353 102.534 139.292C102.534 138.232 102.955 137.214 103.705 136.464L111.395 128.774C111.816 128.354 112.137 127.844 112.336 127.284C112.535 126.723 112.607 126.125 112.545 125.533C112.484 124.942 112.292 124.371 111.982 123.863C111.672 123.355 111.253 122.923 110.755 122.597L91.64 110.099C90.8621 109.591 90.2856 108.827 90.0095 107.94C89.7334 107.052 89.7749 106.096 90.127 105.236L97.118 88.1463C97.3532 87.5707 97.451 86.9482 97.4038 86.3281C97.3566 85.7081 97.1656 85.1076 96.846 84.5743Z" fill="#FD8839"/>
<path fill-rule="evenodd" clip-rule="evenodd" d="M24.7612 131.193C14.3042 115.571 11.6352 96.2548 19.7652 77.4898C30.3052 53.6558 58.6832 42.5238 83.4772 52.9798C86.8709 54.5799 90.0741 56.5563 93.0262 58.8718C99.7862 65.1688 103.877 71.2918 103.877 71.2918L111.846 84.5738C112.17 85.1148 112.356 85.6988 112.404 86.3278C112.454 86.9479 112.356 87.5709 112.118 88.1458L105.126 105.237C104.764 106.094 104.723 107.053 105.009 107.939C105.276 108.831 105.855 109.597 106.639 110.098L125.756 122.598C126.26 122.928 126.669 123.349 126.983 123.864C127.296 124.378 127.484 124.934 127.546 125.533C127.609 126.124 127.537 126.723 127.337 127.283C127.139 127.844 126.817 128.353 126.396 128.773L118.704 136.464C118.326 136.83 118.027 137.27 117.826 137.757C117.625 138.243 117.525 138.765 117.533 139.292C117.533 140.396 117.923 141.339 118.704 142.12L135.877 159.292V193.891L132.877 192.748L104.891 182.078C80.2892 172.625 61.4142 163.709 48.1352 154.66C38.0442 147.747 30.1972 140.46 24.7612 131.193ZM132.877 189.537L105.967 179.277C80.9282 169.656 62.2172 160.625 49.8302 152.185C39.4902 145.101 31.9962 137.598 27.3492 129.675L27.3042 129.599L27.2542 129.525C22.1742 121.935 19.1822 113.829 18.2772 105.207C17.3342 96.2258 18.7452 87.3918 22.5092 78.7028C27.4572 67.5128 35.7402 59.6708 47.3592 55.1738C59.0192 50.6608 70.6512 50.8418 82.2532 55.7188C85.3855 57.1984 88.3439 59.0209 91.0742 61.1528C95.3452 65.1428 98.7682 69.0568 101.342 72.8988L109.274 86.1178C109.358 86.2495 109.408 86.3998 109.42 86.5553C109.432 86.7109 109.405 86.867 109.342 87.0098L102.35 104.101C100.892 107.666 101.774 110.502 104.997 112.609L124.115 125.109C124.242 125.188 124.348 125.295 124.426 125.422C124.503 125.55 124.55 125.693 124.562 125.842C124.581 125.99 124.565 126.14 124.515 126.281C124.465 126.421 124.382 126.548 124.274 126.651L116.583 134.343C115.216 135.71 114.533 137.359 114.533 139.292C114.533 141.225 115.216 142.874 116.583 144.241L132.877 160.535V189.537Z" fill="#0D0938"/>
</svg>
