<svg width="35" height="49" viewBox="0 0 35 49" fill="none" xmlns="http://www.w3.org/2000/svg">
<path d="M34.125 17.375C34.1287 14.1874 33.216 11.066 31.4957 8.38263C29.7753 5.69923 27.3198 3.56696 24.4216 2.23987C21.5235 0.91278 18.305 0.446813 15.1495 0.897485C11.9939 1.34816 9.03452 2.69647 6.62375 4.78178C4.21299 6.86709 2.45252 9.60149 1.5521 12.6592C0.651676 15.7169 0.649258 18.969 1.54513 22.028C2.44101 25.0871 4.19741 27.8241 6.60507 29.913C9.01273 32.0019 11.9702 33.3546 15.125 33.81V38.75H12.75C12.1201 38.75 11.516 39.0002 11.0706 39.4456C10.6252 39.891 10.375 40.4951 10.375 41.125C10.375 41.7548 10.6252 42.3589 11.0706 42.8043C11.516 43.2497 12.1201 43.5 12.75 43.5H15.125V45.875C15.125 46.5048 15.3752 47.1089 15.8206 47.5543C16.266 47.9997 16.8701 48.25 17.5 48.25C18.1299 48.25 18.734 47.9997 19.1794 47.5543C19.6248 47.1089 19.875 46.5048 19.875 45.875V43.5H22.25C22.8799 43.5 23.484 43.2497 23.9294 42.8043C24.3748 42.3589 24.625 41.7548 24.625 41.125C24.625 40.4951 24.3748 39.891 23.9294 39.4456C23.484 39.0002 22.8799 38.75 22.25 38.75H19.875V33.81C23.8284 33.2393 27.4442 31.2644 30.0609 28.2465C32.6776 25.2285 34.1203 21.3693 34.125 17.375ZM17.5 29.25C15.1513 29.25 12.8554 28.5535 10.9026 27.2487C8.94976 25.9438 7.42771 24.0892 6.52892 21.9193C5.63013 19.7495 5.39496 17.3618 5.85316 15.0583C6.31136 12.7547 7.44235 10.6388 9.1031 8.97807C10.7638 7.31732 12.8798 6.18633 15.1833 5.72813C17.4868 5.26993 19.8745 5.5051 22.0444 6.40389C24.2142 7.30268 26.0688 8.82473 27.3737 10.7776C28.6785 12.7304 29.375 15.0263 29.375 17.375C29.375 18.9344 29.0678 20.4786 28.4711 21.9193C27.8743 23.3601 26.9996 24.6692 25.8969 25.7719C24.7942 26.8745 23.4851 27.7493 22.0444 28.346C20.6036 28.9428 19.0594 29.25 17.5 29.25Z" fill="#15093E"/>
</svg>
