<svg width="57" height="57" viewBox="0 0 57 57" fill="none" xmlns="http://www.w3.org/2000/svg">
<g clip-path="url(#clip0)">
<path d="M35.2193 9.72034V-0.111328H12.0574C9.05628 -0.111328 6.56836 2.36181 6.56836 5.36245V51.4149C6.56836 54.416 9.05628 56.8887 12.0574 56.8887H45.1114C48.112 56.8887 50.5999 54.4155 50.5999 51.4149V16.0234H41.5371C38.039 16.0234 35.2193 13.2037 35.2193 9.72034ZM18.8732 28.1021L27.7098 18.6175C27.936 18.3761 28.2526 18.2404 28.5992 18.2404C28.9462 18.2404 29.2476 18.3761 29.4889 18.6175L38.3256 28.1021C38.7778 28.5848 38.7478 29.3537 38.2651 29.8064C38.039 30.0173 37.7372 30.123 37.451 30.123C37.134 30.123 36.8026 29.9873 36.5613 29.7459L29.7907 22.5079V39.7433C29.7907 40.4069 29.248 40.9496 28.5844 40.9496C27.9207 40.9496 27.378 40.4069 27.378 39.7433V22.5079L20.6375 29.7459C20.1852 30.2282 19.4159 30.2586 18.9336 29.8064C18.4509 29.3537 18.4209 28.6 18.8732 28.1021ZM42.2008 47.6902C42.2008 48.3538 41.658 48.8965 40.9944 48.8965H16.1739C15.5103 48.8965 14.9675 48.3538 14.9675 47.6902C14.9675 47.0266 15.5103 46.4838 16.1739 46.4838H41.0096C41.6732 46.4838 42.2008 47.027 42.2008 47.6902Z" fill="#FD8839"/>
<path d="M41.5372 13.6107H48.941L37.6316 1.74341V9.72033C37.6316 11.8769 39.3654 13.6107 41.5372 13.6107Z" fill="#FD8839"/>
</g>
<defs>
<clipPath id="clip0">
<rect width="57" height="57" fill="white"/>
</clipPath>
</defs>
</svg>
