<svg width="18" height="20" viewBox="0 0 18 20" fill="none" xmlns="http://www.w3.org/2000/svg">
<path d="M12.78 0H5.22C1.44 0 0.5 1.01 0.5 5.04V16.3C0.5 18.96 1.96 19.59 3.73 17.69L3.74 17.68C4.56 16.81 5.81 16.88 6.52 17.83L7.53 19.18C8.34 20.25 9.65 20.25 10.46 19.18L11.47 17.83C12.19 16.87 13.44 16.8 14.26 17.68C16.04 19.58 17.49 18.95 17.49 16.29V5.04C17.5 1.01 16.56 0 12.78 0ZM11.84 7.99L11.34 8.5H11.33L8.3 11.53C8.17 11.66 7.9 11.8 7.71 11.82L6.36 12.02C5.87 12.09 5.53 11.74 5.6 11.26L5.79 9.9C5.82 9.71 5.95 9.45 6.08 9.31L9.12 6.28L9.62 5.77C9.95 5.44 10.32 5.2 10.72 5.2C11.06 5.2 11.43 5.36 11.84 5.77C12.74 6.67 12.45 7.38 11.84 7.99Z" fill="#FD8839"/>
</svg>
