<svg width="309" height="173" viewBox="0 0 309 173" fill="none" xmlns="http://www.w3.org/2000/svg">
<g clip-path="url(#clip0)">
<path d="M300.098 172.258H10.1624C9.96884 166.839 11.8076 150 13.114 147.968C18.7753 139.306 31.8882 135.484 41.2269 133.839C51.3398 132.048 63.6301 131.952 72.0011 125.903C81.0979 119.323 85.114 106.355 95.9527 103.548C103.356 101.613 111.001 104.71 118.501 106.113C129.388 108.194 140.856 106.694 150.92 101.903C162.195 96.5323 171.92 86.5645 184.404 84.0484C195.388 81.8226 207.872 87.3387 214.646 96.242C221.033 104.661 222.05 115.742 227.759 124.452C233.42 133.065 243.146 139.21 253.598 139.597C259.162 139.79 265.259 138.677 269.953 141.677C276.533 145.936 277.211 156.387 278.614 160.258C281.372 168 293.614 160.936 300.098 172.258Z" fill="#FFC1BB"/>
<path d="M227.616 92.9034C231.341 85.984 240.777 81.8711 252.68 85.5001C259.793 87.6776 264.148 93.0001 270.196 96.5808C274.841 99.3388 280.454 100.984 285.051 103.742C289.648 106.5 293.325 111 291.632 115.258C289.938 119.565 283.648 121.79 277.89 122.903C266.761 124.984 254.616 124.79 244.358 120.968C236.083 117.871 229.212 111.919 226.793 105.145C225.245 100.742 225.68 96.4356 227.616 92.9034Z" fill="#FFC1BB"/>
<path d="M11.9045 172.259H82.6464C85.3561 172.259 87.5335 170.081 87.5335 167.372V24.0492C87.5335 21.3395 85.3561 19.1621 82.6464 19.1621H11.9045C9.19479 19.1621 7.01739 21.3395 7.01739 24.0492V167.372C7.06577 170.081 9.24319 172.259 11.9045 172.259Z" fill="#FFD5CF" stroke="white" stroke-width="0.483871" stroke-miterlimit="10" stroke-linejoin="round"/>
<path d="M44.2264 164.13C44.2264 165.824 45.5813 167.179 47.2748 167.179C48.9683 167.179 50.3232 165.824 50.3232 164.13C50.3232 162.437 48.9683 161.082 47.2748 161.082C45.5813 161.082 44.2264 162.437 44.2264 164.13Z" stroke="white" stroke-width="0.483871" stroke-miterlimit="10" stroke-linejoin="round"/>
<path d="M9.34017 30.0972V156.097H85.2595V30.0972H9.34017ZM9.34017 29.6133H85.2595C85.5499 29.6133 85.7434 29.8068 85.7434 30.0972V156.097C85.7434 156.387 85.5499 156.581 85.2595 156.581H9.34017C9.04985 156.581 8.8563 156.387 8.8563 156.097V30.0972C8.8563 29.8068 9.04985 29.6133 9.34017 29.6133Z" fill="white"/>
<path d="M51.9193 24.291H37.258" stroke="white" stroke-width="0.967742" stroke-miterlimit="10" stroke-linecap="round" stroke-linejoin="round"/>
<path d="M57.3394 24.291H54.6298" stroke="white" stroke-width="0.967742" stroke-miterlimit="10" stroke-linecap="round" stroke-linejoin="round"/>
<path d="M85.259 111C77.6623 120.097 74.9042 128.661 60.8235 128.516C56.6623 128.468 52.3558 127.21 48.5332 129.097C46.1139 130.306 44.1784 132.726 43.2106 135.629C42.0977 139.161 42.1945 143.71 39.63 145.887C37.501 147.677 34.5977 146.855 32.0332 146.565C27.8719 146.081 26.0332 148.887 23.0332 152.758C20.8074 155.661 10.6461 156.097 14.3719 156.097C20.9042 156.097 85.259 156.097 85.259 156.097V111Z" fill="#FFC1BB"/>
<path d="M32.8556 116.953C30.2911 116.953 27.7265 118.066 25.9362 120.195C24.6297 121.791 22.8394 123.436 20.8555 123.436C20.6136 123.436 20.3717 123.388 20.1297 123.34C17.4684 122.807 16.4039 119.517 14.1298 118.114C13.0169 117.436 11.7104 117.243 10.3556 117.243C10.0169 117.243 9.67813 117.243 9.33942 117.291V138.582C15.4362 138.582 62.033 138.582 64.4039 138.582C65.4201 138.582 64.6943 137.372 64.3556 136.985C63.3394 135.775 61.9846 135.727 60.6297 135.485C59.2749 135.243 57.8233 134.904 56.8556 133.791C56.0814 132.872 55.7911 131.566 55.3556 130.404C54.533 128.275 52.9846 126.533 51.0975 125.566C50.5168 125.275 49.9362 125.082 49.3072 125.082C49.3072 125.082 49.3072 125.082 49.2588 125.082C47.9039 125.082 46.6459 126.146 45.291 126.195H45.2427C43.8878 126.195 42.7265 125.178 41.8556 124.017C41.033 122.856 40.4039 121.453 39.533 120.291C37.8878 118.066 35.4201 116.953 32.8556 116.953ZM32.8556 116.469C35.662 116.469 38.2749 117.727 39.9684 119.953C40.4523 120.582 40.8394 121.307 41.2749 121.985C41.6136 122.566 41.9523 123.146 42.3394 123.678C42.8717 124.404 43.9362 125.662 45.3394 125.662H45.3878C45.9685 125.662 46.5491 125.42 47.1781 125.13C47.8556 124.84 48.5814 124.549 49.3556 124.549H49.4039C50.033 124.549 50.662 124.743 51.4362 125.13C53.4201 126.146 55.0652 127.985 55.9362 130.211C56.0814 130.549 56.1781 130.888 56.2749 131.227C56.5652 132.098 56.8556 132.92 57.3394 133.501C58.162 134.469 59.3717 134.759 60.8233 135.049C61.0169 135.098 61.2104 135.098 61.4039 135.146C62.6136 135.34 63.8233 135.533 64.8394 136.743C64.8878 136.791 65.8072 137.856 65.4201 138.63C65.3233 138.824 65.0814 139.114 64.5007 139.114H9.4362C9.14588 139.114 8.95233 138.92 8.95233 138.63V117.34C8.95233 117.098 9.14589 116.856 9.38783 116.856C9.77493 116.856 10.1136 116.807 10.4523 116.807C12.1459 116.807 13.404 117.098 14.4685 117.727C15.533 118.356 16.3072 119.324 17.0814 120.243C18.0491 121.453 18.9684 122.566 20.3717 122.856C20.5652 122.904 20.8072 122.904 21.0007 122.904C22.4523 122.904 24.0491 121.888 25.7427 119.856C27.3878 117.727 30.0491 116.469 32.8556 116.469Z" fill="white"/>
<path d="M9.33912 39.3398C9.4359 39.3882 9.53269 39.4366 9.62947 39.4366C11.8553 40.356 13.6456 42.0495 15.2907 43.7915C16.7423 45.2915 18.1456 46.9366 20.0327 47.856C22.6456 49.114 26.3714 48.3882 29.2262 48.6302C31.9359 48.8721 37.9359 52.0656 31.8875 51.8721C24.3875 51.6302 16.8391 51.5334 9.33912 51.5818V39.3398Z" fill="white"/>
<path d="M107.614 30.8719C107.614 28.2106 112.695 29.1784 115.308 29.1784C116.324 29.1784 117.534 29.1784 118.018 28.0171C118.501 26.9042 117.921 25.501 118.018 24.1945C118.211 21.63 120.824 20.759 122.759 21.2913C124.695 21.8235 126.727 22.9848 128.518 21.9687C130.937 20.6139 130.84 18.0977 132.582 15.4848C134.372 12.8235 137.421 12.2429 139.985 13.3558C142.55 14.4687 144.582 16.9848 146.227 19.7429C147.872 22.501 148.792 27.3397 153.098 28.6461C155.711 29.4687 158.227 26.4687 160.792 26.759C163.066 27.001 165.921 28.259 165.243 30.9203H107.614V30.8719Z" stroke="white" stroke-width="0.483871" stroke-miterlimit="10" stroke-linejoin="round"/>
<path d="M182.662 16.9364C180.726 16.9364 184.307 13.5493 187.355 14.3719C188.178 14.6138 189.968 14.5171 190.791 14.2267C192.678 13.5009 192.726 11.0332 193.113 9.04932C193.501 7.06545 193.742 4.83965 195.049 3.29126C196.549 1.54932 199.21 1.11384 201.339 1.88803C203.517 2.66223 205.162 4.40416 206.904 5.90416C208.646 7.40416 210.823 8.759 213.097 8.42029C214.791 8.17836 216.194 7.11384 217.839 6.72674C221.13 5.95255 224.371 7.98481 226.888 10.2106C229.355 12.4848 231.726 13.6945 234.92 14.7106C236.662 15.2429 240.823 16.0655 245.178 15.1461C247.259 14.7106 248.517 13.4525 250.694 13.4525C253.888 13.4525 255.775 15.3396 257.42 16.9848C254.71 16.9364 184.597 16.9364 182.662 16.9364Z" fill="white"/>
<path d="M21.9197 110.613C21.9197 111.194 22.4035 111.678 22.9842 111.678C23.5648 111.678 24.0487 111.194 24.0487 110.613C24.0487 110.033 23.5648 109.549 22.9842 109.549C22.4035 109.549 21.9197 110.033 21.9197 110.613Z" stroke="white" stroke-width="0.483871" stroke-miterlimit="10" stroke-linejoin="round"/>
<path d="M144.533 52.4512C144.533 53.0319 145.016 53.5158 145.597 53.5158C146.178 53.5158 146.662 53.0319 146.662 52.4512C146.662 51.8706 146.178 51.3867 145.597 51.3867C145.016 51.3867 144.533 51.8706 144.533 52.4512Z" stroke="white" stroke-width="0.483871" stroke-miterlimit="10" stroke-linejoin="round"/>
<path d="M97.5008 16.9356C97.5008 17.5163 97.9847 18.0001 98.5653 18.0001C99.146 18.0001 99.6298 17.5163 99.6298 16.9356C99.6298 16.355 99.146 15.8711 98.5653 15.8711C97.9847 15.8711 97.5008 16.3066 97.5008 16.9356Z" stroke="white" stroke-width="0.483871" stroke-miterlimit="10" stroke-linejoin="round"/>
<path d="M287.662 83.6133C287.662 84.194 288.146 84.6779 288.727 84.6779C289.307 84.6779 289.791 84.194 289.791 83.6133C289.791 83.0327 289.307 82.5488 288.727 82.5488C288.146 82.5488 287.662 82.9843 287.662 83.6133Z" stroke="white" stroke-width="0.483871" stroke-miterlimit="10" stroke-linejoin="round"/>
<path d="M213.097 39.8712C213.097 40.4518 213.581 40.9357 214.162 40.9357C214.743 40.9357 215.227 40.4518 215.227 39.8712C215.227 39.2905 214.743 38.8066 214.162 38.8066C213.581 38.8066 213.097 39.2905 213.097 39.8712Z" stroke="white" stroke-width="0.483871" stroke-miterlimit="10" stroke-linejoin="round"/>
<path d="M203.081 125.662C203.081 126.243 203.565 126.727 204.145 126.727C204.726 126.727 205.21 126.243 205.21 125.662C205.21 125.082 204.726 124.598 204.145 124.598C203.565 124.598 203.081 125.082 203.081 125.662Z" stroke="white" stroke-width="0.483871" stroke-miterlimit="10" stroke-linejoin="round"/>
<path d="M286.597 141.098C286.597 141.678 287.081 142.162 287.661 142.162C288.242 142.162 288.726 141.678 288.726 141.098C288.726 140.517 288.242 140.033 287.661 140.033C287.081 140.033 286.597 140.517 286.597 141.098Z" stroke="white" stroke-width="0.483871" stroke-miterlimit="10" stroke-linejoin="round"/>
<path d="M232.79 25.5H212.226" stroke="#F2A8A0" stroke-width="0.725806" stroke-miterlimit="10" stroke-linejoin="round"/>
<path d="M207.291 25.5H199.114" stroke="#F2A8A0" stroke-width="0.725806" stroke-miterlimit="10" stroke-linejoin="round"/>
<path d="M169.646 42.8711H161.468" stroke="#F2A8A0" stroke-width="0.725806" stroke-miterlimit="10" stroke-linejoin="round"/>
<path d="M162.823 146.855H154.646" stroke="#F2A8A0" stroke-width="0.725806" stroke-miterlimit="10" stroke-linejoin="round"/>
<path d="M304.597 99.3379H289.404" stroke="#F2A8A0" stroke-width="0.725806" stroke-miterlimit="10" stroke-linejoin="round"/>
<path d="M29.5165 82.8379H14.3229" stroke="#F2A8A0" stroke-width="0.725806" stroke-miterlimit="10" stroke-linejoin="round"/>
<path d="M18.049 88.8867H2.85542" stroke="#F2A8A0" stroke-width="0.725806" stroke-miterlimit="10" stroke-linejoin="round"/>
<path d="M155.517 142.162H140.323" stroke="#F2A8A0" stroke-width="0.725806" stroke-miterlimit="10" stroke-linejoin="round"/>
<path d="M218.855 135.338H203.662" stroke="#F2A8A0" stroke-width="0.725806" stroke-miterlimit="10" stroke-linejoin="round"/>
<path d="M200.033 135.338H195.242" stroke="#F2A8A0" stroke-width="0.725806" stroke-miterlimit="10" stroke-linejoin="round"/>
<path d="M152.565 63.7734V66.7734" stroke="white" stroke-width="0.483871" stroke-miterlimit="10" stroke-linejoin="round"/>
<path d="M151.113 65.2734H154.065" stroke="white" stroke-width="0.483871" stroke-miterlimit="10" stroke-linejoin="round"/>
<path d="M74.9521 47.6621V50.6137" stroke="white" stroke-width="0.483871" stroke-miterlimit="10" stroke-linejoin="round"/>
<path d="M73.4518 49.1133H76.4518" stroke="white" stroke-width="0.483871" stroke-miterlimit="10" stroke-linejoin="round"/>
<path d="M117.242 0V3" stroke="white" stroke-width="0.483871" stroke-miterlimit="10" stroke-linejoin="round"/>
<path d="M115.742 1.5H118.742" stroke="white" stroke-width="0.483871" stroke-miterlimit="10" stroke-linejoin="round"/>
<path d="M159.339 20.3711V23.3227" stroke="white" stroke-width="0.483871" stroke-miterlimit="10" stroke-linejoin="round"/>
<path d="M157.887 21.8223H160.839" stroke="white" stroke-width="0.483871" stroke-miterlimit="10" stroke-linejoin="round"/>
<path d="M14.3227 97.4023V100.354" stroke="white" stroke-width="0.483871" stroke-miterlimit="10" stroke-linejoin="round"/>
<path d="M12.8231 98.8535H15.7747" stroke="white" stroke-width="0.483871" stroke-miterlimit="10" stroke-linejoin="round"/>
<path d="M229.839 31.8867V34.8383" stroke="white" stroke-width="0.483871" stroke-miterlimit="10" stroke-linejoin="round"/>
<path d="M228.339 33.3867H231.339" stroke="white" stroke-width="0.483871" stroke-miterlimit="10" stroke-linejoin="round"/>
<path d="M307.453 116.42V119.372" stroke="white" stroke-width="0.483871" stroke-miterlimit="10" stroke-linejoin="round"/>
<path d="M305.952 117.92H308.952" stroke="white" stroke-width="0.483871" stroke-miterlimit="10" stroke-linejoin="round"/>
<path d="M125.999 125.323L126.628 125.178L128.854 134.758C128.951 135.145 129.241 135.436 129.628 135.533L129.677 135.581L128.661 135.823C128.612 135.823 128.564 135.823 128.564 135.823H128.515C128.322 135.726 128.128 135.533 128.08 135.291L125.854 125.565C125.806 125.468 125.903 125.371 125.999 125.323Z" fill="#010101"/>
<path d="M137.806 122.033L130.306 125.13L126.968 125.711L129.145 135.001C129.193 135.243 129.484 135.388 129.726 135.34C129.919 135.291 130.064 135.146 130.113 134.953L131.419 130.211L139.451 128.13" fill="#FFA18D"/>
<path d="M132.871 124.066L130.355 125.083L127.017 125.663L129.194 134.954C129.242 135.195 129.533 135.341 129.775 135.292C129.968 135.244 130.113 135.099 130.162 134.905L131.468 130.163L134.855 129.292" fill="white"/>
<path d="M131.855 130.211L130.161 135.195C130.113 135.388 129.919 135.582 129.677 135.63C129.339 135.727 129 135.437 128.952 135.195L126.629 125.227L130.452 125.082C130.452 125.082 130.161 128.421 131.855 130.211Z" fill="#4376CF"/>
<path d="M131.806 130.936C131.371 130.742 130.935 130.646 130.5 130.549" stroke="#010101" stroke-width="0.483871" stroke-miterlimit="10" stroke-linecap="round" stroke-linejoin="round"/>
<path d="M131.564 131.614C131.081 131.421 130.839 131.372 130.451 131.275" stroke="#010101" stroke-width="0.483871" stroke-miterlimit="10" stroke-linecap="round" stroke-linejoin="round"/>
<path d="M131.419 132.195C131.129 132.049 130.693 132.001 130.403 131.904" stroke="#010101" stroke-width="0.483871" stroke-miterlimit="10" stroke-linecap="round" stroke-linejoin="round"/>
<path d="M175.257 172.016V171.387L185.128 171.338C185.515 171.338 185.853 171.097 186.095 170.758H186.144V171.822C186.144 171.871 186.144 171.919 186.095 171.919V171.967C185.95 172.161 185.708 172.258 185.466 172.258L175.499 172.306C175.353 172.258 175.257 172.161 175.257 172.016Z" fill="#010101"/>
<path d="M177.288 159.387L175.982 167.758L175.788 171.145L185.321 171.097C185.563 171.097 185.805 170.855 185.805 170.613C185.805 170.419 185.708 170.226 185.514 170.177L181.208 167.855L183.627 159.193" fill="#FFA18D"/>
<path d="M176.466 164.709L175.982 167.757L175.788 171.144L185.321 171.096C185.563 171.096 185.805 170.854 185.805 170.612C185.805 170.419 185.708 170.225 185.514 170.177L181.208 167.854L181.982 165.048" fill="white"/>
<path d="M181.306 167.371L185.757 170.129C185.951 170.226 186.096 170.468 186.096 170.71C186.096 171.049 185.757 171.339 185.467 171.339L175.209 171.387L175.935 167.661C175.983 167.613 179.177 168.678 181.306 167.371Z" fill="#4376CF"/>
<path d="M182.03 167.613C181.74 168 181.547 168.387 181.353 168.823" stroke="#010101" stroke-width="0.483871" stroke-miterlimit="10" stroke-linecap="round" stroke-linejoin="round"/>
<path d="M182.611 168C182.321 168.387 182.224 168.629 182.079 169.016" stroke="#010101" stroke-width="0.483871" stroke-miterlimit="10" stroke-linecap="round" stroke-linejoin="round"/>
<path d="M183.143 168.242C182.95 168.533 182.805 168.871 182.659 169.162" stroke="#010101" stroke-width="0.483871" stroke-miterlimit="10" stroke-linecap="round" stroke-linejoin="round"/>
<path d="M193.79 74.0801V78.9188C193.79 78.9188 197.758 108.29 194.71 124.354C191.516 141.048 183.435 161.757 183.435 161.757H176.371C176.371 161.757 178.887 129.241 179.516 122.08C179.177 115.209 177.532 93.4833 177.532 93.4833C177.532 93.4833 170.71 82.9833 177.484 74.3704" fill="#4376CF"/>
<path d="M177.725 161.71C177.725 161.71 180.725 132.63 181.644 123.339C181.741 122.468 181.741 121.549 181.693 120.678C181.16 112.742 179.806 93.4844 179.806 93.4844" stroke="#1D334F" stroke-width="0.362903" stroke-miterlimit="10" stroke-linejoin="round"/>
<path d="M188.564 77.3226C188.564 77.3226 188.613 88.1129 187.645 92.9032C186.193 99.8226 183.29 110.032 175.645 118.065C168.532 125.613 138.387 128.758 138.387 128.758L136.064 122.468C136.064 122.468 153.871 110.758 165.532 109.984C166.258 107.565 169.548 90.871 169.548 90.871C169.548 90.871 169.258 81.3387 174.387 76.6935C174.774 76.3548 175.113 76.0161 175.355 75.5806L178.887 69" fill="#4376CF"/>
<path d="M193.79 78.9195C193.79 78.9195 184.354 80.7583 174.87 76.3066" stroke="#1D334F" stroke-width="0.362903" stroke-miterlimit="10" stroke-linejoin="round"/>
<path d="M189.483 79.258L190.403 79.2096C190.693 79.2096 190.983 78.9193 190.983 78.629V76.6935C190.983 76.4032 190.741 76.1128 190.451 76.1128L189.193 76.0645" stroke="#1D334F" stroke-width="0.362903" stroke-miterlimit="10" stroke-linejoin="round"/>
<path d="M189.145 77.7094C189.145 77.9029 189.29 78.0965 189.532 78.0965C189.726 78.0965 189.919 77.9513 189.919 77.7094C189.919 77.4674 189.774 77.3223 189.532 77.3223C189.339 77.3707 189.145 77.5158 189.145 77.7094Z" fill="white"/>
<path d="M188.564 79.2578C188.564 79.2578 188.613 88.1126 187.645 92.8546C186.581 98.1288 184.113 106.597 178.984 114" stroke="#1D334F" stroke-width="0.362903" stroke-miterlimit="10" stroke-linejoin="round"/>
<path d="M190.403 79.2578C190.354 80.6127 190.306 81.9675 190.257 83.3223C190.161 85.5965 190.693 87.8223 188.177 88.8868" stroke="#1D334F" stroke-width="0.362903" stroke-miterlimit="10" stroke-linejoin="round"/>
<path d="M183.726 78.7743L184.452 75.8711" stroke="#1D334F" stroke-width="0.362903" stroke-miterlimit="10" stroke-linejoin="round"/>
<path d="M176.951 77.1768L177.967 74.0801" stroke="#1D334F" stroke-width="0.362903" stroke-miterlimit="10" stroke-linejoin="round"/>
<path d="M136.5 123.629C136.5 123.629 154.403 113.226 165.968 111.726C166.742 111.629 167.322 111.097 167.516 110.322C168.484 105.968 170.661 95.5644 171.145 92.9515C171.193 92.6612 171.193 92.3708 171.193 92.0321C171 90.2418 171.774 80.3225 177 77.1289" stroke="#1D334F" stroke-width="0.362903" stroke-miterlimit="10" stroke-linejoin="round"/>
<path d="M134.516 123.097L136.403 121.936L139.016 129.097L136.838 129.387L134.516 123.097Z" fill="#89B5F4"/>
<path d="M175.984 162.774V160.645H184.161L183.677 162.774H175.984Z" fill="#89B5F4"/>
<path d="M179.806 78.0977C179.806 78.0977 176.709 80.2751 173.419 81.3396" stroke="#1D334F" stroke-width="0.362903" stroke-miterlimit="10" stroke-linejoin="round"/>
<path d="M194.565 84.0481C194.565 84.0481 193.113 81.4352 192.436 79.2578" stroke="#1D334F" stroke-width="0.362903" stroke-miterlimit="10" stroke-linejoin="round"/>
<path d="M169.79 54.4844C169.79 54.4844 160.5 65.0328 159.581 67.936C158.661 70.8392 156.581 87.5812 156.581 87.5812L161.42 88.1618L166.887 70.3553L178.887 58.7908" fill="#FFA18D"/>
<path d="M161.758 86.516C161.661 87.6773 161.516 89.8063 161.419 90.9676C161.371 91.645 161.129 92.8063 160.839 92.8547C160.064 92.9515 160.742 91.0644 160.306 91.1128C160.064 91.1612 159.968 92.6128 159.919 93.387C159.871 94.0644 159.726 94.9354 159.29 95.0321C158.758 95.1289 159.048 91.3547 159.048 91.3547C159.048 91.3547 158.564 95.3225 158.081 95.3708C157.403 95.4676 157.935 91.4999 157.935 91.4999C157.935 91.4999 157.451 94.8386 156.968 94.9354C156.484 94.9837 156.919 92.5644 156.919 91.5483C156.726 92.2741 156.484 94.2096 156.145 94.2579C155.806 94.3063 155.758 92.8547 155.806 92.516C156.048 90.3386 156.919 86.1289 156.919 86.1289" fill="#FFA18D"/>
<path d="M199.936 53.4689L206.274 60.0979L221.903 52.8398L224.71 56.3721C224.71 56.3721 210.678 69.2431 206.032 69.2431C202.403 69.2431 190.355 60.0495 190.355 60.0495" fill="#FFA18D"/>
<path d="M220.161 53.6146C221.177 52.6468 223.258 50.5662 224.274 49.5984C224.903 49.0178 226.016 48.0984 226.258 48.2436C226.935 48.7275 224.855 49.9855 225.193 50.2275C225.387 50.3726 226.742 49.2113 226.984 49.0662C227.661 48.6307 228.387 48.2436 229.113 47.9049C229.258 47.8565 229.403 47.7597 229.548 47.8081C229.693 47.8081 229.838 47.9533 229.838 48.0984C229.838 48.2436 229.742 48.3404 229.645 48.4371C228.774 49.1629 227.855 49.8888 226.984 50.6146C227.322 50.5662 227.564 50.6629 227.806 50.9533C228.048 51.1952 227.855 51.5339 227.855 51.5339C227.855 51.5339 228.242 51.4855 228.435 51.6307C228.58 51.7758 228.629 52.0178 228.629 52.2113C228.58 52.4049 228.532 52.5984 228.435 52.792C228.677 52.7436 228.919 52.8888 228.967 53.1307C229.064 53.3242 229.016 53.6146 228.967 53.8081C228.774 54.4855 228.29 55.1146 227.709 55.4533C227.419 55.5984 227.177 55.8404 226.838 55.792C226.5 55.7436 226.209 55.55 226.064 55.2113C225.338 56.1307 224.419 56.8565 223.355 57.3404" fill="#FFA18D"/>
<path d="M223.113 54.1935C223.113 54.1935 224.516 53.0806 224.806 51" stroke="#E07A6C" stroke-width="0.362903" stroke-miterlimit="10" stroke-linejoin="round"/>
<path d="M226.354 51.291C226.016 51.6781 225.725 52.0652 225.338 52.4523C225.193 52.6459 224.999 52.791 224.854 52.9846C224.757 53.0814 224.709 53.1297 224.757 53.2749C224.806 53.3717 224.951 53.4201 225.048 53.4201C225.435 53.5168 225.87 53.4201 226.257 53.2265C226.645 52.9846 226.887 52.6459 227.274 52.4523C227.322 52.4039 227.419 52.5007 227.37 52.5491C227.177 52.8878 226.887 53.1781 226.596 53.4201C226.257 53.662 225.919 53.8072 225.483 53.8072C225.145 53.8072 224.709 53.7104 224.564 53.3717C224.516 53.2265 224.564 53.0814 224.661 52.9362C224.806 52.7427 224.999 52.5975 225.145 52.4523C225.338 52.2588 225.532 52.0652 225.725 51.8717C225.967 51.6297 226.161 51.4362 226.354 51.291C226.354 51.2426 226.354 51.291 226.354 51.291Z" fill="#E07A6C"/>
<path d="M228.048 53.3242C227.757 53.6629 227.467 54.0016 227.08 54.2919C226.789 54.5338 226.451 54.8242 226.015 54.7758C225.725 54.7274 225.531 54.5338 225.435 54.2919C225.338 54.0984 225.289 53.7113 225.483 53.5661C225.531 53.5661 225.531 53.5661 225.58 53.5661C225.628 53.6629 225.628 53.7597 225.628 53.9048C225.628 54.0016 225.628 54.0984 225.677 54.1951C225.725 54.3887 225.918 54.5338 226.16 54.5338C226.306 54.5338 226.499 54.4371 226.596 54.3403C226.741 54.2435 226.935 54.0984 227.08 54.0016C227.37 53.7597 227.66 53.5177 227.951 53.2758C228.048 53.179 228.096 53.2758 228.048 53.3242Z" fill="#E07A6C"/>
<path d="M183.725 48.7756C183.725 48.7756 178.258 46.5014 173.274 50.6143C169.403 53.8079 165.58 58.453 165.58 58.453L172.983 65.2272L181.161 57.7756" fill="#F05448"/>
<path d="M185.758 49.1128C185.758 49.1128 190.742 47.7096 195.436 50.2257C200.129 52.7418 204.097 57.9192 204.097 57.9192L197.323 65.2741L189.242 60.0966" fill="#F05448"/>
<path d="M193.258 52.356C200.226 59.3238 194.371 64.7431 194.371 64.7431L193.79 75.8238C193.79 75.8238 192.048 76.4044 188.516 76.3076C182.129 76.0657 176.274 73.8883 176.274 73.8883C176.274 73.8883 174.097 64.0173 173.952 58.8399C173.855 54.1947 177.339 51.5335 177.339 51.5335L184.645 48.7754L193.258 52.356Z" fill="#F05448"/>
<path d="M187.644 32.7598C188.128 32.8565 188.66 33.0017 189.047 33.292C189.386 33.534 189.725 33.6791 190.112 33.8243C190.983 34.2114 191.805 34.792 192.386 35.5178C193.209 36.5823 193.692 37.9372 193.499 39.292C193.45 39.6791 193.354 40.0662 193.354 40.5017C193.402 41.5178 194.031 41.663 194.757 42.292C195.58 43.0178 196.354 43.8888 196.354 45.0501C196.354 46.3082 195.58 47.6146 194.321 48.0501C193.402 48.3888 192.192 48.0501 191.176 48.0017C188.805 47.8082 186.483 47.663 184.112 47.4694C182.176 47.3243 180.192 47.034 178.209 47.034C176.757 47.034 176.515 45.7275 176.515 44.5178C176.515 43.6469 176.854 42.4372 177.434 41.7598C177.628 41.5178 177.918 41.2759 178.063 40.9856C178.209 40.7436 178.209 40.4533 178.257 40.163C178.305 39.1953 178.402 38.1791 178.644 37.2114C178.886 36.2436 179.37 35.3243 180.096 34.6952C180.58 34.3082 181.16 34.0178 181.789 33.9211C182.37 33.8243 183.144 33.8727 183.725 33.9694" fill="#010101"/>
<path d="M186.675 43.502L187.595 49.3084C187.595 49.3084 187.546 51.3407 184.643 51.3407C182.563 51.3407 182.175 49.4536 182.175 49.4536L182.998 43.5503" fill="#FFA18D"/>
<path d="M181.692 35.2763C179.031 37.9376 177.143 44.9053 181.353 45.7279C184.692 46.357 187.498 44.2763 188.369 41.5666C189.627 37.5989 184.353 32.615 181.692 35.2763Z" fill="#FFA18D"/>
<path d="M180.385 38.8558C180.385 39.0494 180.579 39.2429 180.772 39.2429C180.966 39.2429 181.159 39.0494 181.159 38.8558C181.159 38.6623 180.966 38.4688 180.772 38.4688C180.579 38.4688 180.385 38.6623 180.385 38.8558Z" fill="#060A47"/>
<path d="M184.643 40.4047C184.643 40.5982 184.45 40.7918 184.256 40.7918C184.062 40.7918 183.869 40.5982 183.869 40.4047C183.869 40.2111 184.062 40.0176 184.256 40.0176C184.498 40.0176 184.643 40.2111 184.643 40.4047Z" fill="#060A47"/>
<path d="M183.724 38.8076C184.208 38.614 184.74 38.614 185.176 38.856C185.563 39.0495 185.902 39.4366 185.95 39.8721C185.95 39.9205 185.853 39.9689 185.853 39.9205C185.756 39.7269 185.66 39.5818 185.563 39.4366C185.418 39.2915 185.272 39.1463 185.127 39.0495C184.74 38.8076 184.256 38.8076 183.821 38.9044C183.724 39.0011 183.676 38.856 183.724 38.8076Z" fill="#060A47"/>
<path d="M180.24 37.5021C180.579 37.1634 181.111 37.115 181.547 37.3085C181.934 37.5021 182.321 37.9376 182.224 38.373C182.224 38.4214 182.127 38.4214 182.127 38.373C182.031 38.2279 181.982 38.0343 181.886 37.8892C181.789 37.744 181.644 37.5988 181.498 37.5021C181.16 37.3085 180.724 37.4053 180.386 37.5988C180.289 37.5988 180.192 37.5505 180.24 37.5021Z" fill="#060A47"/>
<path d="M182.176 39.3398C182.176 39.3398 180.676 40.9366 180.821 41.2753C181.063 41.856 181.982 41.856 181.982 41.856" stroke="#E07A6C" stroke-width="0.362903" stroke-miterlimit="10" stroke-linejoin="round"/>
<path d="M183.434 43.2117L180.482 42.4375C180.482 42.4375 180.095 44.1794 181.063 44.4214C182.902 44.9536 183.434 43.2117 183.434 43.2117Z" fill="white"/>
<path d="M192.192 36.2921C191.708 34.405 190.499 32.7598 188.612 32.2759C187.741 32.034 186.821 32.034 185.95 32.1308C185.176 32.2275 184.499 32.5663 183.773 32.7598C183.047 32.9534 182.418 32.6146 181.692 32.663C180.289 32.7598 178.837 33.9695 179.466 35.4695C179.757 36.1469 180.337 36.6308 180.966 36.9695C182.66 37.8888 184.644 38.034 186.531 38.0824C186.241 38.0824 186.047 39.8243 186.047 40.0663C186.096 40.6953 186.337 41.2759 186.531 41.905C187.063 43.5501 187.789 45.0985 188.612 46.6469C188.66 46.7437 188.757 46.8888 188.902 46.8888C188.95 46.8888 188.999 46.8404 189.047 46.7921C189.725 46.0663 190.305 45.1953 190.789 44.2759C191.128 43.5985 191.66 42.9211 191.902 42.1953C191.999 41.8082 191.95 41.4211 191.902 41.034C191.902 40.5017 192.096 40.163 192.241 39.6308C192.579 38.4695 192.434 37.3082 192.192 36.2921Z" fill="#010101"/>
<path d="M182.66 46.066C182.66 46.066 184.595 46.2112 186.144 44.9531" stroke="#E07A6C" stroke-width="0.362903" stroke-miterlimit="10" stroke-linejoin="round"/>
<path d="M186.434 41.712C186.918 41.2766 187.45 41.6153 187.644 41.8572C188.127 42.4378 187.934 43.3572 187.498 43.9862C187.015 44.712 186.482 44.712 186.144 44.5669C185.805 44.4217 185.66 43.8411 185.853 43.212" fill="#FFA18D"/>
<path d="M189.192 34.1621C188.176 33.9202 188.176 32.7105 188.273 31.8879C188.563 30.0976 190.015 28.9847 191.805 29.1299C193.692 29.275 195.725 30.5331 195.434 33.1944C195.192 35.5653 191.466 36.0492 189.773 34.6944C189.725 34.646 189.676 34.5976 189.579 34.5492" fill="#010101"/>
<path d="M188.273 32.1777C188.273 32.1777 190.79 32.4197 192.338 35.3713" stroke="#4376CF" stroke-width="0.483871" stroke-miterlimit="10" stroke-linejoin="round"/>
<path d="M174.387 64.0161L180.774 58.0645" stroke="#91302C" stroke-width="0.362903" stroke-miterlimit="10" stroke-linejoin="round"/>
<path d="M193.258 52.3555C200.226 59.3232 194.371 64.7426 194.371 64.7426" stroke="#91302C" stroke-width="0.362903" stroke-miterlimit="10" stroke-linejoin="round"/>
<path d="M106.742 52.1621C106.742 52.1621 98.129 57.4363 96.3871 59.6621C91.9839 65.275 85.7419 83.6137 85.7419 83.6137L90.4355 85.8395C90.4355 85.8395 101.613 67.5008 102.339 67.0653C105.194 65.4686 115.065 62.275 115.065 62.275" fill="#FF886F"/>
<path d="M117.581 45.3398C110.855 46.8398 99.8714 55.4527 99.8714 55.4527L110.807 68.9527L119.613 62.9044" fill="#4376CF"/>
<path d="M81.8725 161.129L82.5499 160.307L95.4209 170.42C95.9531 170.855 96.6789 170.952 97.308 170.71L97.4047 170.758L96.3402 172.113C96.2918 172.161 96.2434 172.21 96.195 172.21H96.1467C95.7596 172.258 95.3241 172.161 95.0338 171.92L82.0176 161.661C81.7757 161.565 81.7757 161.323 81.8725 161.129Z" fill="#010101"/>
<path d="M92.8063 143.371L86.6127 155.952L83.5159 160.597L95.9514 170.371C96.2901 170.661 96.8224 170.565 97.0643 170.226C97.2579 169.984 97.3063 169.597 97.1127 169.307L93.5321 161.661L101.516 149.903" fill="#FF886F"/>
<path d="M94.066 161.082L97.5983 169.646C97.7918 169.985 97.7434 170.42 97.4531 170.759C97.1144 171.195 96.3886 171.195 96.0015 170.904L82.5983 160.356L86.7596 155.856C86.7112 155.807 89.808 160.404 94.066 161.082Z" fill="#F05448"/>
<path d="M94.9851 162.291C94.2593 162.485 93.5335 162.727 92.8561 163.114" stroke="#010101" stroke-width="0.483871" stroke-miterlimit="10" stroke-linecap="round" stroke-linejoin="round"/>
<path d="M95.4207 163.451C94.6465 163.693 94.211 163.838 93.6304 164.177" stroke="#010101" stroke-width="0.483871" stroke-miterlimit="10" stroke-linecap="round" stroke-linejoin="round"/>
<path d="M95.8563 164.371C95.3241 164.516 94.695 164.807 94.2112 165.049" stroke="#010101" stroke-width="0.483871" stroke-miterlimit="10" stroke-linecap="round" stroke-linejoin="round"/>
<path d="M121.211 91.9842C121.211 91.9842 120.921 123.581 118.502 130.549C115.453 139.355 103.743 158.565 103.743 158.565L87.9693 150.291L100.985 125.565C101.566 124.452 101.856 123.145 101.856 121.887C101.76 117.92 101.469 109.065 101.179 106.694C100.889 104.226 99.9209 102.097 99.05 99.7745C97.3564 95.081 95.6629 89.71 96.3887 84.6777" fill="#173682"/>
<path d="M116.905 90.2422C116.905 90.2422 116.615 121.839 114.195 128.807C111.147 137.613 99.6793 156.436 99.6793 156.436" stroke="#010101" stroke-width="0.362903" stroke-miterlimit="10" stroke-linejoin="round"/>
<path d="M134.519 171.871V170.806H150.873C151.551 170.806 152.18 170.467 152.519 169.887H152.615V171.629C152.615 171.677 152.567 171.774 152.567 171.822L152.519 171.871C152.228 172.161 151.841 172.354 151.454 172.354H134.906C134.712 172.258 134.519 172.064 134.519 171.871Z" fill="#010101"/>
<path d="M132.098 151.161L135.002 164.855L135.437 170.419H151.26C151.695 170.419 152.082 170.08 152.082 169.596C152.082 169.258 151.889 168.967 151.55 168.822L144.002 165L142.985 150.822" fill="#FF886F"/>
<path d="M144.05 164.273L152.082 168.822C152.421 168.967 152.663 169.354 152.663 169.79C152.663 170.37 152.082 170.806 151.598 170.806H134.518L135.002 164.661C135.002 164.661 140.276 166.402 144.05 164.273Z" fill="#F05448"/>
<path d="M145.55 164.66C145.066 165.289 144.679 165.918 144.341 166.644" stroke="#010101" stroke-width="0.483871" stroke-miterlimit="10" stroke-linecap="round" stroke-linejoin="round"/>
<path d="M146.567 165.289C146.083 165.966 145.889 166.354 145.599 166.983" stroke="#010101" stroke-width="0.483871" stroke-miterlimit="10" stroke-linecap="round" stroke-linejoin="round"/>
<path d="M147.486 165.773C147.147 166.209 146.857 166.838 146.615 167.322" stroke="#010101" stroke-width="0.483871" stroke-miterlimit="10" stroke-linecap="round" stroke-linejoin="round"/>
<path d="M126.34 86.4677L127.453 93.9194C127.453 93.9194 139.985 111.968 143.614 125.565C145.404 132.194 149.179 160.065 149.179 160.065H130.985C130.985 160.065 126.824 133.742 124.308 127.742C121.791 121.79 111.195 106.161 109.404 103.5C102.291 98.0323 100.743 88.4516 104.372 79.5" fill="#1238A7"/>
<path d="M119.953 119.807L110.034 104.468C109.647 103.936 109.211 103.404 108.679 103.017C107.324 101.904 103.55 97.7427 103.018 93.7266" stroke="#010101" stroke-width="0.362903" stroke-miterlimit="10" stroke-linejoin="round"/>
<path d="M123.098 86.4688L124.017 92.5171C124.163 93.4365 124.501 94.3075 125.034 95.0817C127.84 99.2913 137.324 114.049 140.421 125.566C142.211 132.195 145.985 160.066 145.985 160.066" stroke="#010101" stroke-width="0.362903" stroke-miterlimit="10" stroke-linejoin="round"/>
<path d="M148.598 155.662H130.259" stroke="#010101" stroke-width="0.362903" stroke-miterlimit="10" stroke-linejoin="round"/>
<path d="M107.614 93.291L116.421 93.3878C116.421 93.3878 117.534 99.291 117.195 99.6297C116.711 100.114 114.243 102.436 113.324 102.436C112.405 102.436 109.743 100.162 109.211 99.6297C108.63 99.0975 107.614 93.291 107.614 93.291Z" stroke="#010101" stroke-width="0.362903" stroke-miterlimit="10" stroke-linejoin="round"/>
<path d="M116.663 94.5977H115.695" stroke="#010101" stroke-width="0.362903" stroke-linejoin="round"/>
<path d="M114.679 94.5977H109.308" stroke="#010101" stroke-width="0.362903" stroke-linejoin="round" stroke-dasharray="1.96 1.96"/>
<path d="M108.823 94.5977H107.855" stroke="#010101" stroke-width="0.362903" stroke-linejoin="round"/>
<path d="M97.161 92.4199L99.7739 92.7102C99.7739 92.7102 100.258 98.7102 99.8707 99.0006L99.0481 100.259" stroke="#010101" stroke-width="0.362903" stroke-miterlimit="10" stroke-linejoin="round"/>
<path d="M99.871 93.9679L98.9033 93.8711" stroke="#010101" stroke-width="0.362903" stroke-linejoin="round"/>
<path d="M98.3226 93.8233L97.4032 93.7266" stroke="#010101" stroke-width="0.362903" stroke-linejoin="round"/>
<path d="M105.727 155.13L89.7107 146.855" stroke="#010101" stroke-width="0.362903" stroke-miterlimit="10" stroke-linejoin="round"/>
<path d="M121.356 43.5977C109.162 47.6622 102.485 64.2589 94.7911 86.4686C94.7911 86.4686 112.549 91.888 129.485 90.7267C129.194 81.146 130.307 58.5009 130.307 58.5009L126.823 44.6138" fill="#4376CF"/>
<path d="M104.709 61.4527C104.709 61.4527 110.516 49.7914 118.597 44.9043" stroke="#1D334F" stroke-width="0.362903" stroke-miterlimit="10" stroke-linejoin="round"/>
<path d="M130.017 36.2903C130.017 37.2581 130.791 38.0806 131.807 38.0806C132.775 38.0806 133.597 37.3065 133.597 36.2903C133.597 35.3226 132.823 34.5 131.807 34.5C130.839 34.5 130.017 35.2742 130.017 36.2903Z" stroke="white" stroke-width="0.241936" stroke-miterlimit="10" stroke-linejoin="round"/>
<path d="M130.308 42.0978L128.856 34.4043L124.163 38.4688L123.388 39.5333L121.308 43.5495C121.308 43.5495 123.388 48.0978 127.259 47.5656C127.501 47.5172 127.646 47.372 127.743 47.1785L130.308 42.0978Z" fill="#FF886F"/>
<path d="M132.098 31.4031C133.114 33.6773 134.372 41.9515 132.582 43.1612C130.84 44.3225 127.646 43.8386 126.292 42.5805C125.082 41.516 123.05 34.9354 124.501 32.9999C126.001 31.0644 130.646 28.2096 132.098 31.4031Z" fill="#FF886F"/>
<path d="M122.516 32.2261C123.484 29.2261 125.226 28.7422 127.839 28.7422C130.21 28.7422 132.726 28.7422 134.565 30.2906C135 30.6777 135.291 31.1132 135.242 31.6938C135.097 32.6132 134.129 33.2422 133.307 33.3873C132.049 33.6293 130.839 33.8712 129.629 34.2099C128.371 34.5486 127.791 35.8067 126.726 36.3873C126.533 36.4841 126.339 36.5809 126.146 36.6777C125.758 36.9196 125.42 37.3551 125.323 37.839C125.226 38.1777 125.275 38.5648 125.178 38.9035C125.033 39.4841 124.5 39.7744 124.065 40.0648C123.678 40.3067 122.904 40.6938 122.904 40.6938C122.904 40.6938 121.452 38.3228 121.452 36.0486C121.355 34.9357 121.646 33.097 122.516 32.2261Z" fill="#010101"/>
<path d="M129.243 43.8873C129.243 43.8873 126.678 43.6454 125.904 41.8066" stroke="#D85039" stroke-width="0.362903" stroke-miterlimit="10" stroke-linejoin="round"/>
<path d="M132.582 36.3398C132.582 36.3398 134.856 38.6624 134.566 39.2915C134.275 39.9205 133.211 39.7753 133.211 39.7753" fill="#FF886F"/>
<path d="M131.518 36.1463C131.614 36.2915 131.614 36.485 131.663 36.6302C131.711 36.8237 131.518 37.0173 131.276 36.9689C130.888 36.9205 130.792 36.0495 131.276 36.0012C131.421 35.9528 131.469 36.0495 131.518 36.1463Z" fill="#010101"/>
<path d="M132.824 40.4993L129.969 40.209C129.969 40.209 130.211 42.2896 131.904 42.338C132.92 42.2896 132.824 40.4993 132.824 40.4993Z" fill="white"/>
<path d="M131.952 35.3228C131.323 35.4196 130.743 35.6615 130.21 36.0003C130.162 36.0003 129.92 35.7099 130.017 35.5164C130.065 35.3712 130.985 34.8873 131.807 34.7422C131.807 34.7906 132.049 35.2261 131.952 35.3228Z" fill="#010101"/>
<path d="M129.485 36.4837C129.485 37.4514 130.259 38.274 131.275 38.274C132.243 38.274 133.065 37.4998 133.065 36.4837C133.065 35.5159 132.291 34.6934 131.275 34.6934C130.259 34.6934 129.485 35.4676 129.485 36.4837Z" stroke="white" stroke-width="0.241936" stroke-miterlimit="10" stroke-linejoin="round"/>
<path d="M132.969 36.0006L133.55 35.8555" stroke="white" stroke-width="0.241936" stroke-miterlimit="10" stroke-linejoin="round"/>
<path d="M129.485 36.3867L125.856 37.2577" stroke="white" stroke-width="0.241936" stroke-miterlimit="10" stroke-linejoin="round"/>
<path d="M126.436 37.5494C126.146 37.1623 125.759 36.7268 125.323 36.7752C125.081 36.7752 124.888 36.9203 124.743 37.1139C124.017 38.0816 124.21 39.63 125.275 40.3074C125.71 40.5978 126.243 40.6462 126.533 40.1139L126.581 37.7913C126.581 37.6945 126.484 37.5978 126.436 37.5494Z" fill="#FF886F"/>
<path d="M124.792 39.8711C124.792 39.8711 125.566 40.6937 126.388 40.3066" stroke="#D85039" stroke-width="0.362903" stroke-miterlimit="10" stroke-linejoin="round"/>
<path d="M134.033 55.1621C134.033 55.1621 138.678 67.3557 139.356 68.3234C140.178 69.4847 154.259 83.4202 154.259 83.4202L151.694 88.5976C151.694 88.5976 133.743 78.0976 131.42 75.146C129.243 72.3879 125.517 62.7589 125.517 62.7589" fill="#FF886F"/>
<path d="M118.936 46.1615C122.952 44.3712 128.081 44.6615 132.533 51.8712C135.484 56.7099 139.355 64.597 139.355 64.597L125.517 71.7099L118.21 56.5647" fill="#4376CF"/>
<path d="M119.323 58.791L125.517 71.7104L139.355 64.5975" stroke="#1D334F" stroke-width="0.362903" stroke-miterlimit="10" stroke-linejoin="round"/>
<path d="M124.84 45.4349C124.84 45.4349 122.033 44.8059 119.469 45.9188" stroke="#1D334F" stroke-width="0.362903" stroke-miterlimit="10" stroke-linejoin="round"/>
<path d="M138.195 62.2266L124.356 69.2427" stroke="#1D334F" stroke-width="0.362903" stroke-miterlimit="10" stroke-linejoin="round"/>
<path d="M153.291 82.4512C153.291 82.4512 154.985 84.048 156.969 84.4834C156.969 84.4834 156.92 85.4996 156.872 85.6931C157.114 85.935 158.856 86.7576 159.533 86.9996C160.404 87.2899 161.565 87.7738 161.517 88.2576C161.469 88.8867 156.581 87.1931 156.581 87.1931C156.581 87.1931 161.662 89.1286 161.565 89.6609C161.469 90.3867 156.339 88.4512 156.339 88.4512C156.339 88.4512 160.646 90.1931 160.549 90.7254C160.452 91.2576 157.356 89.9512 156.001 89.5641C156.92 89.9996 159.388 90.9673 159.339 91.3544C159.291 91.7415 157.356 91.2576 156.872 91.0641C154.065 90.0479 149.033 86.9028 149.033 86.9028" fill="#FF886F"/>
<path d="M74.0789 149.467L74.9498 165.386C74.9498 165.386 83.1273 171.047 83.1273 171.144C83.1273 171.241 75.5789 171.531 75.5789 171.531L72.2402 169.886H66.724C66.3369 169.886 66.0466 169.547 66.1434 169.16L66.8208 166.16L64.5466 153.435" fill="#FFA18D"/>
<path d="M82.5952 170.079C81.3855 169.402 77.321 166.789 77.321 166.789L72.2888 169.934H65.9984V172.257H72.4823V170.854H73.063C73.2081 170.854 73.3533 170.902 73.45 170.999L74.9017 172.063C75.0468 172.208 75.2888 172.257 75.4823 172.257H83.1759C84.192 172.257 84.4339 171.096 82.5952 170.079Z" fill="#010101"/>
<path d="M70.5958 170.37L66.4345 167.757L66.6281 166.789L71.1765 169.934L70.5958 170.37Z" fill="#010101"/>
<path d="M44.4188 140.178L32.9995 151.355C32.9995 151.355 34.1608 161.226 34.064 161.323C33.9672 161.371 28.7898 155.904 28.7898 155.904L27.8221 152.323L24.193 148.162C23.9511 147.871 23.9995 147.436 24.3382 147.242L27.0479 145.791L35.1285 135.678" fill="#FFA18D"/>
<path d="M34.5473 160.161C34.3054 158.806 33.5311 154.016 33.5311 154.016L27.8698 152.322L23.7086 147.58L21.9666 149.128L26.2731 154.016L27.3376 153.096L27.7247 153.532C27.8215 153.628 27.8698 153.774 27.8698 153.919L28.015 155.709C28.015 155.903 28.1118 156.096 28.257 156.241L33.3376 162.048C33.9666 162.822 34.9344 162.241 34.5473 160.161Z" fill="#010101"/>
<path d="M26.4187 151.356L25.5961 146.517L26.4671 146.033L27.1445 151.501L26.4187 151.356Z" fill="#010101"/>
<path d="M66.0475 84C66.0475 84 74.9991 109.694 76.1604 120.677C77.3217 131.661 78.2894 160.065 78.2894 160.065H61.8378C61.8378 160.065 59.5636 124.21 58.0153 118.694C57.1443 115.694 56.1281 110.081 54.0959 100.258C51.3378 93.2419 49.983 90.5806 51.2411 84.7742" fill="#F05448"/>
<path d="M59.2245 83.7578C59.2245 83.7578 59.2245 91.9352 59.9503 95.8062C60.8697 99.8707 65.9987 114.338 63.289 122.032C60.5309 129.726 40.2568 150.774 40.2568 150.774L31.3051 139.451L48.3374 117.193L43.9342 99.6288C43.9342 99.6288 39.6277 91.9352 43.6438 84.1449" fill="#F05448"/>
<path d="M59.2245 88.0156C59.2245 88.0156 59.2245 91.935 59.9503 95.7576C60.8697 99.8221 65.9987 114.29 63.289 121.983C62.66 123.774 61.16 126.145 59.2729 128.758" stroke="#91302C" stroke-width="0.362903" stroke-miterlimit="10" stroke-linejoin="round"/>
<path d="M64.741 78.2898L66.0959 83.9994C57.6281 87.0478 43.6443 83.9994 43.6443 83.9994L48.0475 74.0801" fill="#FFA18D"/>
<path d="M32.6122 141.096L49.7896 119.999C50.4186 119.225 50.6605 118.209 50.467 117.241L47.1767 100.402C47.0799 99.8699 46.9347 99.386 46.6928 98.9022C45.7734 96.9183 44.5638 90.2893 45.5315 87.0957" stroke="#91302C" stroke-width="0.362903" stroke-miterlimit="10" stroke-linejoin="round"/>
<path d="M66.8707 86.4668C66.8707 86.4668 59.5642 90.4829 42.5803 86.4668" stroke="#91302C" stroke-width="0.362903" stroke-miterlimit="10" stroke-linejoin="round"/>
<path d="M61.5482 87.9192L62.3708 87.8225C62.6127 87.7741 62.8062 87.5805 62.7579 87.3386L62.3708 85.4515C62.3224 85.2096 62.0804 85.0644 61.8385 85.1128L59.903 85.2579" stroke="#91302C" stroke-width="0.362903" stroke-miterlimit="10" stroke-linejoin="round"/>
<path d="M66.0471 84C57.5794 87.0484 43.5955 84 43.5955 84" stroke="#91302C" stroke-width="0.362903" stroke-miterlimit="10" stroke-linejoin="round"/>
<path d="M60.9187 87.048C60.5179 87.048 60.1929 86.788 60.1929 86.4674C60.1929 86.1467 60.5179 85.8867 60.9187 85.8867C61.3196 85.8867 61.6445 86.1467 61.6445 86.4674C61.6445 86.788 61.3196 87.048 60.9187 87.048Z" fill="#F8F4F1"/>
<path d="M54.8223 85.3535L54.4836 88.2084" stroke="#91302C" stroke-width="0.362903" stroke-miterlimit="10" stroke-linejoin="round"/>
<path d="M47.5634 84.6777L46.7408 87.2906" stroke="#91302C" stroke-width="0.362903" stroke-miterlimit="10" stroke-linejoin="round"/>
<path d="M50.515 87.918C50.515 87.918 49.4989 91.4986 45.2892 92.3696" stroke="#91302C" stroke-width="0.362903" stroke-miterlimit="10" stroke-linejoin="round"/>
<path d="M60.9183 87.9668C60.9183 87.9668 61.3054 94.2087 61.3054 94.9345C61.3054 95.8539 60.0473 96.2894 60.0473 96.2894" stroke="#91302C" stroke-width="0.362903" stroke-miterlimit="10" stroke-linejoin="round"/>
<path d="M67.9835 89.8059C67.9835 89.8059 65.7093 89.7575 64.0158 87.5801" stroke="#91302C" stroke-width="0.362903" stroke-miterlimit="10" stroke-linejoin="round"/>
<path d="M64.3058 160.064L61.209 125.902" stroke="#91302C" stroke-width="0.362903" stroke-miterlimit="10" stroke-linejoin="round"/>
<path d="M90.4359 85.8398L88.2584 90.0979C88.2584 90.0979 85.5004 91.356 85.4036 91.3076C85.3068 91.2108 83.6133 89.3721 83.6133 89.2753C83.6133 89.1786 86.0326 82.8398 86.0326 82.8398" fill="#FF886F"/>
<path d="M67.0644 55.2105L72.1934 70.646L84.6289 85.1137L81.6289 88.0169C81.6289 88.0169 66.8708 77.2266 64.645 74.1782C62.4192 71.1299 56.6612 55.1621 56.6612 55.1621" fill="#FFA18D"/>
<path d="M83.5647 84.3398C84.4356 85.0657 86.1776 86.3237 87.0485 87.0011C87.5808 87.4366 88.4518 88.2108 88.355 88.4527C88.0647 89.0334 86.8066 87.5334 86.6614 87.8237C86.5647 88.0173 87.726 88.8882 88.3066 89.3237C88.8389 89.7108 89.5163 90.3398 89.3711 90.6785C89.1776 91.114 86.226 88.7915 86.226 88.7915C86.226 88.7915 89.226 91.3076 89.0808 91.6463C88.8389 92.1302 85.7905 89.614 85.7905 89.614C85.7905 89.614 88.3066 91.7915 88.1614 92.1786C87.9679 92.5173 86.1292 90.9205 85.3066 90.3398C85.8388 90.8721 87.2905 92.0818 87.1453 92.3721C87.0001 92.614 85.7905 91.8398 85.5485 91.5979C83.855 90.2431 80.8066 87.2915 80.8066 87.2915" fill="#FFA18D"/>
<path d="M86.6617 87.7753C86.6617 87.7753 85.3553 87.8721 84.1456 87.3398" stroke="#E07A6C" stroke-width="0.362903" stroke-miterlimit="10" stroke-linejoin="round"/>
<path d="M89.2742 88.0156C88.9355 88.8866 88.6936 89.7092 88.2581 90.5318C88.1613 90.7253 87.9678 90.9672 87.7258 90.8705C87.5323 90.7737 87.5323 90.5318 87.5807 90.2898C87.6775 89.8543 87.871 88.8866 87.871 88.8866" fill="#FF886F"/>
<path d="M85.1616 91.2583C85.6938 90.968 86.2745 90.6293 86.8551 90.339C86.9519 90.2906 87.0487 90.2422 87.1454 90.2422C87.2422 90.2422 87.3874 90.2906 87.4358 90.3874C87.4842 90.4841 87.4358 90.6293 87.3874 90.7261C87.0971 91.2583 86.5164 91.5486 85.9358 91.7422C85.7906 91.7906 85.6454 91.839 85.5003 91.839C85.3551 91.839 85.21 91.7422 85.1616 91.597" fill="#FF886F"/>
<path d="M84.6291 90.8712C85.113 90.4841 85.6936 90.1938 86.1775 89.8067C86.2743 89.7583 86.3711 89.6616 86.4678 89.6616C86.5646 89.6132 86.7098 89.6616 86.7581 89.7583C86.8065 89.8551 86.8065 90.0003 86.7581 90.097C86.5646 90.6777 86.0323 91.0648 85.5001 91.3551C85.3549 91.4519 85.2581 91.5003 85.113 91.5003C84.9678 91.5003 84.5323 91.5003 84.5323 90.9196" fill="#FF886F"/>
<path d="M84.145 90.3385C84.6289 89.9514 84.9676 89.7094 85.4515 89.3223C85.5483 89.274 85.645 89.1772 85.7418 89.1772C85.8386 89.1288 85.9837 89.1772 86.0321 89.274C86.0805 89.3707 86.0805 89.5159 86.0321 89.6127C85.8386 90.1933 85.3063 90.5804 84.7741 90.8707C84.6289 90.9675 84.5321 91.0159 84.387 91.0159C84.2418 91.0159 83.8547 91.0159 83.9515 90.3869" fill="#FF886F"/>
<path d="M83.5646 89.8543C84.0484 89.4188 84.242 89.1769 84.7259 88.7898C84.8226 88.7414 84.871 88.6446 84.9678 88.5962C85.0646 88.5478 85.2097 88.5962 85.2581 88.6446C85.3549 88.7414 85.3065 88.8865 85.3065 88.9833C85.1613 89.564 84.6291 89.9994 84.1452 90.3381C84.0484 90.4349 83.9033 90.4833 83.7581 90.5317C83.613 90.5317 83.1775 90.3865 83.4194 89.7091" fill="#FF886F"/>
<path d="M59.6617 49.1133C59.6617 49.1133 65.2746 49.6455 68.5649 53.952C71.4682 57.7746 73.0649 66.4842 73.0649 66.4842L67.0166 71.0326L61.8391 62.3713" fill="white"/>
<path d="M65.323 56.129C69.5811 62.6612 69.5811 80.129 69.5811 80.129C69.5811 80.129 58.5004 84.1451 41.6617 79.6935C41.6617 79.6935 45.1456 61.6935 46.8391 60.0483C48.4843 58.4515 58.3552 47.5645 58.3552 47.5645L64.0649 52.1128L65.323 56.129Z" fill="white"/>
<path d="M37.6936 91.9843C37.6936 93.1456 37.7419 95.2262 37.7419 96.3875C37.7419 97.065 37.6452 98.2263 37.4032 98.2746C36.7742 98.4198 37.1613 96.4843 36.871 96.5327C36.6774 96.5811 36.6774 98.0327 36.7258 98.7585C36.7258 99.4359 36.6774 100.307 36.3387 100.404C35.9032 100.5 35.9032 96.7746 35.9032 96.7746C35.9032 96.7746 35.7581 100.694 35.4194 100.791C34.8871 100.888 34.9839 96.9198 34.9839 96.9198C34.9839 96.9198 34.8387 100.259 34.4516 100.355C34.0645 100.452 34.2097 97.9843 34.1613 96.9682C34.0645 97.694 34.0161 99.6295 33.7258 99.6779C33.4355 99.7262 33.3387 98.2746 33.3387 97.9359C33.3871 95.8069 33.8226 91.5488 33.8226 91.5488" fill="#FFA18D"/>
<path d="M41.7577 58.5977C41.7577 58.5977 37.0642 68.3235 36.1448 70.5009C33.5319 76.7912 33.6287 92.2751 33.6287 92.2751L37.6448 92.3718C37.6448 92.3718 42.048 74.6622 42.4835 74.1299C44.177 72.0009 49.8867 63.0977 49.8867 63.0977" fill="#FFA18D"/>
<path d="M57.3875 49.1133C57.3875 49.1133 49.0166 49.452 44.4198 52.7907C39.8714 56.1294 36.0972 66.5326 36.0972 66.5326L47.9037 71.6617L52.6456 61.4036" fill="white"/>
<path d="M52.6932 61.4512L47.9512 71.6609L36.1448 66.5802" stroke="#5A636D" stroke-width="0.362903" stroke-miterlimit="10" stroke-linejoin="round"/>
<path d="M58.9356 43.209L56.1292 48.2412C56.1292 48.2412 55.984 50.467 58.6937 51.4348C60.6291 52.1122 61.113 50.1283 61.113 50.1283L62.3227 44.4187" fill="#FFA18D"/>
<path d="M65.129 36.6763C67.2097 39.7247 68.2258 46.886 64.0161 46.886C60.6774 46.886 58.3548 44.3215 58.0161 41.6118C57.5806 37.5473 63.0484 33.6279 65.129 36.6763Z" fill="#FFA18D"/>
<path d="M61.8881 46.5473C61.8881 46.5473 60.63 46.1118 59.3719 44.6602" stroke="#E07A6C" stroke-width="0.362903" stroke-miterlimit="10" stroke-linejoin="round"/>
<path d="M64.5005 40.7899C64.4521 40.9835 64.5972 41.177 64.7908 41.2254C64.9843 41.2738 65.1779 41.1286 65.2263 40.9351C65.2747 40.7415 65.1295 40.548 64.936 40.4996C64.7424 40.4512 64.5489 40.5964 64.5005 40.7899Z" fill="#33002C"/>
<path d="M65.4682 39.8696C65.0811 39.676 64.5972 39.6277 64.2101 39.7728C64.0166 39.8212 63.8714 39.918 63.7262 40.0631C63.5811 40.2083 63.4843 40.3535 63.3391 40.4986C63.2907 40.547 63.2424 40.4986 63.2424 40.4502C63.3391 40.0147 63.7746 39.7244 64.1617 39.5793C64.6456 39.4341 65.1778 39.4825 65.5649 39.7728C65.6133 39.7728 65.5649 39.8696 65.4682 39.8696Z" fill="#33002C"/>
<path d="M66.2424 40.4023C66.2424 40.4023 67.936 42.8217 67.6941 43.112C67.3553 43.6443 66.4844 43.4991 66.4844 43.4991" fill="#FFA18D"/>
<path d="M64.1136 44.2254L66.3394 43.8867C66.3394 43.8867 66.291 45.6287 65.5652 45.7254C64.162 46.0158 64.1136 44.2254 64.1136 44.2254Z" fill="white"/>
<path d="M56.8555 33.0479C58.8878 32.0318 61.4523 32.2737 63.291 33.8221C64.6459 33.8221 66.5814 34.5963 67.2588 36.4834C67.6459 37.5479 67.6943 38.9028 66.6297 40.0157C66.4846 39.4834 65.7104 37.4995 64.9846 36.8705C64.2588 37.4028 63.1942 38.6125 62.8072 39.0963C62.0813 40.0641 61.4523 41.0802 60.9684 42.1931C60.4362 43.306 59.7588 44.3705 59.1781 45.4834C58.5491 46.5963 57.8717 47.7092 56.9523 48.6286C55.5975 49.9834 53.8555 50.9028 52.0168 51.4834C50.2265 52.1124 48.291 52.4512 46.4523 52.8866C45.2426 53.177 43.9846 53.5157 43.0652 54.2899C42.4362 54.8221 41.662 55.7899 41.2265 56.4673C40.6459 54.6286 40.6943 52.8383 41.2265 51.435C41.7104 50.0318 42.6781 49.5479 42.9684 48.9673C43.6459 47.6124 43.162 47.1286 43.3555 45.6286C43.5491 44.4189 44.2265 43.3544 45.1459 42.5802C46.3072 41.6608 47.7588 41.4673 49.162 41.2254C50.3717 41.0318 51.6297 40.5963 52.5975 39.8705C53.5652 39.1447 53.6136 37.2092 54.0975 36.1931C54.6297 34.8866 55.6459 33.6286 56.8555 33.0479Z" fill="#010101"/>
<path d="M61.7905 42.2412C61.5002 41.6122 60.8228 41.6122 60.4841 41.709C59.7583 41.9993 59.5163 42.8702 59.6615 43.6928C59.855 44.5638 60.3873 44.8541 60.7744 44.9025C61.2099 44.9509 61.597 44.5154 61.6454 43.838" fill="#FFA18D"/>
<path d="M68.9515 69.5795C68.9515 69.5795 68.3224 59.5634 66.9192 56.6602" stroke="#5A636D" stroke-width="0.362903" stroke-miterlimit="10" stroke-linejoin="round"/>
<path d="M293.516 52.8886C295.355 51.9693 296.855 50.2757 297.533 48.3402C297.678 47.9531 297.775 47.566 297.775 47.1789C297.775 46.4531 297.436 45.679 296.904 45.2435C296.323 44.7596 295.549 44.566 294.823 44.7112C293.855 44.9048 293.081 45.6306 292.5 46.4048C291.92 47.1306 291.387 48.0015 291.581 48.8725" fill="#FF886F"/>
<path d="M273.63 54.485L278.517 61.4527L290.13 48.3398L295.162 51.6786C295.162 51.6786 286.598 74.3721 278.469 74.3721C272.42 74.3721 263.952 59.6624 263.952 59.6624" fill="#FF886F"/>
<path d="M255.485 44.6128C255.485 44.6128 263.13 43.5966 268.211 47.3708C273.34 51.1934 278.517 59.9515 278.517 59.9515L263.469 68.9999L255.485 58.1128" fill="#173682"/>
<path d="M291.823 39.3398C292.791 40.5979 295.355 42.9689 296.565 43.985C297.436 44.7108 298.597 45.1947 299.371 45.9689C300.001 46.5979 299.759 46.7915 299.13 47.2753C298.259 47.9527 297.291 48.485 296.275 48.8721C296.081 48.9689 295.888 49.0173 295.694 48.9689C295.501 48.9205 295.355 48.8237 295.21 48.7269C294.533 48.1947 293.952 47.5656 293.42 46.9366C292.017 45.2915 289.307 42.2915 288.194 40.4527" fill="#4376CF"/>
<path d="M285.388 42.2919C286.404 43.5499 288.146 43.7919 289.308 42.8241C290.469 41.9048 290.566 40.1145 289.55 38.8564C288.533 37.5983 286.792 37.3564 285.63 38.3241C284.517 39.2919 284.372 41.0338 285.388 42.2919Z" fill="white"/>
<path d="M290.42 43.0647L293.565 40.6453L288.581 34.3066L285.291 37.1615C284.952 37.4518 285 37.8873 285.194 38.2744C286.307 40.2583 287.516 41.9034 289.307 42.9679C289.694 43.2099 290.081 43.355 290.42 43.0647Z" fill="#699FED"/>
<path d="M289.839 38.4679C291.242 40.2098 292.936 41.1776 293.613 40.6453C294.291 40.113 293.662 38.2743 292.259 36.5324C290.855 34.7905 289.162 33.8227 288.484 34.355C287.807 34.8872 288.436 36.7259 289.839 38.4679Z" fill="#4376CF"/>
<mask id="path-202-inside-1" fill="white">
<path d="M303.774 37.3558C303.774 37.3558 296.952 38.7107 293.565 40.0655C292.355 40.3558 290.952 38.9042 290.274 38.0333C288.484 35.8075 288.726 34.8397 288.726 34.8397C291.436 31.5978 293.613 24.9688 293.613 24.9688"/>
</mask>
<path d="M303.774 37.3558C303.774 37.3558 296.952 38.7107 293.565 40.0655C292.355 40.3558 290.952 38.9042 290.274 38.0333C288.484 35.8075 288.726 34.8397 288.726 34.8397C291.436 31.5978 293.613 24.9688 293.613 24.9688" fill="white"/>
<path d="M293.565 40.0655L293.75 40.5298L293.717 40.5432L293.681 40.5517L293.565 40.0655ZM290.274 38.0333L290.664 37.7198L290.669 37.7263L290.274 38.0333ZM288.726 34.8397L288.241 34.7185L288.269 34.6071L288.342 34.5191L288.726 34.8397ZM303.774 37.3558C303.872 37.8463 303.872 37.8463 303.872 37.8463C303.872 37.8463 303.872 37.8463 303.872 37.8463C303.871 37.8463 303.871 37.8464 303.871 37.8465C303.87 37.8466 303.869 37.8469 303.867 37.8472C303.864 37.8478 303.859 37.8488 303.853 37.85C303.84 37.8526 303.821 37.8564 303.796 37.8615C303.746 37.8717 303.671 37.8868 303.575 37.9065C303.383 37.9459 303.105 38.0039 302.76 38.0776C302.07 38.2252 301.116 38.4361 300.056 38.689C297.927 39.197 295.406 39.8673 293.75 40.5298L293.379 39.6013C295.11 38.9089 297.695 38.2244 299.824 37.7163C300.893 37.4611 301.855 37.2486 302.551 37.0998C302.899 37.0254 303.18 36.9669 303.374 36.9269C303.471 36.907 303.547 36.8916 303.598 36.8813C303.624 36.8761 303.643 36.8722 303.657 36.8695C303.663 36.8682 303.668 36.8672 303.672 36.8665C303.673 36.8661 303.675 36.8659 303.676 36.8657C303.676 36.8656 303.676 36.8656 303.677 36.8655C303.677 36.8655 303.677 36.8655 303.677 36.8654C303.677 36.8654 303.677 36.8654 303.774 37.3558ZM293.681 40.5517C292.851 40.7511 292.037 40.3431 291.422 39.8864C290.785 39.4139 290.233 38.7951 289.88 38.3402L290.669 37.7263C290.993 38.1424 291.481 38.6849 292.018 39.0834C292.576 39.4976 293.069 39.6703 293.448 39.5793L293.681 40.5517ZM289.885 38.3466C288.962 37.1994 288.539 36.3465 288.352 35.7516C288.258 35.4533 288.224 35.2195 288.217 35.0468C288.213 34.9605 288.216 34.8902 288.222 34.8353C288.224 34.8079 288.228 34.7845 288.231 34.765C288.233 34.7552 288.235 34.7465 288.236 34.7387C288.237 34.7349 288.238 34.7312 288.239 34.7278C288.239 34.7262 288.239 34.7245 288.24 34.723C288.24 34.7222 288.24 34.7214 288.24 34.7207C288.24 34.7203 288.241 34.7197 288.241 34.7195C288.241 34.719 288.241 34.7185 288.726 34.8397C289.211 34.961 289.211 34.9604 289.211 34.9599C289.211 34.9597 289.211 34.9592 289.212 34.9589C289.212 34.9582 289.212 34.9575 289.212 34.9568C289.212 34.9555 289.213 34.9542 289.213 34.953C289.214 34.9506 289.214 34.9484 289.214 34.9464C289.215 34.9424 289.216 34.9394 289.216 34.9373C289.217 34.9331 289.217 34.9326 289.217 34.936C289.216 34.9428 289.214 34.9654 289.216 35.0046C289.219 35.0829 289.236 35.2302 289.306 35.452C289.446 35.8974 289.796 36.6413 290.664 37.7199L289.885 38.3466ZM288.342 34.5191C289.647 32.9578 290.846 30.548 291.726 28.4917C292.163 27.4704 292.517 26.549 292.761 25.883C292.883 25.5502 292.978 25.2816 293.042 25.0966C293.074 25.0041 293.098 24.9326 293.114 24.8845C293.122 24.8604 293.128 24.8422 293.132 24.8301C293.134 24.8241 293.136 24.8196 293.137 24.8167C293.137 24.8152 293.138 24.8142 293.138 24.8135C293.138 24.8132 293.138 24.8129 293.138 24.8128C293.138 24.8127 293.138 24.8127 293.138 24.8127C293.138 24.8127 293.138 24.8127 293.613 24.9688C294.088 25.1248 294.088 25.1249 294.088 25.125C294.088 25.125 294.088 25.1252 294.088 25.1253C294.088 25.1256 294.088 25.1259 294.088 25.1264C294.087 25.1274 294.087 25.1287 294.086 25.1304C294.085 25.1339 294.083 25.139 294.081 25.1456C294.077 25.1588 294.07 25.1782 294.062 25.2035C294.045 25.2541 294.02 25.3281 293.987 25.4232C293.921 25.6135 293.824 25.888 293.7 26.2273C293.451 26.9056 293.091 27.8441 292.645 28.8853C291.76 30.954 290.514 33.4797 289.11 35.1604L288.342 34.5191Z" fill="black" mask="url(#path-202-inside-1)"/>
<path d="M296.323 33.0493C299.613 37.0654 304.065 38.9041 306.242 37.1138C308.468 35.3235 307.549 30.6299 304.258 26.6138C300.968 22.5977 296.516 20.759 294.339 22.5493C292.162 24.3396 293.033 29.0332 296.323 33.0493Z" fill="#699FED"/>
<path d="M297.29 32.3225C300.097 35.7096 303.726 37.3548 305.468 35.9031C307.21 34.4999 306.339 30.5806 303.581 27.1451C300.774 23.758 297.145 22.1128 295.403 23.5644C293.661 24.9677 294.532 28.887 297.29 32.3225Z" fill="#4376CF"/>
<path d="M302.275 30.6767C300.678 31.9831 299.613 33.2412 298.984 34.0638C298.404 33.5315 297.823 32.9509 297.291 32.3218C296.758 31.6444 296.275 30.967 295.888 30.338C296.807 29.9025 298.307 29.0799 299.855 27.7734L302.275 30.6767Z" fill="#1238A7"/>
<path d="M300.291 29.8542C300.968 30.6768 301.839 31.0639 302.323 30.6768C302.759 30.3381 302.565 29.3703 301.936 28.5477C301.259 27.7252 300.388 27.3381 299.904 27.7252C299.42 28.1123 299.614 29.0316 300.291 29.8542Z" fill="white"/>
<path d="M289.403 49.8878C289.597 47.9523 290.274 46.0652 291.532 44.6136C292.597 43.3555 293.709 42.2426 295.355 42.3878C295.597 42.3878 295.887 42.5329 295.838 42.7265C295.838 42.8717 295.693 42.9684 295.597 43.0652C294.822 43.6458 294.048 44.42 293.806 45.4362C293.709 45.92 293.709 46.4523 293.709 46.9846C293.613 48.3394 292.935 49.5975 291.871 50.42" fill="#FF886F"/>
<path d="M298.501 45.2919C298.501 44.9532 298.597 44.7113 298.501 44.3725C298.452 44.2274 298.307 44.0822 298.162 43.9854C298.065 43.8887 297.872 43.8887 297.726 43.8887C297.581 43.9371 297.436 43.9854 297.291 44.0822C296.71 44.4209 296.226 44.9532 296.13 45.6306C296.13 45.679 296.13 45.7274 296.13 45.7758C296.13 45.8242 296.178 45.8242 296.178 45.8725C296.42 45.9209 296.662 45.9693 296.855 45.9693C297.339 45.9693 298.114 45.1951 298.162 45.05" fill="#FF886F"/>
<path d="M297.775 44.5165C297.775 44.1778 297.726 43.8391 297.629 43.5488C297.581 43.4036 297.533 43.3068 297.436 43.2101C297.339 43.1133 297.146 43.1133 297 43.1133C296.855 43.1617 296.71 43.2101 296.565 43.3068C295.984 43.6455 295.5 44.1778 295.404 44.8552C295.404 44.9036 295.404 44.952 295.404 45.0004C295.404 45.0488 295.452 45.0488 295.452 45.0972C295.597 45.1939 295.839 45.2423 296.033 45.1939C296.226 45.1455 296.42 45.0004 296.565 44.9036C296.758 44.7584 296.952 44.6617 297.146 44.5165C297.242 44.4197 297.387 44.3713 297.436 44.2262" fill="#FF886F"/>
<path d="M297.001 43.6942C297.001 43.3555 296.952 43.0168 296.856 42.7265C296.807 42.5813 296.759 42.4846 296.662 42.3878C296.565 42.291 296.372 42.291 296.227 42.291C296.082 42.3394 295.936 42.3878 295.791 42.4846C295.211 42.8233 294.727 43.3555 294.63 44.033C294.63 44.0813 294.63 44.1297 294.63 44.1781C294.63 44.2265 294.678 44.2265 294.678 44.2749C294.823 44.3717 295.065 44.42 295.259 44.3717C295.452 44.3233 295.646 44.1781 295.791 44.0813C295.985 43.9362 296.178 43.8394 296.372 43.6942C296.469 43.5975 296.614 43.5491 296.662 43.4039" fill="#FF886F"/>
<path d="M296.275 42.9208C296.275 42.5821 296.226 42.2434 296.13 41.9531C296.081 41.8079 296.033 41.7111 295.936 41.6144C295.839 41.5176 295.646 41.5176 295.501 41.5176C295.356 41.566 295.21 41.6143 295.065 41.7111C294.485 42.0498 294.001 42.5821 293.904 43.2595C293.904 43.3079 293.904 43.3563 293.904 43.4047C293.904 43.4531 293.952 43.4531 293.952 43.5014C294.097 43.5982 294.339 43.6466 294.533 43.5982C294.726 43.5498 294.92 43.4047 295.065 43.3079C295.259 43.1627 295.452 43.066 295.646 42.9208C295.743 42.824 295.888 42.7756 295.936 42.6305" fill="#FF886F"/>
<path d="M293.614 46.1621C293.614 46.1621 293.614 49.4524 292.597 50.4686" stroke="#D85039" stroke-width="0.362903" stroke-miterlimit="10" stroke-linejoin="round"/>
<path d="M251.177 171.921V171.05H264.58C265.113 171.05 265.645 170.759 265.935 170.275H266.032V171.679C266.032 171.727 266.032 171.775 265.984 171.824L265.935 171.872C265.693 172.114 265.403 172.259 265.064 172.259H251.516C251.322 172.259 251.177 172.114 251.177 171.921Z" fill="#010101"/>
<path d="M252.338 154.986L251.613 166.212L252 170.76H264.919C265.306 170.76 265.596 170.47 265.596 170.083C265.596 169.793 265.451 169.551 265.161 169.454L258.967 165.728L261.29 154.744" fill="#FF886F"/>
<path d="M258.968 165.729L265.548 169.454C265.838 169.599 266.032 169.89 266.032 170.229C266.032 170.664 265.548 171.051 265.161 171.051H251.226L251.613 166.067C251.613 166.067 255.919 167.47 258.968 165.729Z" fill="#173682"/>
<path d="M260.177 166.066C259.79 166.55 259.452 167.083 259.21 167.663" stroke="#010101" stroke-width="0.483871" stroke-miterlimit="10" stroke-linecap="round" stroke-linejoin="round"/>
<path d="M261.049 166.551C260.662 167.083 260.468 167.422 260.274 167.906" stroke="#010101" stroke-width="0.483871" stroke-miterlimit="10" stroke-linecap="round" stroke-linejoin="round"/>
<path d="M261.774 166.938C261.483 167.276 261.241 167.808 261.048 168.196" stroke="#010101" stroke-width="0.483871" stroke-miterlimit="10" stroke-linecap="round" stroke-linejoin="round"/>
<path d="M227.709 171.923V171.052H241.064C241.596 171.052 242.129 170.761 242.419 170.277H242.516V171.681C242.516 171.729 242.516 171.777 242.467 171.826L242.419 171.874C242.177 172.116 241.887 172.261 241.548 172.261H228C227.806 172.261 227.709 172.116 227.709 171.923Z" fill="#010101"/>
<path d="M228.823 154.986L228.097 166.212L228.484 170.76H241.452C241.839 170.76 242.129 170.47 242.129 170.083C242.129 169.793 241.984 169.551 241.694 169.454L235.5 165.728L237.823 154.744" fill="#FF886F"/>
<path d="M235.451 165.729L242.032 169.454C242.322 169.599 242.516 169.89 242.516 170.229C242.516 170.664 242.032 171.051 241.645 171.051H227.709L228.096 166.067C228.096 166.067 232.403 167.47 235.451 165.729Z" fill="#173682"/>
<path d="M236.709 166.066C236.322 166.55 235.983 167.083 235.741 167.663" stroke="#010101" stroke-width="0.483871" stroke-miterlimit="10" stroke-linecap="round" stroke-linejoin="round"/>
<path d="M237.532 166.551C237.145 167.083 236.952 167.422 236.758 167.906" stroke="#010101" stroke-width="0.483871" stroke-miterlimit="10" stroke-linecap="round" stroke-linejoin="round"/>
<path d="M238.257 166.938C237.967 167.276 237.725 167.808 237.532 168.196" stroke="#010101" stroke-width="0.483871" stroke-miterlimit="10" stroke-linecap="round" stroke-linejoin="round"/>
<path d="M255.434 84.1465C255.434 84.1465 256.596 93.1949 255.434 101.469C254.273 109.743 239.515 162.195 239.515 162.195H223.837L232.547 102.872C232.547 102.872 231.87 93.8723 237.241 86.1787" fill="#222256"/>
<path d="M267.87 86.2281C267.87 86.2281 268.548 98.3732 268.064 111.776C267.29 133.938 263.564 162.244 263.564 162.244H248.709L249.435 104.518C249.435 104.518 246.338 90.9216 249.338 84.6797" fill="#222256"/>
<path d="M249.145 128.035C249.145 128.035 254.322 102.002 255.967 91.1152" stroke="#4376CF" stroke-width="0.362903" stroke-miterlimit="10" stroke-linejoin="round"/>
<path d="M257.322 91.0664L256.209 97.889C256.064 98.4696 255.677 98.9051 255.144 99.1471L254.661 99.3406" stroke="#4376CF" stroke-width="0.362903" stroke-miterlimit="10" stroke-linejoin="round"/>
<path d="M240.581 158.518H224.419" stroke="#4376CF" stroke-width="0.362903" stroke-miterlimit="10" stroke-linejoin="round"/>
<path d="M226.306 162.194L236.177 102.678C236.177 102.678 235.596 94.4036 239.129 89.6133" stroke="#4376CF" stroke-width="0.362903" stroke-miterlimit="10" stroke-linejoin="round"/>
<path d="M245.128 91.1152C245.128 91.1152 243.677 93.9217 242.322 94.4056C240.967 94.8894 236.564 95.9056 236.564 95.9056" stroke="#4376CF" stroke-width="0.362903" stroke-miterlimit="10" stroke-linejoin="round"/>
<path d="M267.967 95.9046C267.967 95.9046 264.483 94.8885 263.467 94.4046C262.209 93.824 262.112 90.582 262.112 90.582" stroke="#4376CF" stroke-width="0.362903" stroke-miterlimit="10" stroke-linejoin="round"/>
<path d="M248.757 158.518H264.048" stroke="#4376CF" stroke-width="0.362903" stroke-miterlimit="10" stroke-linejoin="round"/>
<path d="M250.887 162.195C250.887 162.195 252.58 117.098 252.58 110.953" stroke="#4376CF" stroke-width="0.362903" stroke-miterlimit="10" stroke-linejoin="round"/>
<path d="M260.806 46.55C260.806 46.55 267.048 51.2435 267.968 63.7758C268.887 75.8725 269.129 90.2435 269.129 90.2435C254.516 94.8403 232.742 90.0983 232.742 90.0983C232.742 90.0983 236.564 58.1629 242.516 48.7274L253.161 43.8887L260.806 46.55Z" fill="#173682"/>
<path d="M243.677 60.9677C243.677 60.9677 239.274 66.7741 234.29 73.4516C230.371 78.6774 212.855 91.1128 212.855 91.1128L209.855 85.887L223.887 68.6612L234.484 53.5645" fill="#FF886F"/>
<path d="M210.629 85.3555C209.565 86.2264 207.436 87.6781 206.371 88.549C205.742 89.0329 204.678 90.0006 204.823 90.3393C205.21 91.2103 206.71 89.3232 206.904 89.7587C207 90.049 205.597 91.0652 204.871 91.5974C204.242 92.0813 203.42 92.8071 203.613 93.291C203.855 93.92 207.436 91.1619 207.436 91.1619C207.436 91.1619 203.758 94.2103 204 94.6942C204.339 95.42 208.017 92.3716 208.017 92.3716C208.017 92.3716 204.92 95.0329 205.162 95.5651C205.404 96.0974 207.629 94.1135 208.646 93.4361C208.017 94.0652 206.226 95.5652 206.42 95.9522C206.613 96.3393 208.065 95.42 208.404 95.1781C210.436 93.5813 214.162 89.9522 214.162 89.9522" fill="#FF886F"/>
<path d="M211.259 87.3887C211.259 87.3887 210.049 89.179 208.356 89.2758" stroke="#D85039" stroke-width="0.362903" stroke-miterlimit="10" stroke-linejoin="round"/>
<path d="M251.807 44.5653C251.807 44.5653 241.887 43.9846 237.581 48.2911C233.275 52.5975 230.516 58.1136 230.516 58.1136L241.355 67.2588L247.113 57.1943" fill="#173682"/>
<path d="M241.307 67.2097L247.404 58.5" stroke="#010101" stroke-width="0.362903" stroke-miterlimit="10" stroke-linejoin="round"/>
<path d="M258.629 44.5176C258.435 44.7111 259.113 47.8079 254.274 47.8079C249.629 47.8079 248.419 44.6144 248.419 44.6144" stroke="#010101" stroke-width="0.362903" stroke-miterlimit="10" stroke-linejoin="round"/>
<path d="M268.259 66.0971L267.001 53.1777" stroke="#010101" stroke-width="0.362903" stroke-miterlimit="10" stroke-linejoin="round"/>
<path d="M256.985 39.3891L251.904 33.4375L249.872 39.2923L249.727 40.5988L249.921 45.0988C249.921 45.0988 253.985 48.002 257.033 45.6311C257.227 45.4859 257.275 45.2923 257.275 45.0504L256.985 39.3891Z" fill="#FF886F"/>
<path d="M255.823 29.2278C257.468 31.0665 260.613 37.5504 259.21 40.1633C257.952 42.4859 255.339 42.3891 253.645 41.6149C252.194 40.9375 248.274 35.3246 249.097 33.0504C249.92 30.7278 253.5 26.6633 255.823 29.2278Z" fill="#FF886F"/>
<path d="M249.485 29.2276C250.017 27.8727 251.614 27.0502 253.162 26.9534C253.936 26.905 258.388 27.6308 258.63 30.8244L253.017 32.2276C252.678 33.8727 252.436 36.1469 251.71 37.6953C251.614 37.8405 249.969 41.1308 249.775 40.9856C246.388 38.8082 244.646 36.0018 245.517 33.3405C246.049 31.8889 247.21 29.5663 249.485 29.2276Z" fill="#010101"/>
<path d="M256.887 42.0498C256.887 42.0498 254.468 42.3401 253.065 41.082" stroke="#D85039" stroke-width="0.362903" stroke-miterlimit="10" stroke-linejoin="round"/>
<path d="M257.71 33.873C257.71 33.873 260.565 35.373 260.517 36.0989C260.42 36.8247 259.356 36.9698 259.356 36.9698" fill="#FF886F"/>
<path d="M256.743 33.921C256.84 34.0178 256.936 34.2113 256.985 34.3081C257.082 34.5016 256.936 34.6952 256.743 34.7436C256.356 34.792 256.017 33.9694 256.453 33.8242C256.598 33.8242 256.694 33.8726 256.743 33.921Z" fill="#010101"/>
<path d="M258.485 37.9863L255.678 38.567C255.678 38.567 256.549 40.5025 258.146 40.0186C259.162 39.6799 258.485 37.9863 258.485 37.9863Z" fill="white"/>
<path d="M256.888 33.0503C256.356 33.3406 255.823 33.7761 255.436 34.2116C255.388 34.2116 255.097 34.018 255.097 33.8245C255.097 33.6793 255.823 32.9535 256.597 32.5664C256.597 32.5664 256.985 32.9051 256.888 33.0503Z" fill="#010101"/>
<path d="M252.291 36.7759C251.904 36.4856 251.371 36.1953 250.984 36.3888C250.791 36.4856 250.597 36.6792 250.549 36.8727C250.162 37.9856 250.839 39.4372 252 39.7759C252.484 39.9211 253.017 39.8243 253.113 39.2437L252.484 37.0179C252.484 36.9211 252.388 36.8727 252.291 36.7759Z" fill="#FF886F"/>
<path d="M251.421 39.5347C251.421 39.5347 252.437 40.067 253.066 39.4863" stroke="#D85039" stroke-width="0.362903" stroke-miterlimit="10" stroke-linejoin="round"/>
</g>
<defs>
<clipPath id="clip0">
<rect width="308.952" height="172.5" fill="white" transform="matrix(-1 0 0 1 308.952 0)"/>
</clipPath>
</defs>
</svg>
