<svg width="28" height="28" viewBox="0 0 28 28" fill="none" xmlns="http://www.w3.org/2000/svg">
<g clip-path="url(#clip0)">
<path d="M6.07333 16.5607L5.11943 20.1217L1.63295 20.1955C0.591008 18.2629 0 16.0518 0 13.7021C0 11.4299 0.552578 9.28729 1.53206 7.40063H1.53281L4.63675 7.9697L5.99647 11.055C5.71188 11.8847 5.55677 12.7753 5.55677 13.7021C5.55688 14.7079 5.73907 15.6716 6.07333 16.5607Z" fill="#FBBB00"/>
<path d="M27.1648 11.1423C27.3222 11.9712 27.4042 12.8272 27.4042 13.702C27.4042 14.683 27.3011 15.6399 27.1046 16.5629C26.4376 19.7039 24.6947 22.4465 22.2803 24.3874L22.2796 24.3867L18.37 24.1872L17.8167 20.733C19.4187 19.7935 20.6707 18.3231 21.3303 16.5629H14.0034V11.1423H21.4372H27.1648Z" fill="#518EF8"/>
<path d="M22.2793 24.3868L22.2801 24.3875C19.9319 26.2749 16.949 27.4042 13.702 27.4042C8.4839 27.4042 3.94718 24.4876 1.63287 20.1956L6.07325 16.5608C7.23037 19.649 10.2094 21.8474 13.702 21.8474C15.2032 21.8474 16.6095 21.4416 17.8163 20.7331L22.2793 24.3868Z" fill="#28B446"/>
<path d="M22.448 3.15447L18.0091 6.78851C16.7602 6.00782 15.2838 5.55683 13.702 5.55683C10.1305 5.55683 7.09567 7.85604 5.99651 11.055L1.53279 7.40061H1.53204C3.81247 3.00391 8.40641 0 13.702 0C17.0267 0 20.075 1.18426 22.448 3.15447Z" fill="#F14336"/>
</g>
<defs>
<clipPath id="clip0">
<rect width="27.4041" height="27.4041" fill="white"/>
</clipPath>
</defs>
</svg>
