<svg width="114" height="23" viewBox="0 0 114 23" fill="none" xmlns="http://www.w3.org/2000/svg">
<path d="M10.3996 2.92705C10.6989 2.00574 12.0024 2.00574 12.3017 2.92705L13.6745 7.15212C13.8084 7.56415 14.1923 7.84311 14.6256 7.84311H19.0681C20.0368 7.84311 20.4396 9.08272 19.6559 9.65212L16.0618 12.2634C15.7113 12.518 15.5647 12.9694 15.6985 13.3814L17.0713 17.6065C17.3707 18.5278 16.3162 19.2939 15.5325 18.7245L11.9384 16.1133C11.5879 15.8586 11.1134 15.8586 10.7629 16.1133L7.1688 18.7245C6.38509 19.2939 5.33061 18.5278 5.62996 17.6065L7.00277 13.3814C7.13665 12.9694 6.98999 12.518 6.6395 12.2634L3.04544 9.65212C2.26172 9.08272 2.6645 7.84311 3.63322 7.84311H8.07573C8.50896 7.84311 8.89291 7.56415 9.02679 7.15212L10.3996 2.92705Z" fill="#FD8839"/>
<path d="M33.1008 2.92705C33.4001 2.00574 34.7035 2.00574 35.0029 2.92705L36.3757 7.15212C36.5096 7.56415 36.8935 7.84311 37.3267 7.84311H41.7693C42.738 7.84311 43.1408 9.08272 42.357 9.65212L38.763 12.2634C38.4125 12.518 38.2658 12.9694 38.3997 13.3814L39.7725 17.6065C40.0719 18.5278 39.0174 19.2939 38.2337 18.7245L34.6396 16.1133C34.2891 15.8586 33.8145 15.8586 33.464 16.1133L29.87 18.7245C29.0863 19.2939 28.0318 18.5278 28.3311 17.6065L29.7039 13.3814C29.8378 12.9694 29.6912 12.518 29.3407 12.2634L25.7466 9.65212C24.9629 9.08272 25.3657 7.84311 26.3344 7.84311H30.7769C31.2101 7.84311 31.5941 7.56415 31.728 7.15212L33.1008 2.92705Z" fill="#FD8839"/>
<path d="M55.8019 2.92705C56.1013 2.00574 57.4047 2.00574 57.7041 2.92705L59.0769 7.15212C59.2107 7.56415 59.5947 7.84311 60.0279 7.84311H64.4704C65.4391 7.84311 65.8419 9.08272 65.0582 9.65212L61.4641 12.2634C61.1137 12.518 60.967 12.9694 61.1009 13.3814L62.4737 17.6065C62.773 18.5278 61.7186 19.2939 60.9348 18.7245L57.3408 16.1133C56.9903 15.8586 56.5157 15.8586 56.1652 16.1133L52.5711 18.7245C51.7874 19.2939 50.733 18.5278 51.0323 17.6065L52.4051 13.3814C52.539 12.9694 52.3923 12.518 52.0418 12.2634L48.4478 9.65212C47.6641 9.08272 48.0668 7.84311 49.0356 7.84311H53.4781C53.9113 7.84311 54.2953 7.56415 54.4291 7.15212L55.8019 2.92705Z" fill="#FD8839"/>
<path opacity="0.3" d="M78.5036 2.92705C78.803 2.00574 80.1064 2.00574 80.4057 2.92705L81.7785 7.15212C81.9124 7.56415 82.2964 7.84311 82.7296 7.84311H87.1721C88.1408 7.84311 88.5436 9.08272 87.7599 9.65212L84.1658 12.2634C83.8153 12.518 83.6687 12.9694 83.8025 13.3814L85.1753 17.6065C85.4747 18.5278 84.4202 19.2939 83.6365 18.7245L80.0424 16.1133C79.692 15.8586 79.2174 15.8586 78.8669 16.1133L75.2728 18.7245C74.4891 19.2939 73.4346 18.5278 73.734 17.6065L75.1068 13.3814C75.2407 12.9694 75.094 12.518 74.7435 12.2634L71.1494 9.65212C70.3657 9.08272 70.7685 7.84311 71.7372 7.84311H76.1797C76.613 7.84311 76.9969 7.56415 77.1308 7.15212L78.5036 2.92705Z" fill="#8384A1"/>
<path opacity="0.3" d="M101.205 2.92705C101.504 2.00574 102.808 2.00574 103.107 2.92705L104.48 7.15212C104.614 7.56415 104.998 7.84311 105.431 7.84311H109.873C110.842 7.84311 111.245 9.08272 110.461 9.65212L106.867 12.2634C106.516 12.518 106.37 12.9694 106.504 13.3814L107.877 17.6065C108.176 18.5278 107.121 19.2939 106.338 18.7245L102.744 16.1133C102.393 15.8586 101.919 15.8586 101.568 16.1133L97.974 18.7245C97.1903 19.2939 96.1358 18.5278 96.4351 17.6065L97.8079 13.3814C97.9418 12.9694 97.7952 12.518 97.4447 12.2634L93.8506 9.65212C93.0669 9.08272 93.4697 7.84311 94.4384 7.84311H98.8809C99.3141 7.84311 99.6981 7.56415 99.832 7.15212L101.205 2.92705Z" fill="#8384A1"/>
</svg>
