<svg width="41" height="41" viewBox="0 0 41 41" fill="none" xmlns="http://www.w3.org/2000/svg">
<path d="M40.4973 1.785C40.2563 1.20467 39.7951 0.743503 39.2148 0.5025C38.9293 0.380803 38.6227 0.316252 38.3123 0.3125H28.8123C28.1824 0.3125 27.5783 0.562722 27.1329 1.00812C26.6875 1.45352 26.4373 2.05761 26.4373 2.6875C26.4373 3.31739 26.6875 3.92148 27.1329 4.36688C27.5783 4.81228 28.1824 5.0625 28.8123 5.0625H32.5886L26.8886 10.7625C23.523 8.24368 19.3282 7.09336 15.1485 7.54309C10.9689 7.99282 7.11484 10.0092 4.36216 13.1864C1.60947 16.3635 0.162579 20.4655 0.312744 24.6665C0.46291 28.8676 2.19898 32.8558 5.17148 35.8283C8.14398 38.8008 12.1322 40.5369 16.3333 40.6871C20.5343 40.8372 24.6363 39.3903 27.8135 36.6376C30.9906 33.885 33.007 30.0309 33.4567 25.8513C33.9065 21.6716 32.7561 17.4768 30.2373 14.1113L35.9373 8.41125V12.1875C35.9373 12.8174 36.1875 13.4215 36.6329 13.8669C37.0783 14.3123 37.6824 14.5625 38.3123 14.5625C38.9422 14.5625 39.5463 14.3123 39.9917 13.8669C40.4371 13.4215 40.6873 12.8174 40.6873 12.1875V2.6875C40.6836 2.37714 40.619 2.07053 40.4973 1.785ZM25.2498 32.375C23.5987 34.0595 21.4833 35.2141 19.1733 35.6916C16.8634 36.1691 14.4636 35.9479 12.2799 35.0562C10.0962 34.1644 8.22754 32.6425 6.91218 30.6846C5.59682 28.7266 4.89436 26.4213 4.89436 24.0625C4.89436 21.7037 5.59682 19.3984 6.91218 17.4404C8.22754 15.4825 10.0962 13.9606 12.2799 13.0688C14.4636 12.1771 16.8634 11.9559 19.1733 12.4334C21.4833 12.9109 23.5987 14.0655 25.2498 15.75C27.4256 17.9698 28.6444 20.9542 28.6444 24.0625C28.6444 27.1708 27.4256 30.1552 25.2498 32.375Z" fill="#FD8839"/>
</svg>
