<svg width="322" height="290" viewBox="0 0 322 290" fill="none" xmlns="http://www.w3.org/2000/svg">
<path fill-rule="evenodd" clip-rule="evenodd" d="M235.763 86.0457C267.809 125.68 303.581 162.807 300.126 196.275C296.738 229.676 253.988 259.418 213.067 270.665C172.078 281.843 132.919 274.526 93.1495 258.944C53.4479 243.429 13.1367 219.649 2.7709 185.774C-7.52711 151.967 12.1204 107.997 41.1852 69.0405C70.25 30.1519 108.732 -3.79083 142.065 0.341922C175.466 4.40693 203.718 46.4797 235.763 86.0457Z" fill="#FFFAF7"/>
<circle cx="274.123" cy="185.457" r="3.14056" fill="#39BEE8"/>
<circle cx="48.0025" cy="58.787" r="5.23427" fill="#FF9F67"/>
<circle cx="75.2207" cy="258.736" r="5.23427" fill="#B3DB64"/>
<path d="M265.034 174.617C268.103 192.262 264.619 211.072 253.814 227.092C238.975 249.091 214.089 260.259 189.392 258.606C163.426 255.46 147.165 246.165 140.61 230.723" stroke="#0D0938" stroke-width="3.45172" stroke-linecap="round" stroke-linejoin="round" stroke-dasharray="11.51 11.51"/>
<rect x="117.095" y="57.7402" width="18.8434" height="4.18742" rx="2.09371" transform="rotate(-114 117.095 57.7402)" fill="#0D0938"/>
<rect x="107.673" y="65.0684" width="18.8434" height="4.18741" rx="2.09371" transform="rotate(-134 107.673 65.0684)" fill="#0D0938"/>
<rect width="18.8434" height="4.18741" rx="2.09371" transform="matrix(0.0871558 -0.996195 -0.996195 -0.0871558 131.751 55.6465)" fill="#0D0938"/>
<rect x="94.3005" y="150.455" width="138.185" height="61.7644" transform="rotate(-55 94.3005 150.455)" fill="#14A38B"/>
<path fill-rule="evenodd" clip-rule="evenodd" d="M170.639 50.5495L97.3825 155.17C96.5536 156.354 96.2647 157.657 96.5156 159.081C96.7665 160.504 97.4839 161.63 98.6677 162.459L140.688 191.882C141.872 192.711 143.176 193 144.599 192.749C146.022 192.498 147.148 191.781 147.977 190.597L221.233 85.9761C222.062 84.7923 222.351 83.4889 222.1 82.0657C221.849 80.6426 221.132 79.5166 219.948 78.6877L177.927 49.2644C177.359 48.8663 176.736 48.5922 176.058 48.442C175.381 48.2918 174.7 48.277 174.017 48.3975C173.333 48.518 172.699 48.7647 172.114 49.1375C171.528 49.5104 171.037 49.9811 170.639 50.5495ZM100.469 159.886C99.3259 159.086 99.1546 158.114 99.9548 156.972L173.211 52.3509C174.011 51.2081 174.983 51.0368 176.125 51.837L218.146 81.2603C219.289 82.0605 219.46 83.032 218.66 84.1748L145.404 188.795C144.604 189.938 143.632 190.11 142.489 189.309L100.469 159.886Z" fill="#0D0938"/>
<rect x="142.484" y="109.629" width="132.95" height="82.7015" transform="rotate(-33 142.484 109.629)" fill="#F8F8F8"/>
<rect x="140.683" y="117.686" width="138.185" height="61.7644" transform="rotate(-33 140.683 117.686)" fill="#14A38B"/>
<path fill-rule="evenodd" clip-rule="evenodd" d="M248.89 53.6539L141.777 123.214C140.565 124.001 139.809 125.102 139.508 126.515C139.208 127.929 139.451 129.241 140.238 130.453L168.177 173.475C168.964 174.687 170.064 175.444 171.478 175.744C172.891 176.045 174.204 175.801 175.416 175.014L282.53 105.454C283.742 104.667 284.498 103.566 284.798 102.153C285.099 100.739 284.855 99.4266 284.068 98.2147L256.129 55.1926C255.342 53.9806 254.242 53.2244 252.829 52.924C251.415 52.6235 250.102 52.8668 248.89 53.6539ZM142.872 128.742C142.112 127.572 142.317 126.607 143.487 125.847L250.601 56.2867C251.771 55.5269 252.736 55.732 253.496 56.902L281.434 99.9241C282.194 101.094 281.989 102.059 280.819 102.819L173.706 172.379C172.536 173.139 171.571 172.934 170.811 171.764L142.872 128.742Z" fill="#0D0938"/>
<rect x="163.413" y="108.588" width="132.95" height="82.7015" transform="rotate(-11 163.413 108.588)" fill="#F8F8F8"/>
<rect x="159.889" y="115.613" width="138.185" height="61.7644" transform="rotate(-11 159.889 115.613)" fill="#14A38B"/>
<path fill-rule="evenodd" clip-rule="evenodd" d="M284.207 96.782L158.835 121.152C158.154 121.284 157.524 121.542 156.945 121.925C156.367 122.308 155.883 122.787 155.495 123.363C155.107 123.938 154.844 124.566 154.705 125.246C154.567 125.926 154.564 126.606 154.697 127.287L164.485 177.643C164.76 179.061 165.497 180.175 166.695 180.983C167.893 181.791 169.202 182.057 170.62 181.781L295.992 157.412C297.411 157.136 298.524 156.399 299.332 155.201C300.14 154.003 300.406 152.695 300.131 151.276L290.342 100.921C290.067 99.502 289.33 98.3887 288.132 97.5806C286.934 96.7725 285.625 96.5063 284.207 96.782ZM158.099 125.119C158.422 124.639 158.868 124.345 159.435 124.235L284.807 99.8648C286.176 99.5986 286.994 100.15 287.26 101.52L297.048 151.875C297.314 153.245 296.763 154.062 295.393 154.329L170.022 178.698C168.652 178.965 167.834 178.413 167.568 177.044L157.78 126.688C157.67 126.121 157.776 125.598 158.099 125.119Z" fill="#0D0938"/>
<path fill-rule="evenodd" clip-rule="evenodd" d="M253.441 139.135C253.875 141.367 253.417 143.364 252.067 145.127C250.717 146.891 248.536 148.241 245.525 149.178L246.498 154.186L243.428 154.783L242.482 149.913C238.654 150.593 235.409 150.617 232.747 149.985L231.8 145.115C233.249 145.504 234.901 145.746 236.756 145.84C238.61 145.935 240.24 145.854 241.643 145.597L239.965 136.964L237.887 136.626C235.175 136.147 233.107 135.347 231.684 134.227C230.26 133.106 229.356 131.553 228.97 129.568C228.557 127.445 229.045 125.537 230.433 123.846C231.82 122.155 233.902 120.888 236.676 120.046L235.922 116.168L238.992 115.571L239.733 119.38C242.877 118.88 245.962 118.935 248.987 119.545L248.123 124.097C245.522 123.612 243.01 123.509 240.589 123.788L242.223 132.19L244.107 132.518C247.249 133.073 249.503 133.865 250.868 134.893C252.234 135.921 253.091 137.335 253.441 139.135ZM248.059 140.542C247.885 139.65 247.431 138.976 246.696 138.52C245.96 138.064 244.809 137.709 243.243 137.454L244.674 144.817C247.302 143.875 248.43 142.45 248.059 140.542ZM234.386 128.469C234.556 129.346 234.971 130.024 235.631 130.503C236.291 130.981 237.392 131.366 238.934 131.657L237.538 124.479C236.343 124.903 235.478 125.462 234.942 126.157C234.407 126.852 234.221 127.623 234.386 128.469Z" fill="#0D0938"/>
<rect x="281.993" y="129.152" width="18" height="3" rx="1.5" transform="rotate(79 281.993 129.152)" fill="#0D0938"/>
<path d="M47.5238 89.6602H209.837C215.938 89.6602 220.883 94.6054 220.883 100.706V201.897C220.883 207.997 215.938 212.943 209.837 212.943H58.5693C52.4691 212.943 47.5238 207.997 47.5238 201.897V89.6602Z" fill="#F8F8F8"/>
<rect x="26.1682" y="108.531" width="173.359" height="123.282" rx="11.0455" fill="#FEAA72"/>
<path fill-rule="evenodd" clip-rule="evenodd" d="M37.6835 98.8633V212.343C37.6835 215.118 38.6646 217.487 40.6267 219.449C42.5889 221.411 44.9574 222.392 47.7323 222.392H201.413C204.187 222.392 206.556 221.411 208.518 219.449C210.48 217.487 211.461 215.118 211.461 212.343V108.912C211.461 106.137 210.48 103.769 208.518 101.806C206.556 99.8444 204.187 98.8633 201.413 98.8633H37.6835ZM40.8242 102.003V212.343C40.8242 214.25 41.4987 215.879 42.8476 217.228C44.1965 218.577 45.8248 219.251 47.7324 219.251H201.413C203.32 219.251 204.949 218.577 206.297 217.228C207.646 215.879 208.321 214.25 208.321 212.343V108.912C208.321 107.004 207.646 105.376 206.297 104.027C204.949 102.678 203.32 102.003 201.413 102.003H40.8242Z" fill="#0D0938"/>
<path fill-rule="evenodd" clip-rule="evenodd" d="M94.7381 82.1133H47.6276C44.8816 82.1133 42.5378 83.0841 40.5961 85.0258C38.6544 86.9675 37.6835 89.3114 37.6835 92.0573V102.004H104.682V92.0573C104.682 89.3114 103.711 86.9675 101.77 85.0258C99.8279 83.0841 97.4841 82.1133 94.7381 82.1133ZM101.542 98.8629V92.0573C101.542 90.1785 100.878 88.5749 99.549 87.2465C98.2206 85.918 96.617 85.2538 94.7382 85.2538H47.6277C45.749 85.2538 44.1454 85.918 42.8169 87.2465C41.4885 88.5749 40.8242 90.1785 40.8242 92.0573V98.8629H101.542Z" fill="#0D0938"/>
<path fill-rule="evenodd" clip-rule="evenodd" d="M102.194 149.724L114.437 146.544C114.857 146.435 115.254 146.491 115.628 146.711C116.002 146.93 116.243 147.25 116.352 147.67C116.404 147.871 116.416 148.075 116.387 148.281C116.359 148.488 116.291 148.68 116.186 148.86C116.08 149.039 115.945 149.192 115.778 149.317C115.612 149.443 115.428 149.532 115.227 149.584L102.984 152.763C102.782 152.816 102.578 152.827 102.372 152.799C102.166 152.77 101.973 152.703 101.793 152.597C101.614 152.492 101.461 152.356 101.336 152.19C101.21 152.023 101.121 151.84 101.069 151.638C100.96 151.218 101.015 150.822 101.235 150.448C101.455 150.074 101.775 149.832 102.194 149.724Z" fill="#0D0938"/>
<path fill-rule="evenodd" clip-rule="evenodd" d="M100.281 150.874L98.642 138.332C98.5858 137.902 98.6899 137.515 98.9542 137.171C99.2185 136.828 99.5656 136.628 99.9956 136.571C100.426 136.515 100.812 136.619 101.156 136.884C101.5 137.148 101.7 137.495 101.756 137.925L103.395 150.468C103.422 150.674 103.408 150.878 103.354 151.079C103.3 151.28 103.21 151.463 103.083 151.628C102.956 151.793 102.802 151.928 102.622 152.032C102.441 152.136 102.248 152.201 102.041 152.228C101.611 152.284 101.224 152.18 100.881 151.916C100.537 151.652 100.337 151.304 100.281 150.874Z" fill="#0D0938"/>
<path fill-rule="evenodd" clip-rule="evenodd" d="M111.423 179.755C106.785 175.801 103.959 170.838 102.944 164.867L99.8483 165.393C102.114 178.733 113.727 188.891 127.713 188.891C143.323 188.891 155.978 176.237 155.978 160.626C155.978 145.016 143.323 132.361 127.713 132.361C115.362 132.361 104.862 140.283 101.015 151.323L103.981 152.356C105.713 147.384 108.724 143.348 113.014 140.248C117.392 137.084 122.292 135.502 127.713 135.502C134.651 135.502 140.573 137.955 145.479 142.861C150.385 147.767 152.838 153.688 152.838 160.626C152.838 167.564 150.385 173.486 145.479 178.392C140.573 183.298 134.651 185.751 127.713 185.751C121.542 185.751 116.112 183.752 111.423 179.755Z" fill="#0D0938"/>
<path fill-rule="evenodd" clip-rule="evenodd" d="M126.666 146.494C126.666 145.627 125.963 144.924 125.096 144.924C124.229 144.924 123.526 145.627 123.526 146.494V166.384C123.526 167.252 124.229 167.955 125.096 167.955C125.102 167.955 125.108 167.955 125.115 167.955H142.893C143.76 167.955 144.463 167.251 144.463 166.384C144.463 165.517 143.76 164.814 142.893 164.814H126.666V146.494Z" fill="#0D0938"/>
<ellipse cx="56.3175" cy="92.1761" rx="2.51245" ry="2.51597" fill="#0D0938"/>
<ellipse cx="68.8797" cy="92.1761" rx="2.51245" ry="2.51597" fill="#0D0938"/>
<ellipse cx="81.442" cy="92.1761" rx="2.51245" ry="2.51597" fill="#0D0938"/>
</svg>
