<svg width="24" height="24" viewBox="0 0 24 24" fill="none" xmlns="http://www.w3.org/2000/svg">
<path fill-rule="evenodd" clip-rule="evenodd" d="M12 17.8476C17.6392 17.8476 20.2481 17.1242 20.5 14.2205C20.5 11.3188 18.6812 11.5054 18.6812 7.94511C18.6812 5.16414 16.0452 2 12 2C7.95477 2 5.31885 5.16414 5.31885 7.94511C5.31885 11.5054 3.5 11.3188 3.5 14.2205C3.75295 17.1352 6.36177 17.8476 12 17.8476Z" stroke="#15093E" stroke-width="1.6" stroke-linecap="round" stroke-linejoin="round"/>
<path d="M14.3889 20.8574C13.0247 22.3721 10.8967 22.3901 9.51953 20.8574" stroke="#15093E" stroke-width="1.6" stroke-linecap="round" stroke-linejoin="round"/>
<path d="M17.6 6.4C15.8344 6.4 14.4 4.96501 14.4 3.20134C14.4 1.43766 15.8344 0 17.6 0C19.3656 0 20.8 1.43766 20.8 3.20134C20.8 4.96501 19.3656 6.4 17.6 6.4Z" fill="#FF4746"/>
</svg>
