<svg width="46" height="47" viewBox="0 0 46 47" fill="none" xmlns="http://www.w3.org/2000/svg">
<path d="M43.9091 0H35.5455C34.3904 0 33.4545 0.956236 33.4545 2.13636C33.4545 3.31649 34.3904 4.27273 35.5455 4.27273H38.8616L33.4545 9.79736L30.7514 7.03547C29.9343 6.20058 28.6112 6.20058 27.7949 7.03547C26.9786 7.87036 26.9777 9.22226 27.7949 10.0563L30.498 12.8182L26.9677 16.4252C24.1349 14.1735 20.5863 12.8182 16.7273 12.8182C7.50385 12.8182 0 20.4852 0 29.9091C0 39.333 7.50385 47 16.7273 47C25.9507 47 33.4545 39.333 33.4545 29.9091C33.4545 25.9662 32.1281 22.3404 29.9243 19.446L33.4545 15.839L36.1577 18.6009C36.5667 19.0188 37.1011 19.2273 37.6364 19.2273C38.1716 19.2273 38.7061 19.0188 39.1151 18.6017C39.9322 17.7669 39.9322 16.415 39.1151 15.5809L36.4111 12.8182L41.8182 7.29355V10.6818C41.8182 11.8619 42.7541 12.8182 43.9091 12.8182C45.0641 12.8182 46 11.8619 46 10.6818V2.13636C46 0.956236 45.0641 0 43.9091 0ZM16.7273 42.7273C9.80971 42.7273 4.18182 36.977 4.18182 29.9091C4.18182 22.8411 9.80971 17.0909 16.7273 17.0909C23.6448 17.0909 29.2727 22.8411 29.2727 29.9091C29.2727 36.977 23.6448 42.7273 16.7273 42.7273Z" fill="#FD8839"/>
</svg>
