<svg width="28" height="28" viewBox="0 0 28 28" fill="none" xmlns="http://www.w3.org/2000/svg">
<g id="Iconly/Light/Password">
<g id="Password">
<path id="Stroke 1" fill-rule="evenodd" clip-rule="evenodd" d="M19.0565 3.2085H8.94262C5.41812 3.2085 3.20846 5.704 3.20846 9.2355V18.7648C3.20846 22.2963 5.40762 24.7918 8.94262 24.7918H19.0553C22.5915 24.7918 24.7918 22.2963 24.7918 18.7648V9.2355C24.7918 5.704 22.5915 3.2085 19.0565 3.2085Z" stroke="#15093E" stroke-width="2" stroke-linecap="round" stroke-linejoin="round"/>
<path id="Stroke 3" fill-rule="evenodd" clip-rule="evenodd" d="M12.4706 14.0003C12.4706 15.1938 11.5035 16.1609 10.31 16.1609C9.11648 16.1609 8.14931 15.1938 8.14931 14.0003C8.14931 12.8068 9.11648 11.8396 10.31 11.8396H10.3135C11.5046 11.8408 12.4706 12.8079 12.4706 14.0003Z" stroke="#15093E" stroke-width="2" stroke-linecap="round" stroke-linejoin="round"/>
<path id="Stroke 5" d="M12.474 14.0002H19.845V16.1609" stroke="#15093E" stroke-width="2" stroke-linecap="round" stroke-linejoin="round"/>
<path id="Stroke 7" d="M16.5454 16.1609V14.0002" stroke="#15093E" stroke-width="2" stroke-linecap="round" stroke-linejoin="round"/>
</g>
</g>
</svg>
