<svg width="76" height="76" viewBox="0 0 76 76" fill="none" xmlns="http://www.w3.org/2000/svg">
<path d="M66.7215 16.5623C61.6232 16.0557 56.5248 15.6757 51.3948 15.3907V15.359L50.6982 11.2423C50.2232 8.32898 49.5265 3.95898 42.1165 3.95898H33.8198C26.4415 3.95898 25.7448 8.13898 25.2382 11.2107L24.5732 15.264C21.6282 15.454 18.6832 15.644 15.7382 15.929L9.27818 16.5623C7.94818 16.689 6.99818 17.8607 7.12485 19.159C7.25151 20.4573 8.39151 21.4073 9.72151 21.2806L16.1815 20.6473C32.7748 19.0007 49.4949 19.634 66.2782 21.3123C66.3732 21.3123 66.4365 21.3123 66.5315 21.3123C67.7349 21.3123 68.7799 20.394 68.9065 19.159C69.0015 17.8607 68.0515 16.689 66.7215 16.5623Z" fill="#FF726D"/>
<path d="M60.895 25.776C60.135 24.9844 59.09 24.541 58.0134 24.541H17.9867C16.91 24.541 15.8334 24.9844 15.105 25.776C14.3767 26.5677 13.965 27.6443 14.0284 28.7527L15.9917 61.2427C16.34 66.056 16.7834 72.0727 27.835 72.0727H48.165C59.2167 72.0727 59.66 66.0877 60.0084 61.2427L61.9717 28.7843C62.035 27.6443 61.6233 26.5677 60.895 25.776ZM43.2567 56.2077H32.7117C31.4134 56.2077 30.3367 55.131 30.3367 53.8327C30.3367 52.5343 31.4134 51.4577 32.7117 51.4577H43.2567C44.555 51.4577 45.6317 52.5343 45.6317 53.8327C45.6317 55.131 44.555 56.2077 43.2567 56.2077ZM45.9167 43.541H30.0834C28.785 43.541 27.7084 42.4643 27.7084 41.166C27.7084 39.8677 28.785 38.791 30.0834 38.791H45.9167C47.215 38.791 48.2917 39.8677 48.2917 41.166C48.2917 42.4643 47.215 43.541 45.9167 43.541Z" fill="#FF726D"/>
</svg>
