<svg width="19" height="17" viewBox="0 0 19 17" fill="none" xmlns="http://www.w3.org/2000/svg">
<path opacity="0.3" d="M8.5036 0.927049C8.80295 0.00573874 10.1064 0.00573993 10.4057 0.927051L11.7785 5.15212C11.9124 5.56415 12.2964 5.84311 12.7296 5.84311H17.1721C18.1408 5.84311 18.5436 7.08272 17.7599 7.65212L14.1658 10.2634C13.8153 10.518 13.6687 10.9694 13.8025 11.3814L15.1753 15.6065C15.4747 16.5278 14.4202 17.2939 13.6365 16.7245L10.0424 14.1133C9.69195 13.8586 9.21736 13.8586 8.86687 14.1133L5.27281 16.7245C4.48909 17.2939 3.43461 16.5278 3.73397 15.6065L5.10678 11.3814C5.24065 10.9694 5.09399 10.518 4.7435 10.2634L1.14944 7.65212C0.365727 7.08272 0.768504 5.84311 1.73723 5.84311H6.17973C6.61296 5.84311 6.99692 5.56415 7.13079 5.15212L8.5036 0.927049Z" fill="#8384A1"/>
</svg>
