<svg width="19" height="17" viewBox="0 0 19 17" fill="none" xmlns="http://www.w3.org/2000/svg">
<path d="M8.3996 0.927049C8.69895 0.00573874 10.0024 0.00573993 10.3017 0.927051L11.6745 5.15212C11.8084 5.56415 12.1923 5.84311 12.6256 5.84311H17.0681C18.0368 5.84311 18.4396 7.08272 17.6559 7.65212L14.0618 10.2634C13.7113 10.518 13.5647 10.9694 13.6985 11.3814L15.0713 15.6065C15.3707 16.5278 14.3162 17.2939 13.5325 16.7245L9.93844 14.1133C9.58795 13.8586 9.11335 13.8586 8.76287 14.1133L5.1688 16.7245C4.38509 17.2939 3.33061 16.5278 3.62996 15.6065L5.00277 11.3814C5.13665 10.9694 4.98999 10.518 4.6395 10.2634L1.04544 7.65212C0.261724 7.08272 0.6645 5.84311 1.63322 5.84311H6.07573C6.50896 5.84311 6.89291 5.56415 7.02679 5.15212L8.3996 0.927049Z" fill="#FD8839"/>
</svg>
