<svg width="160" height="160" viewBox="0 0 160 160" fill="none" xmlns="http://www.w3.org/2000/svg">
<path opacity="0.2" d="M71.2867 14.5245C75.2331 7.94607 84.7669 7.94607 88.7133 14.5245C91.6141 19.3598 97.8972 20.9084 102.713 17.975C109.264 13.9841 117.706 18.4147 118.143 26.0736C118.465 31.7031 123.308 35.9942 128.936 35.6347C136.591 35.1456 142.007 42.9918 138.835 49.9766C136.503 55.1106 138.798 61.1613 143.948 63.458C150.954 66.5827 152.103 76.047 146.048 80.7576C141.598 84.22 140.818 90.644 144.31 95.0708C149.062 101.094 145.681 110.008 138.131 111.365C132.581 112.363 128.905 117.688 129.94 123.231C131.349 130.772 124.213 137.094 116.896 134.787C111.519 133.091 105.789 136.099 104.129 141.488C101.872 148.819 92.6152 151.101 87.2092 145.658C83.2356 141.658 76.7644 141.658 72.7908 145.658C67.3848 151.101 58.128 148.819 55.8705 141.488C54.2113 136.099 48.4813 133.091 43.1037 134.787C35.7875 137.094 28.6513 130.772 30.0597 123.231C31.0948 117.688 27.4188 112.363 21.8691 111.365C14.3188 110.008 10.938 101.094 15.6895 95.0708C19.182 90.644 18.402 84.22 13.9516 80.7576C7.89684 76.047 9.04601 66.5827 16.0521 63.458C21.2018 61.1613 23.4965 55.1106 21.165 49.9766C17.9929 42.9918 23.4087 35.1456 31.0644 35.6347C36.6916 35.9942 41.5353 31.7031 41.8567 26.0736C42.294 18.4147 50.7358 13.9841 57.2873 17.975C62.1028 20.9084 68.3859 19.3598 71.2867 14.5245Z" fill="url(#paint0_linear)"/>
<circle cx="80" cy="80.0002" r="40.678" fill="url(#paint1_linear)"/>
<path d="M74.7011 92.453C74.2582 92.453 73.8153 92.2835 73.4779 91.9461L62.8805 81.3484C62.2037 80.672 62.2037 79.5783 62.8805 78.9019C63.5569 78.2255 64.6502 78.2255 65.3269 78.9019L74.7011 88.2761L94.6734 68.3042C95.3498 67.6278 96.4431 67.6278 97.1198 68.3042C97.7962 68.9809 97.7962 70.0742 97.1198 70.7509L75.9246 91.9461C75.5872 92.2835 75.144 92.453 74.7011 92.453Z" fill="white" stroke="white" stroke-width="2.71186"/>
<defs>
<linearGradient id="paint0_linear" x1="-3.31263" y1="-0.000226321" x2="165.509" y2="0.3957" gradientUnits="userSpaceOnUse">
<stop stop-color="#FFA553"/>
<stop offset="1" stop-color="#FE5150"/>
</linearGradient>
<linearGradient id="paint1_linear" x1="37.6376" y1="39.3221" x2="123.479" y2="39.5235" gradientUnits="userSpaceOnUse">
<stop stop-color="#FFA553"/>
<stop offset="1" stop-color="#FE5150"/>
</linearGradient>
</defs>
</svg>
