<svg width="30" height="24" viewBox="0 0 30 24" fill="none" xmlns="http://www.w3.org/2000/svg">
<g clip-path="url(#clip0)">
<path d="M29.2236 2.81131C28.1484 3.28824 26.9928 3.61043 25.7801 3.75538C27.0179 3.01339 27.9687 1.83846 28.4163 0.438357C27.2577 1.12555 25.9746 1.62439 24.6089 1.89325C23.5153 0.727959 21.9571 0 20.2326 0C16.9216 0 14.237 2.68433 14.237 5.99537C14.237 6.46528 14.29 6.92293 14.3923 7.36172C9.40937 7.11171 4.99164 4.72472 2.0345 1.09735C1.51841 1.98282 1.22267 3.01266 1.22267 4.11147C1.22267 6.19161 2.28115 8.0267 3.8899 9.10184C2.90711 9.07071 1.98263 8.80098 1.1743 8.35196C1.17362 8.37695 1.17362 8.40208 1.17362 8.42736C1.17362 11.3322 3.24031 13.7553 5.9831 14.3064C5.48001 14.4435 4.95033 14.5167 4.40356 14.5167C4.01722 14.5167 3.6417 14.479 3.27553 14.4091C4.03856 16.791 6.25268 18.5244 8.87638 18.5726C6.82444 20.1808 4.23932 21.1393 1.4302 21.1393C0.94626 21.1393 0.469039 21.1108 0 21.0555C2.65336 22.7567 5.80483 23.7493 9.19068 23.7493C20.2186 23.7493 26.2494 14.6136 26.2494 6.69045C26.2494 6.43051 26.2435 6.17202 26.232 5.91471C27.4033 5.06956 28.4197 4.01371 29.2235 2.81131H29.2236Z" fill="#2AA9E0"/>
</g>
<defs>
<clipPath id="clip0">
<rect width="29.2236" height="23.7493" fill="white"/>
</clipPath>
</defs>
</svg>
