<svg width="287" height="264" viewBox="0 0 287 264" fill="none" xmlns="http://www.w3.org/2000/svg">
<path fill-rule="evenodd" clip-rule="evenodd" d="M225.211 82.1947C255.823 120.054 289.994 155.52 286.693 187.49C283.457 219.396 242.62 247.807 203.531 258.551C164.377 269.229 126.97 262.239 88.9799 247.354C51.0559 232.534 12.5489 209.818 2.64693 177.459C-7.19007 145.165 11.5769 103.163 39.3419 65.9497C67.1059 28.8017 103.865 -3.62134 135.707 0.326658C167.612 4.20966 194.6 44.3987 225.211 82.1947Z" fill="#FD8839" fill-opacity="0.04"/>
<path d="M263.995 196.432C265.652 196.432 266.995 195.088 266.995 193.432C266.995 191.775 265.652 190.432 263.995 190.432C262.338 190.432 260.995 191.775 260.995 193.432C260.995 195.088 262.338 196.432 263.995 196.432Z" fill="#0D8B47"/>
<path d="M148.995 45.4316C151.757 45.4316 153.995 43.1931 153.995 40.4316C153.995 37.6702 151.757 35.4316 148.995 35.4316C146.234 35.4316 143.995 37.6702 143.995 40.4316C143.995 43.1931 146.234 45.4316 148.995 45.4316Z" fill="#FF4746"/>
<path d="M56.9951 229.432C59.7565 229.432 61.9951 227.193 61.9951 224.432C61.9951 221.67 59.7565 219.432 56.9951 219.432C54.2337 219.432 51.9951 221.67 51.9951 224.432C51.9951 227.193 54.2337 229.432 56.9951 229.432Z" fill="url(#paint0_linear)"/>
<path fill-rule="evenodd" clip-rule="evenodd" d="M206.118 72.3381C209.541 72.4661 212.928 72.8781 216.279 73.5731C216.569 73.6331 216.836 73.7782 217.044 73.9899C217.252 74.2016 217.392 74.4703 217.448 74.7621C217.485 74.9571 217.483 75.1521 217.443 75.3471L217.441 75.3561L217.439 75.3651C217.399 75.5569 217.321 75.7389 217.21 75.8997C217.098 76.0606 216.955 76.1972 216.789 76.3011C216.626 76.41 216.443 76.4848 216.25 76.5209C216.058 76.557 215.86 76.5536 215.669 76.5111C212.486 75.8499 209.253 75.4568 206.005 75.3361C205.71 75.3252 205.424 75.2275 205.185 75.0551C204.945 74.8827 204.762 74.6433 204.658 74.3671C204.589 74.1858 204.556 73.9928 204.562 73.7991V73.7901L204.563 73.7801C204.578 73.3661 204.738 73.0191 205.041 72.7371C205.183 72.6004 205.352 72.4945 205.538 72.4259C205.723 72.3572 205.92 72.3274 206.118 72.3381ZM197.568 74.1201C197.614 74.5088 197.506 74.9004 197.267 75.2101C197.023 75.5248 196.665 75.7305 196.271 75.7821C193.041 76.2005 189.852 76.8859 186.737 77.8311C186.548 77.8916 186.35 77.9128 186.153 77.8936C185.957 77.8743 185.766 77.8149 185.594 77.7191C185.418 77.6286 185.263 77.5031 185.138 77.3504C185.012 77.1977 184.92 77.0209 184.866 76.8311C184.808 76.6428 184.788 76.4449 184.809 76.2491C184.827 76.0529 184.885 75.8624 184.979 75.6891C185.071 75.5152 185.197 75.3613 185.349 75.2362C185.502 75.1111 185.677 75.0173 185.866 74.9601C189.14 73.9667 192.492 73.2465 195.886 72.8071C196.296 72.7541 196.666 72.8531 196.994 73.1061C197.322 73.3591 197.513 73.6911 197.566 74.1021L197.567 74.1111L197.568 74.1201ZM224.145 77.3331L224.141 77.3421L224.138 77.3511C223.994 77.7351 224.006 78.1151 224.173 78.4891C224.341 78.8641 224.616 79.1261 224.998 79.2751C228.058 80.4671 231.015 81.91 233.839 83.5891C234.008 83.6903 234.195 83.757 234.39 83.7853C234.585 83.8137 234.784 83.803 234.975 83.7541C235.355 83.6598 235.682 83.4185 235.885 83.0831L235.89 83.0751L235.895 83.0671C236.107 82.7111 236.162 82.3321 236.06 81.9311C236.014 81.739 235.929 81.5582 235.811 81.4C235.693 81.2418 235.544 81.1094 235.373 81.0111C232.408 79.2467 229.302 77.7308 226.087 76.4791C225.903 76.4073 225.707 76.3729 225.51 76.3781C225.213 76.3829 224.924 76.4765 224.681 76.6466C224.438 76.8168 224.251 77.0559 224.145 77.3331ZM241.59 87.1271C241.588 87.1296 241.586 87.132 241.584 87.1341L241.578 87.1421C241.327 87.4431 241.205 87.8309 241.24 88.2211C241.256 88.4191 241.31 88.6061 241.401 88.7831C241.492 88.9601 241.613 89.1131 241.765 89.2411C244.244 91.3406 246.544 93.6444 248.639 96.1281C248.767 96.2801 248.92 96.4021 249.097 96.4931C249.273 96.5851 249.461 96.6391 249.659 96.6551C250.048 96.69 250.436 96.5692 250.738 96.3191L250.746 96.3131L250.753 96.3071C251.069 96.0401 251.245 95.7001 251.28 95.2871C251.299 95.0906 251.279 94.8922 251.219 94.7041C251.159 94.5159 251.061 94.342 250.932 94.1931C248.729 91.5818 246.311 89.1597 243.704 86.9521C243.555 86.8222 243.381 86.7241 243.193 86.6639C243.005 86.6037 242.807 86.5827 242.611 86.6021C242.413 86.6152 242.221 86.6685 242.046 86.7588C241.87 86.8491 241.715 86.9744 241.59 87.1271ZM254.81 102.022L254.802 102.027L254.794 102.032C254.542 102.183 254.34 102.406 254.215 102.671C254.089 102.937 254.045 103.234 254.089 103.524C254.117 103.721 254.182 103.905 254.283 104.077C255.939 106.878 257.361 109.811 258.534 112.846C258.639 113.122 258.824 113.36 259.065 113.53C259.305 113.701 259.592 113.796 259.887 113.804C260.083 113.81 260.273 113.779 260.456 113.711L260.465 113.708L260.473 113.704C260.658 113.636 260.827 113.531 260.97 113.394C261.113 113.258 261.227 113.094 261.304 112.912C261.472 112.534 261.481 112.151 261.332 111.765C260.1 108.575 258.606 105.492 256.865 102.549C256.767 102.378 256.635 102.228 256.477 102.11C256.319 101.991 256.138 101.906 255.947 101.86C255.756 101.808 255.557 101.795 255.361 101.823C255.166 101.851 254.978 101.919 254.81 102.022ZM263.898 133.405H263.88C263.684 133.405 263.49 133.365 263.31 133.288C263.13 133.211 262.967 133.098 262.833 132.956C262.693 132.818 262.583 132.654 262.509 132.472C262.435 132.291 262.399 132.096 262.403 131.9L262.407 130.789C262.244 127.901 261.868 125.028 261.284 122.195C261.241 122.004 261.238 121.806 261.274 121.614C261.31 121.421 261.385 121.238 261.495 121.076C261.719 120.731 262.031 120.515 262.432 120.427L262.441 120.425L262.45 120.423C262.74 120.362 263.042 120.389 263.317 120.5C263.593 120.612 263.828 120.804 263.994 121.05C264.106 121.214 264.182 121.394 264.222 121.589C264.845 124.61 265.241 127.674 265.407 130.755L265.403 131.91C265.402 132.107 265.363 132.302 265.287 132.484C265.211 132.666 265.1 132.831 264.96 132.969C264.82 133.108 264.654 133.218 264.472 133.293C264.29 133.368 264.095 133.406 263.898 133.405ZM260.17 152.651C260.267 152.82 260.393 152.965 260.547 153.085C260.7 153.206 260.871 153.293 261.059 153.346L261.069 153.349L261.079 153.352C261.479 153.46 261.858 153.411 262.218 153.205C262.577 152.999 262.811 152.696 262.919 152.296C263.758 149.194 264.386 145.839 264.8 142.23C264.845 141.835 264.731 141.438 264.484 141.126C264.237 140.815 263.876 140.614 263.481 140.569L263.474 140.568L263.467 140.567C263.272 140.544 263.074 140.56 262.886 140.615C262.698 140.67 262.523 140.763 262.372 140.888C262.217 141.009 262.088 141.159 261.993 141.331C261.898 141.503 261.839 141.693 261.82 141.888C261.422 145.347 260.823 148.555 260.023 151.512C259.971 151.702 259.957 151.901 259.982 152.096C260.008 152.292 260.071 152.48 260.17 152.651ZM251.103 168.115C250.818 168.405 250.675 168.754 250.674 169.161C250.67 169.358 250.707 169.554 250.782 169.737C250.857 169.92 250.968 170.085 251.11 170.223L251.123 170.236C251.419 170.526 251.774 170.669 252.188 170.665C252.385 170.666 252.581 170.627 252.762 170.55C252.944 170.472 253.108 170.359 253.245 170.216C255.591 167.824 257.598 165.027 259.267 161.826C259.458 161.459 259.492 161.077 259.367 160.682C259.31 160.491 259.213 160.313 259.084 160.16C258.955 160.008 258.796 159.884 258.617 159.796L258.604 159.789C258.256 159.616 257.855 159.584 257.486 159.702C257.297 159.76 257.123 159.856 256.971 159.982C256.82 160.109 256.696 160.264 256.606 160.439C255.075 163.377 253.241 165.935 251.103 168.115Z" fill="#0D0938"/>
<path d="M15.6652 88.8291L29.2517 91.717C30.3321 91.9466 31.3942 91.2569 31.6238 90.1765L31.6344 90.1266C31.8641 89.0462 31.1744 87.9842 30.094 87.7545L16.5075 84.8666C15.4271 84.637 14.365 85.3266 14.1354 86.4071L14.1248 86.457C13.8951 87.5374 14.5848 88.5994 15.6652 88.8291Z" fill="#0D0938"/>
<path d="M38.4263 58.5388L45.1603 70.6873C45.6958 71.6534 45.3467 72.8706 44.3806 73.4061L44.336 73.4309C43.37 73.9664 42.1527 73.6173 41.6172 72.6512L34.8832 60.5028C34.3477 59.5367 34.6967 58.3194 35.6628 57.7839L35.7074 57.7592C36.6735 57.2237 37.8908 57.5727 38.4263 58.5388Z" fill="#0D0938"/>
<path d="M25.2547 68.5147L35.7377 77.6273C36.5713 78.352 36.6596 79.6152 35.935 80.4489L35.9015 80.4874C35.1768 81.321 33.9136 81.4093 33.08 80.6847L22.597 71.572C21.7634 70.8473 21.6751 69.5841 22.3997 68.7505L22.4332 68.712C23.1579 67.8783 24.4211 67.79 25.2547 68.5147Z" fill="#0D0938"/>
<path opacity="0.7" d="M173.995 80.4316H45.9951C41.5768 80.4316 37.9951 84.0134 37.9951 88.4316V172.432C37.9951 176.85 41.5768 180.432 45.9951 180.432H173.995C178.413 180.432 181.995 176.85 181.995 172.432V88.4316C181.995 84.0134 178.413 80.4316 173.995 80.4316Z" fill="#FD8839"/>
<path fill-rule="evenodd" clip-rule="evenodd" d="M182.996 87.4316H54.9941C52.7851 87.4316 50.9001 88.2126 49.3381 89.7746C47.7761 91.3366 46.9951 93.2216 46.9951 95.4306V179.433C46.9951 181.642 47.7761 183.527 49.3381 185.089C50.9001 186.651 52.7851 187.432 54.9941 187.432H182.996C185.205 187.432 187.09 186.651 188.652 185.089C190.214 183.527 190.995 181.642 190.995 179.433V95.4306C190.995 93.2216 190.214 91.3366 188.652 89.7746C187.09 88.2126 185.205 87.4316 182.996 87.4316ZM51.4591 91.8956C52.4351 90.9196 53.6141 90.4316 54.9941 90.4316H182.996C184.377 90.4316 185.555 90.9196 186.531 91.8956C187.507 92.8716 187.995 94.0506 187.995 95.4306V179.433C187.995 180.814 187.507 181.992 186.531 182.968C185.555 183.944 184.377 184.432 182.996 184.432H54.9941C53.6141 184.432 52.4351 183.944 51.4591 182.968C50.4831 181.992 49.9951 180.814 49.9951 179.433V95.4306C49.9951 94.0506 50.4831 92.8716 51.4591 91.8956Z" fill="#0D0938"/>
<path fill-rule="evenodd" clip-rule="evenodd" d="M99.8201 152.439C99.1301 145.218 95.7321 127.432 78.9951 127.432C62.2581 127.432 58.8611 145.218 58.1711 152.439C58.0131 154.088 59.3381 155.432 60.9941 155.432H96.9961C98.6531 155.432 99.9771 154.088 99.8201 152.439ZM65.1761 138.706C68.2981 133.19 72.9041 130.432 78.9961 130.432C85.0861 130.432 89.6921 133.19 92.8141 138.706C94.9261 142.436 96.2561 147.011 96.8041 152.432H61.1861C61.7351 147.011 63.0651 142.436 65.1761 138.706ZM95.9961 161.432H61.9941C60.6141 161.432 59.4351 161.92 58.4591 162.896C57.4831 163.872 56.9951 165.051 56.9951 166.431V166.433C56.9951 167.814 57.4831 168.992 58.4591 169.968C59.4351 170.944 60.6141 171.432 61.9941 171.432H95.9961C97.3771 171.432 98.5551 170.944 99.5311 169.968C100.507 168.992 100.995 167.814 100.995 166.433V166.431C100.995 165.051 100.507 163.872 99.5311 162.896C98.5551 161.92 97.3771 161.432 95.9961 161.432ZM59.9961 166.431C59.9961 165.098 60.6621 164.432 61.9941 164.432H95.9961C97.3291 164.432 97.9951 165.098 97.9951 166.431V166.433C97.9951 167.766 97.3291 168.432 95.9961 168.432H61.9941C60.6621 168.432 59.9951 167.766 59.9951 166.433V166.431H59.9961Z" fill="#0D0938"/>
<path d="M149.495 108.432H116.495C115.667 108.432 114.995 109.103 114.995 109.932C114.995 110.76 115.667 111.432 116.495 111.432H149.495C150.324 111.432 150.995 110.76 150.995 109.932C150.995 109.103 150.324 108.432 149.495 108.432Z" fill="#0D0938"/>
<path d="M149.495 119.432H116.495C115.667 119.432 114.995 120.103 114.995 120.932C114.995 121.76 115.667 122.432 116.495 122.432H149.495C150.324 122.432 150.995 121.76 150.995 120.932C150.995 120.103 150.324 119.432 149.495 119.432Z" fill="#0D0938"/>
<path d="M169.495 141.432H116.495C115.667 141.432 114.995 142.103 114.995 142.932C114.995 143.76 115.667 144.432 116.495 144.432H169.495C170.324 144.432 170.995 143.76 170.995 142.932C170.995 142.103 170.324 141.432 169.495 141.432Z" fill="#0D0938"/>
<path d="M169.495 131.432H116.495C115.667 131.432 114.995 132.103 114.995 132.932C114.995 133.76 115.667 134.432 116.495 134.432H169.495C170.324 134.432 170.995 133.76 170.995 132.932C170.995 132.103 170.324 131.432 169.495 131.432Z" fill="#0D0938"/>
<path d="M169.495 150.432H116.495C115.667 150.432 114.995 151.103 114.995 151.932C114.995 152.76 115.667 153.432 116.495 153.432H169.495C170.324 153.432 170.995 152.76 170.995 151.932C170.995 151.103 170.324 150.432 169.495 150.432Z" fill="#0D0938"/>
<path fill-rule="evenodd" clip-rule="evenodd" d="M88.9951 115.432C88.9951 121.507 84.0701 126.432 77.9951 126.432C71.9201 126.432 66.9951 121.507 66.9951 115.432C66.9951 109.357 71.9201 104.432 77.9951 104.432C84.0701 104.432 88.9951 109.357 88.9951 115.432ZM83.6521 121.089C82.0901 122.651 80.2041 123.432 77.9951 123.432C75.7861 123.432 73.9001 122.651 72.3381 121.089C70.7761 119.527 69.9951 117.641 69.9951 115.432C69.9951 113.223 70.7761 111.337 72.3381 109.775C73.9001 108.213 75.7861 107.432 77.9951 107.432C80.2051 107.432 82.0901 108.213 83.6521 109.775C85.2141 111.337 85.9951 113.223 85.9951 115.432C85.9951 117.641 85.2141 119.527 83.6521 121.089Z" fill="#0D0938"/>
<path d="M167.995 111.432C169.1 111.432 169.995 110.536 169.995 109.432C169.995 108.327 169.1 107.432 167.995 107.432C166.891 107.432 165.995 108.327 165.995 109.432C165.995 110.536 166.891 111.432 167.995 111.432Z" fill="#0D0938"/>
<path d="M176.995 111.432C178.1 111.432 178.995 110.536 178.995 109.432C178.995 108.327 178.1 107.432 176.995 107.432C175.891 107.432 174.995 108.327 174.995 109.432C174.995 110.536 175.891 111.432 176.995 111.432Z" fill="#0D0938"/>
<path d="M195.995 213.432C218.087 213.432 235.995 195.523 235.995 173.432C235.995 151.34 218.087 133.432 195.995 133.432C173.904 133.432 155.995 151.34 155.995 173.432C155.995 195.523 173.904 213.432 195.995 213.432Z" fill="#F8F8F8"/>
<path opacity="0.7" d="M206.995 211.432C226.325 211.432 241.995 195.762 241.995 176.432C241.995 157.102 226.325 141.432 206.995 141.432C187.665 141.432 171.995 157.102 171.995 176.432C171.995 195.762 187.665 211.432 206.995 211.432Z" fill="#FD8839"/>
<path fill-rule="evenodd" clip-rule="evenodd" d="M234.995 174.432C234.995 193.762 219.325 209.432 199.995 209.432C180.665 209.432 164.995 193.762 164.995 174.432C164.995 155.102 180.665 139.432 199.995 139.432C219.325 139.432 234.995 155.102 234.995 174.432ZM222.623 197.06C216.374 203.308 208.832 206.432 199.995 206.432C191.159 206.432 183.616 203.308 177.368 197.06C171.119 190.811 167.995 183.269 167.995 174.432C167.995 165.596 171.119 158.053 177.368 151.805C183.616 145.556 191.159 142.432 199.995 142.432C208.832 142.432 216.374 145.556 222.623 151.805C228.871 158.053 231.995 165.596 231.995 174.432C231.995 183.269 228.871 190.811 222.623 197.06Z" fill="#0D0938"/>
<path d="M210.795 165.233C211.381 164.647 211.381 163.697 210.795 163.111C210.209 162.526 209.26 162.526 208.674 163.111L188.168 183.618C187.582 184.203 187.582 185.153 188.168 185.739C188.753 186.325 189.703 186.325 190.289 185.739L210.795 165.233Z" fill="#0D0938"/>
<path d="M188.163 165.229C187.577 164.643 187.577 163.693 188.163 163.108C188.749 162.522 189.699 162.522 190.284 163.108L210.79 183.614C211.376 184.199 211.376 185.149 210.79 185.735C210.205 186.321 209.255 186.321 208.669 185.735L188.163 165.229Z" fill="#0D0938"/>
<defs>
<linearGradient id="paint0_linear" x1="51.7881" y1="219.432" x2="62.3394" y2="219.456" gradientUnits="userSpaceOnUse">
<stop stop-color="#FFA553"/>
<stop offset="1" stop-color="#FFA921"/>
</linearGradient>
</defs>
</svg>
