<svg width="279" height="266" viewBox="0 0 279 266" fill="none" xmlns="http://www.w3.org/2000/svg">
<path fill-rule="evenodd" clip-rule="evenodd" d="M218.622 79.7899C248.338 116.541 281.51 150.97 278.305 182.004C275.164 212.977 235.522 240.557 197.576 250.986C159.568 261.352 123.255 254.566 86.3767 240.117C49.5622 225.73 12.1818 203.679 2.56949 172.267C-6.97971 140.918 11.2382 100.144 38.1909 64.0202C65.1426 27.959 100.826 -3.51539 131.737 0.317101C162.708 4.0865 188.907 43.0997 218.622 79.7899Z" fill="#FD8839" fill-opacity="0.1"/>
<path d="M237.83 72.262C239.438 72.262 240.742 70.9581 240.742 69.3497C240.742 67.7413 239.438 66.4375 237.83 66.4375C236.222 66.4375 234.918 67.7413 234.918 69.3497C234.918 70.9581 236.222 72.262 237.83 72.262Z" fill="#0D8B47"/>
<path d="M97.0723 265.44C99.7529 265.44 101.926 263.267 101.926 260.586C101.926 257.906 99.7529 255.732 97.0723 255.732C94.3916 255.732 92.2186 257.906 92.2186 260.586C92.2186 263.267 94.3916 265.44 97.0723 265.44Z" fill="#FF4746"/>
<path d="M48.5351 138.272C51.2157 138.272 53.3888 136.099 53.3888 133.419C53.3888 130.738 51.2157 128.565 48.5351 128.565C45.8545 128.565 43.6814 130.738 43.6814 133.419C43.6814 136.099 45.8545 138.272 48.5351 138.272Z" fill="#FD8839"/>
<path fill-rule="evenodd" clip-rule="evenodd" d="M66.4997 109.324L66.3414 109.351C63.2814 109.878 60.2842 110.66 57.3488 111.698C57.0788 111.795 56.7863 111.809 56.5082 111.739C56.2302 111.669 55.9791 111.518 55.7865 111.306C55.66 111.167 55.5617 111.004 55.4973 110.828L55.4936 110.819L55.4909 110.811C55.4241 110.631 55.3949 110.44 55.4049 110.248C55.4149 110.057 55.4641 109.869 55.5493 109.697C55.7226 109.335 55.9986 109.086 56.3784 108.953C59.5122 107.844 62.7358 107.008 66.0133 106.453C66.2018 106.42 66.3949 106.425 66.5814 106.468C66.7679 106.51 66.9441 106.59 67.0997 106.701C67.256 106.811 67.3889 106.951 67.4906 107.113C67.5922 107.276 67.6606 107.456 67.6918 107.645C67.7594 108.041 67.6767 108.404 67.4439 108.731C67.21 109.059 66.8963 109.257 66.4997 109.324ZM38.8722 120.699L38.8787 120.707L38.8842 120.714C39.1396 121.02 39.4659 121.192 39.8621 121.23C40.2592 121.269 40.6123 121.162 40.9212 120.91C43.3706 118.919 45.9867 117.141 48.7405 115.598C49.0876 115.403 49.3172 115.115 49.4272 114.731C49.4827 114.55 49.5008 114.358 49.4802 114.17C49.4596 113.981 49.4009 113.798 49.3076 113.632L49.3029 113.624L49.2984 113.616C49.2074 113.448 49.0827 113.299 48.9321 113.181C48.7816 113.062 48.6083 112.976 48.4229 112.927C48.2392 112.872 48.0462 112.855 47.8558 112.877C47.6654 112.9 47.4816 112.961 47.3158 113.058C44.4161 114.683 41.6617 116.554 39.083 118.652C38.7723 118.904 38.5949 119.231 38.5536 119.632C38.5124 120.032 38.6192 120.388 38.8732 120.699L38.8722 120.699ZM26.587 135.61L26.5953 135.615C26.9244 135.811 27.3178 135.869 27.6895 135.776C27.8764 135.73 28.0485 135.649 28.2029 135.534C28.3584 135.42 28.4862 135.28 28.5845 135.114C30.2103 132.412 32.068 129.857 34.1368 127.477C34.2635 127.335 34.3602 127.169 34.421 126.989C34.4817 126.809 34.5054 126.618 34.4905 126.429C34.4813 126.237 34.433 126.05 34.3486 125.878C34.2642 125.706 34.1454 125.553 33.9997 125.429L33.9923 125.423C33.8497 125.295 33.6823 125.197 33.5005 125.136C33.3187 125.075 33.1264 125.052 32.9354 125.069C32.744 125.079 32.5567 125.129 32.3852 125.214C32.2136 125.3 32.0614 125.42 31.938 125.566C29.7592 128.074 27.8024 130.766 26.0898 133.612C25.9886 133.775 25.9217 133.956 25.8934 134.146C25.8651 134.335 25.8759 134.529 25.9251 134.714C26.0214 135.104 26.242 135.403 26.587 135.61ZM20.0433 153.839L20.0533 153.841L20.0621 153.842C20.4352 153.914 20.8216 153.836 21.1372 153.624C21.2967 153.519 21.4337 153.383 21.54 153.224C21.6472 153.065 21.7218 152.887 21.7592 152.699C22.3855 149.597 23.2768 146.555 24.4232 143.605C24.4933 143.427 24.5272 143.237 24.523 143.046C24.5188 142.855 24.4766 142.666 24.3987 142.491C24.3227 142.317 24.2131 142.16 24.0763 142.029C23.9394 141.897 23.778 141.794 23.6012 141.724L23.5932 141.721C23.4155 141.649 23.2249 141.614 23.0332 141.618C22.8414 141.623 22.6527 141.666 22.4785 141.747C22.3018 141.821 22.1422 141.931 22.0097 142.07C21.8772 142.208 21.7747 142.372 21.7084 142.552C20.5015 145.657 19.5632 148.859 18.9038 152.123C18.8632 152.31 18.8613 152.504 18.8982 152.692C18.9351 152.88 19.0101 153.059 19.1184 153.217C19.3413 153.552 19.6493 153.759 20.0433 153.839ZM20.0458 173.177L20.0554 173.175L20.065 173.174C20.4579 173.11 20.7721 172.917 21.0075 172.596C21.2419 172.275 21.3308 171.917 21.2722 171.523C20.8082 168.403 20.6157 165.249 20.6971 162.096C20.7048 161.906 20.6738 161.716 20.606 161.538C20.5382 161.361 20.435 161.199 20.3026 161.062C20.1748 160.921 20.0197 160.808 19.8468 160.729C19.6739 160.65 19.4868 160.608 19.2968 160.603L19.288 160.603L19.2783 160.603C18.9903 160.595 18.7064 160.672 18.4629 160.826C18.2193 160.98 18.0272 161.203 17.911 161.467C17.8327 161.641 17.7899 161.83 17.7851 162.021C17.6995 165.342 17.9024 168.664 18.3915 171.951C18.4189 172.14 18.4836 172.322 18.5819 172.486C18.6802 172.65 18.8102 172.793 18.9642 172.906C19.1196 173.021 19.2906 173.102 19.478 173.149C19.6655 173.196 19.8543 173.205 20.0458 173.177ZM23.4577 180.713C23.4008 180.531 23.3078 180.363 23.1841 180.219C23.0605 180.075 22.9089 179.957 22.7384 179.873C22.569 179.783 22.383 179.729 22.192 179.714C22.0009 179.698 21.8087 179.722 21.6272 179.784L21.6178 179.788C21.4363 179.847 21.2685 179.942 21.1243 180.068C20.9789 180.192 20.8598 180.344 20.7738 180.515C20.6878 180.685 20.6367 180.872 20.6235 181.063C20.6096 181.256 20.6323 181.444 20.6934 181.626C21.7362 184.781 23.0477 187.841 24.6136 190.772C24.8031 191.126 25.0902 191.362 25.4758 191.478C25.8596 191.595 26.2296 191.559 26.584 191.37L26.5924 191.365L26.6007 191.36C26.9371 191.177 27.1871 190.867 27.2961 190.5C27.4052 190.132 27.3644 189.737 27.1828 189.399C25.6949 186.616 24.4486 183.71 23.4577 180.713ZM39.0143 206.186L39.0099 206.192L39.0054 206.196C38.8768 206.338 38.7213 206.452 38.5481 206.534C38.3748 206.615 38.1872 206.661 37.996 206.669C37.8051 206.678 37.6142 206.649 37.4344 206.584C37.2547 206.519 37.0895 206.419 36.9486 206.29C34.9989 204.505 33.1222 202.642 31.3232 200.705L31.2981 200.675C30.8684 200.162 30.4476 199.641 30.0359 199.114C29.9156 198.964 29.8272 198.792 29.7762 198.607C29.7252 198.422 29.7125 198.229 29.7391 198.039C29.7882 197.64 29.9719 197.317 30.2889 197.07L30.2962 197.064C30.4462 196.948 30.6176 196.862 30.8006 196.812C30.9835 196.762 31.1746 196.749 31.3628 196.773C31.5528 196.796 31.7364 196.856 31.9029 196.951C32.0695 197.045 32.2156 197.171 32.3329 197.323C32.7159 197.813 33.1068 198.298 33.5056 198.776C35.2355 200.635 37.0388 202.424 38.9113 204.139C39.2063 204.408 39.3638 204.742 39.3839 205.142C39.3963 205.332 39.3698 205.523 39.3061 205.702C39.2424 205.882 39.1428 206.047 39.0133 206.186L39.0143 206.186ZM46.3712 210.098C46.2158 209.988 46.0398 209.911 45.8538 209.872C45.6679 209.832 45.4758 209.83 45.2892 209.867C45.1017 209.899 44.9225 209.968 44.7625 210.07C44.6025 210.173 44.4649 210.307 44.3581 210.464L44.3529 210.471L44.3477 210.479C44.2399 210.636 44.1644 210.814 44.1255 211.001C44.0646 211.283 44.0895 211.577 44.1972 211.845C44.3048 212.112 44.4902 212.342 44.7293 212.503C47.6594 214.503 50.5692 216.103 53.4576 217.3C53.7233 217.412 54.0164 217.442 54.2992 217.386C54.582 217.33 54.8416 217.19 55.0445 216.986C55.1814 216.849 55.2862 216.691 55.36 216.513L55.3656 216.5L55.3703 216.487C55.5157 216.118 55.5102 215.751 55.3548 215.386C55.2834 215.211 55.1774 215.051 55.043 214.918C54.9087 214.785 54.7488 214.68 54.573 214.61C51.8698 213.49 49.1361 211.985 46.3712 210.098ZM63.5087 216.928C63.3214 216.907 63.1316 216.923 62.9507 216.977C62.7698 217.03 62.6014 217.119 62.4556 217.239C62.3016 217.358 62.1741 217.508 62.081 217.679C61.9879 217.85 61.9313 218.038 61.9148 218.232C61.8745 218.633 61.9823 218.988 62.2362 219.299C62.4911 219.611 62.8187 219.786 63.2189 219.826C66.4879 220.158 69.7893 219.946 72.9887 219.197C73.1753 219.154 73.3516 219.075 73.5073 218.964C73.6629 218.852 73.7949 218.711 73.8956 218.548C73.9969 218.386 74.0652 218.205 74.0963 218.017C74.1275 217.828 74.121 217.635 74.0771 217.449C74.003 217.113 73.8087 216.816 73.5307 216.613C73.3788 216.496 73.2047 216.411 73.019 216.364C72.8333 216.316 72.6399 216.307 72.4506 216.337C72.4098 216.343 72.3692 216.351 72.3289 216.361C69.4207 217.038 66.4807 217.227 63.5087 216.928Z" fill="#0D0938"/>
<path d="M264.471 191.305L251.13 193.898C250.078 194.103 249.059 193.415 248.854 192.363C248.65 191.31 249.337 190.291 250.39 190.086L263.73 187.493C264.783 187.289 265.802 187.976 266.007 189.029C266.211 190.081 265.524 191.1 264.471 191.305Z" fill="#0D0938"/>
<path d="M264.19 207.229L250.767 205.103C249.708 204.935 248.986 203.94 249.153 202.881C249.321 201.822 250.316 201.1 251.375 201.267L264.798 203.393C265.857 203.561 266.579 204.556 266.412 205.615C266.244 206.674 265.249 207.396 264.19 207.229Z" fill="#0D0938"/>
<path d="M254.716 172.039L244.305 180.775C243.484 181.464 243.376 182.689 244.066 183.51C244.755 184.332 245.979 184.439 246.801 183.75L257.212 175.014C258.033 174.325 258.14 173.1 257.451 172.279C256.762 171.457 255.537 171.35 254.716 172.039Z" fill="#0D0938"/>
<path opacity="0.7" fill-rule="evenodd" clip-rule="evenodd" d="M108.471 56.5106C82.2432 63.5388 65.3717 89.0034 69.0916 115.901C73.9841 151.277 79.896 194.596 80.3105 200.366C80.8618 208.026 76.5886 217.088 74.5928 220.854C73.2776 222.179 72.3332 223.826 71.8539 225.631C71.3745 227.435 71.377 229.334 71.8611 231.138C73.3881 236.834 79.2426 240.215 84.939 238.688L219.964 202.508C225.66 200.982 229.04 195.127 227.514 189.431C227.005 187.529 225.981 185.806 224.554 184.45C223.127 183.094 221.353 182.16 219.428 181.749C215.746 179.702 208.638 175.021 205.155 167.842C202.358 162.078 185.748 121.423 172.285 88.2792C162.063 63.1117 134.71 49.4805 108.471 56.5106Z" fill="#FD8839"/>
<path fill-rule="evenodd" clip-rule="evenodd" d="M121.218 66.5315C110.324 70.8018 101.343 78.2542 94.2736 88.8858C85.9067 101.47 82.6965 114.787 84.6419 128.838C85.6782 136.315 86.7165 143.792 87.757 151.269C92.3631 184.395 94.8114 202.979 95.1026 207.022C95.4326 211.622 94.3347 217.013 91.8079 223.197C91.5565 223.813 91.3031 224.411 91.0478 224.993L226.102 188.804C225.886 188.654 225.67 188.503 225.455 188.35C220.326 184.689 216.647 180.566 214.421 175.979C212.463 171.944 205.182 154.373 192.576 123.267C188.926 114.258 186.079 107.238 184.035 102.205C178.7 89.0635 169.264 79.1347 155.727 72.4191C144.29 66.7461 132.787 64.7832 121.218 66.5315ZM229.895 187.788C232.096 189.124 233.642 189.799 233.642 189.799L85.4903 229.497C85.4903 229.497 86.3047 228.147 87.3677 225.979C89.514 221.6 92.6777 213.886 92.1981 207.231C91.672 199.915 87.8094 172.933 81.7588 129.237C78.267 104.027 92.3884 78.327 114.496 66.5073C116.433 65.4711 118.427 64.5458 120.469 63.7358C122.648 63.4145 124.837 63.2213 127.027 63.1495C152.083 62.3321 177.161 77.5291 186.735 101.109C203.371 142.086 213.492 167.392 217.042 174.707C220.119 181.047 226.022 185.439 229.895 187.788ZM114.106 65.0512L126.636 61.6934C124.515 62.2679 122.489 63.1492 120.622 64.3095C118.426 64.238 116.23 64.4878 114.106 65.0512Z" fill="#0D0938"/>
<path fill-rule="evenodd" clip-rule="evenodd" d="M226.329 188.743L91.303 224.924C88.4549 225.687 86.294 227.345 84.8195 229.898C83.3459 232.452 82.9896 235.153 83.7526 238.001L83.7536 238.003C84.5166 240.85 86.1746 243.012 88.7286 244.485C91.2817 245.96 93.9823 246.315 96.8305 245.552L231.856 209.373C234.704 208.61 236.865 206.951 238.34 204.398C239.813 201.845 240.169 199.144 239.406 196.296L239.405 196.294C238.642 193.446 236.984 191.285 234.43 189.81C231.877 188.336 229.177 187.98 226.329 188.743ZM87.3414 231.354C88.4141 229.498 89.9858 228.292 92.0563 227.737L227.083 191.557C229.153 191.001 231.117 191.261 232.974 192.332C234.831 193.405 236.038 194.977 236.592 197.047L236.593 197.049C237.148 199.121 236.889 201.084 235.818 202.942C234.745 204.799 233.173 206.004 231.103 206.559L96.0762 242.739C94.0056 243.294 92.0418 243.036 90.1848 241.963C88.3277 240.892 87.1211 239.32 86.5668 237.249L86.5658 237.247C86.0106 235.176 86.2697 233.211 87.3414 231.354ZM151.97 233.793C152.358 233.689 152.726 233.737 153.074 233.938C153.423 234.139 153.649 234.434 153.753 234.823C154.655 238.188 156.615 240.743 159.633 242.485C162.651 244.227 165.843 244.648 169.209 243.746C172.575 242.844 175.13 240.884 176.871 237.866C178.614 234.848 179.034 231.656 178.132 228.29C178.028 227.901 178.077 227.533 178.278 227.185C178.479 226.836 178.774 226.611 179.162 226.506C179.55 226.402 179.918 226.451 180.267 226.652C180.615 226.853 180.841 227.148 180.945 227.536C182.055 231.679 181.538 235.608 179.394 239.322C177.249 243.036 174.105 245.448 169.962 246.559C165.82 247.668 161.891 247.152 158.177 245.007C154.463 242.862 152.05 239.719 150.94 235.576C150.836 235.188 150.884 234.82 151.085 234.471C151.286 234.123 151.581 233.897 151.97 233.793Z" fill="#0D0938"/>
<path d="M172.79 115.945C197.452 115.945 217.444 95.9527 217.444 71.2909C217.444 46.6291 197.452 26.6367 172.79 26.6367C148.128 26.6367 128.136 46.6291 128.136 71.2909C128.136 95.9527 148.128 115.945 172.79 115.945Z" fill="#F8F8F8"/>
<path opacity="0.7" d="M178.615 99.4427C197.379 99.4427 212.591 84.2312 212.591 65.4667C212.591 46.7023 197.379 31.4907 178.615 31.4907C159.85 31.4907 144.639 46.7023 144.639 65.4667C144.639 84.2312 159.85 99.4427 178.615 99.4427Z" fill="#FD8839"/>
<path fill-rule="evenodd" clip-rule="evenodd" d="M205.796 70.3202C205.796 89.0847 190.584 104.296 171.82 104.296C153.055 104.296 137.844 89.0847 137.844 70.3202C137.844 51.5558 153.055 36.3442 171.82 36.3442C190.584 36.3442 205.796 51.5558 205.796 70.3202ZM193.785 92.2853C187.719 98.3505 180.397 101.384 171.82 101.384C163.241 101.384 155.92 98.3505 149.854 92.2853C143.788 86.22 140.756 78.8977 140.756 70.3202C140.756 61.7418 143.788 54.4195 149.854 48.3543C155.92 42.2891 163.241 39.2565 171.82 39.2565C180.397 39.2565 187.719 42.2891 193.785 48.3543C199.85 54.4204 202.883 61.7418 202.883 70.3202C202.883 78.8977 199.85 86.22 193.785 92.2853Z" fill="#0D0938"/>
<path fill-rule="evenodd" clip-rule="evenodd" d="M179.585 71.3133C179.585 75.2458 178.947 78.1668 177.669 80.0753C176.392 81.9847 174.439 82.9399 171.812 82.9399C169.266 82.9399 167.338 81.9536 166.024 79.983C164.71 78.0115 164.054 75.1216 164.054 71.3133C164.054 67.3197 164.691 64.3764 165.969 62.4825C167.246 60.5886 169.194 59.6421 171.812 59.6421C174.366 59.6421 176.3 60.6322 177.614 62.6135C178.928 64.5958 179.585 67.4954 179.585 71.3133ZM167.776 71.3143C167.776 74.3993 168.097 76.6029 168.737 77.9241C169.379 79.2453 170.403 79.9054 171.812 79.9054C173.219 79.9054 174.249 79.2346 174.901 77.893C175.552 76.5515 175.878 74.3586 175.878 71.3143C175.878 68.2798 175.552 66.0839 174.901 64.7268C174.249 63.3697 173.219 62.6912 171.812 62.6912C170.403 62.6912 169.379 63.3571 168.737 64.688C168.097 66.0199 167.776 68.2283 167.776 71.3143Z" fill="#0D0938"/>
</svg>
